<?xml version="1.0" encoding="utf-8" standalone="no"?>
<!DOCTYPE svg PUBLIC "-//W3C//DTD SVG 1.1//EN"
  "http://www.w3.org/Graphics/SVG/1.1/DTD/svg11.dtd">
<!-- Created with matplotlib (http://matplotlib.org/) -->
<svg height="309pt" version="1.1" viewBox="0 0 723 309" width="723pt" xmlns="http://www.w3.org/2000/svg" xmlns:xlink="http://www.w3.org/1999/xlink">
 <defs>
  <style type="text/css">
*{stroke-linecap:butt;stroke-linejoin:round;stroke-miterlimit:100000;}
  </style>
 </defs>
 <g id="figure_1">
  <g id="patch_1">
   <path d="M 0 309.0941 
L 723.6975 309.0941 
L 723.6975 0 
L 0 0 
z
" style="fill:#ffffff;"/>
  </g>
  <g id="axes_1">
   <g id="patch_2">
    <path d="M 46.8975 269.6666 
L 716.4975 269.6666 
L 716.4975 39.2666 
L 46.8975 39.2666 
z
" style="fill:#ffffff;"/>
   </g>
   <g id="line2d_1">
    <defs>
     <path d="M 0 1.5 
C 0.397805 1.5 0.77937 1.341951 1.06066 1.06066 
C 1.341951 0.77937 1.5 0.397805 1.5 0 
C 1.5 -0.397805 1.341951 -0.77937 1.06066 -1.06066 
C 0.77937 -1.341951 0.397805 -1.5 0 -1.5 
C -0.397805 -1.5 -0.77937 -1.341951 -1.06066 -1.06066 
C -1.341951 -0.77937 -1.5 -0.397805 -1.5 0 
C -1.5 0.397805 -1.341951 0.77937 -1.06066 1.06066 
C -0.77937 1.341951 -0.397805 1.5 0 1.5 
z
" id="ma9c723aee1" style="stroke:#0000ff;stroke-width:0.5;"/>
    </defs>
    <g clip-path="url(#pe3388e2cf2)">
     <use style="fill:#0000ff;stroke:#0000ff;stroke-width:0.5;" x="46.8975" xlink:href="#ma9c723aee1" y="271.176094316"/>
     <use style="fill:#0000ff;stroke:#0000ff;stroke-width:0.5;" x="50.4602549512" xlink:href="#ma9c723aee1" y="269.651686357"/>
     <use style="fill:#0000ff;stroke:#0000ff;stroke-width:0.5;" x="54.0230099025" xlink:href="#ma9c723aee1" y="268.057725819"/>
     <use style="fill:#0000ff;stroke:#0000ff;stroke-width:0.5;" x="57.5857648537" xlink:href="#ma9c723aee1" y="266.393744071"/>
     <use style="fill:#0000ff;stroke:#0000ff;stroke-width:0.5;" x="61.1485198049" xlink:href="#ma9c723aee1" y="264.659978323"/>
     <use style="fill:#0000ff;stroke:#0000ff;stroke-width:0.5;" x="64.7112747561" xlink:href="#ma9c723aee1" y="262.857401015"/>
     <use style="fill:#0000ff;stroke:#0000ff;stroke-width:0.5;" x="68.2740297074" xlink:href="#ma9c723aee1" y="260.987904401"/>
     <use style="fill:#0000ff;stroke:#0000ff;stroke-width:0.5;" x="71.8367846586" xlink:href="#ma9c723aee1" y="259.054135419"/>
     <use style="fill:#0000ff;stroke:#0000ff;stroke-width:0.5;" x="75.3995396098" xlink:href="#ma9c723aee1" y="257.059539261"/>
     <use style="fill:#0000ff;stroke:#0000ff;stroke-width:0.5;" x="78.962294561" xlink:href="#ma9c723aee1" y="255.008236783"/>
     <use style="fill:#0000ff;stroke:#0000ff;stroke-width:0.5;" x="82.5250495123" xlink:href="#ma9c723aee1" y="252.904872632"/>
     <use style="fill:#0000ff;stroke:#0000ff;stroke-width:0.5;" x="86.0878044635" xlink:href="#ma9c723aee1" y="250.754249133"/>
     <use style="fill:#0000ff;stroke:#0000ff;stroke-width:0.5;" x="89.6505594147" xlink:href="#ma9c723aee1" y="248.561744233"/>
     <use style="fill:#0000ff;stroke:#0000ff;stroke-width:0.5;" x="93.2133143659" xlink:href="#ma9c723aee1" y="246.332275286"/>
     <use style="fill:#0000ff;stroke:#0000ff;stroke-width:0.5;" x="96.7760693172" xlink:href="#ma9c723aee1" y="244.070623899"/>
     <use style="fill:#0000ff;stroke:#0000ff;stroke-width:0.5;" x="100.338824268" xlink:href="#ma9c723aee1" y="241.781195015"/>
     <use style="fill:#0000ff;stroke:#0000ff;stroke-width:0.5;" x="103.90157922" xlink:href="#ma9c723aee1" y="239.467951276"/>
     <use style="fill:#0000ff;stroke:#0000ff;stroke-width:0.5;" x="107.464334171" xlink:href="#ma9c723aee1" y="237.134417194"/>
     <use style="fill:#0000ff;stroke:#0000ff;stroke-width:0.5;" x="111.027089122" xlink:href="#ma9c723aee1" y="234.783750649"/>
     <use style="fill:#0000ff;stroke:#0000ff;stroke-width:0.5;" x="114.589844073" xlink:href="#ma9c723aee1" y="232.418626618"/>
     <use style="fill:#0000ff;stroke:#0000ff;stroke-width:0.5;" x="118.152599025" xlink:href="#ma9c723aee1" y="230.042355574"/>
     <use style="fill:#0000ff;stroke:#0000ff;stroke-width:0.5;" x="121.715353976" xlink:href="#ma9c723aee1" y="227.657712238"/>
     <use style="fill:#0000ff;stroke:#0000ff;stroke-width:0.5;" x="125.278108927" xlink:href="#ma9c723aee1" y="225.267991743"/>
     <use style="fill:#0000ff;stroke:#0000ff;stroke-width:0.5;" x="128.840863878" xlink:href="#ma9c723aee1" y="222.876948672"/>
     <use style="fill:#0000ff;stroke:#0000ff;stroke-width:0.5;" x="132.403618829" xlink:href="#ma9c723aee1" y="220.488879614"/>
     <use style="fill:#0000ff;stroke:#0000ff;stroke-width:0.5;" x="135.966373781" xlink:href="#ma9c723aee1" y="218.108619493"/>
     <use style="fill:#0000ff;stroke:#0000ff;stroke-width:0.5;" x="139.529128732" xlink:href="#ma9c723aee1" y="215.741439622"/>
     <use style="fill:#0000ff;stroke:#0000ff;stroke-width:0.5;" x="143.091883683" xlink:href="#ma9c723aee1" y="213.39285836"/>
     <use style="fill:#0000ff;stroke:#0000ff;stroke-width:0.5;" x="146.654638634" xlink:href="#ma9c723aee1" y="211.068385884"/>
     <use style="fill:#0000ff;stroke:#0000ff;stroke-width:0.5;" x="150.217393586" xlink:href="#ma9c723aee1" y="208.77324565"/>
     <use style="fill:#0000ff;stroke:#0000ff;stroke-width:0.5;" x="153.780148537" xlink:href="#ma9c723aee1" y="206.512114329"/>
     <use style="fill:#0000ff;stroke:#0000ff;stroke-width:0.5;" x="157.342903488" xlink:href="#ma9c723aee1" y="204.28912486"/>
     <use style="fill:#0000ff;stroke:#0000ff;stroke-width:0.5;" x="160.905658439" xlink:href="#ma9c723aee1" y="202.10686839"/>
     <use style="fill:#0000ff;stroke:#0000ff;stroke-width:0.5;" x="164.46841339" xlink:href="#ma9c723aee1" y="199.967737668"/>
     <use style="fill:#0000ff;stroke:#0000ff;stroke-width:0.5;" x="168.031168342" xlink:href="#ma9c723aee1" y="197.872984256"/>
     <use style="fill:#0000ff;stroke:#0000ff;stroke-width:0.5;" x="171.593923293" xlink:href="#ma9c723aee1" y="195.823060963"/>
     <use style="fill:#0000ff;stroke:#0000ff;stroke-width:0.5;" x="175.156678244" xlink:href="#ma9c723aee1" y="193.817741358"/>
     <use style="fill:#0000ff;stroke:#0000ff;stroke-width:0.5;" x="178.719433195" xlink:href="#ma9c723aee1" y="191.856252056"/>
     <use style="fill:#0000ff;stroke:#0000ff;stroke-width:0.5;" x="182.282188147" xlink:href="#ma9c723aee1" y="189.937402791"/>
     <use style="fill:#0000ff;stroke:#0000ff;stroke-width:0.5;" x="185.844943098" xlink:href="#ma9c723aee1" y="188.059817812"/>
     <use style="fill:#0000ff;stroke:#0000ff;stroke-width:0.5;" x="189.407698049" xlink:href="#ma9c723aee1" y="186.221550076"/>
     <use style="fill:#0000ff;stroke:#0000ff;stroke-width:0.5;" x="192.970453" xlink:href="#ma9c723aee1" y="184.420955303"/>
     <use style="fill:#0000ff;stroke:#0000ff;stroke-width:0.5;" x="196.533207952" xlink:href="#ma9c723aee1" y="182.656177856"/>
     <use style="fill:#0000ff;stroke:#0000ff;stroke-width:0.5;" x="200.095962903" xlink:href="#ma9c723aee1" y="180.925361912"/>
     <use style="fill:#0000ff;stroke:#0000ff;stroke-width:0.5;" x="203.658717854" xlink:href="#ma9c723aee1" y="179.226687244"/>
     <use style="fill:#0000ff;stroke:#0000ff;stroke-width:0.5;" x="207.221472805" xlink:href="#ma9c723aee1" y="177.558394199"/>
     <use style="fill:#0000ff;stroke:#0000ff;stroke-width:0.5;" x="210.784227756" xlink:href="#ma9c723aee1" y="175.918800026"/>
     <use style="fill:#0000ff;stroke:#0000ff;stroke-width:0.5;" x="214.346982708" xlink:href="#ma9c723aee1" y="174.306308826"/>
     <use style="fill:#0000ff;stroke:#0000ff;stroke-width:0.5;" x="217.909737659" xlink:href="#ma9c723aee1" y="172.719416605"/>
     <use style="fill:#0000ff;stroke:#0000ff;stroke-width:0.5;" x="221.47249261" xlink:href="#ma9c723aee1" y="171.156712862"/>
     <use style="fill:#0000ff;stroke:#0000ff;stroke-width:0.5;" x="225.035247561" xlink:href="#ma9c723aee1" y="169.616879535"/>
     <use style="fill:#0000ff;stroke:#0000ff;stroke-width:0.5;" x="228.598002513" xlink:href="#ma9c723aee1" y="168.098688436"/>
     <use style="fill:#0000ff;stroke:#0000ff;stroke-width:0.5;" x="232.160757464" xlink:href="#ma9c723aee1" y="166.600997314"/>
     <use style="fill:#0000ff;stroke:#0000ff;stroke-width:0.5;" x="235.723512415" xlink:href="#ma9c723aee1" y="165.122745466"/>
     <use style="fill:#0000ff;stroke:#0000ff;stroke-width:0.5;" x="239.286267366" xlink:href="#ma9c723aee1" y="163.662948803"/>
     <use style="fill:#0000ff;stroke:#0000ff;stroke-width:0.5;" x="242.849022317" xlink:href="#ma9c723aee1" y="162.220694852"/>
     <use style="fill:#0000ff;stroke:#0000ff;stroke-width:0.5;" x="246.411777269" xlink:href="#ma9c723aee1" y="160.795137753"/>
     <use style="fill:#0000ff;stroke:#0000ff;stroke-width:0.5;" x="249.97453222" xlink:href="#ma9c723aee1" y="159.385493406"/>
     <use style="fill:#0000ff;stroke:#0000ff;stroke-width:0.5;" x="253.537287171" xlink:href="#ma9c723aee1" y="157.991034762"/>
     <use style="fill:#0000ff;stroke:#0000ff;stroke-width:0.5;" x="257.100042122" xlink:href="#ma9c723aee1" y="156.611087447"/>
     <use style="fill:#0000ff;stroke:#0000ff;stroke-width:0.5;" x="260.662797074" xlink:href="#ma9c723aee1" y="155.245025559"/>
     <use style="fill:#0000ff;stroke:#0000ff;stroke-width:0.5;" x="264.225552025" xlink:href="#ma9c723aee1" y="153.892267787"/>
     <use style="fill:#0000ff;stroke:#0000ff;stroke-width:0.5;" x="267.788306976" xlink:href="#ma9c723aee1" y="152.552273824"/>
     <use style="fill:#0000ff;stroke:#0000ff;stroke-width:0.5;" x="271.351061927" xlink:href="#ma9c723aee1" y="151.224541018"/>
     <use style="fill:#0000ff;stroke:#0000ff;stroke-width:0.5;" x="274.913816879" xlink:href="#ma9c723aee1" y="149.908601301"/>
     <use style="fill:#0000ff;stroke:#0000ff;stroke-width:0.5;" x="278.47657183" xlink:href="#ma9c723aee1" y="148.604018358"/>
     <use style="fill:#0000ff;stroke:#0000ff;stroke-width:0.5;" x="282.039326781" xlink:href="#ma9c723aee1" y="147.310385035"/>
     <use style="fill:#0000ff;stroke:#0000ff;stroke-width:0.5;" x="285.602081732" xlink:href="#ma9c723aee1" y="146.027320972"/>
     <use style="fill:#0000ff;stroke:#0000ff;stroke-width:0.5;" x="289.164836683" xlink:href="#ma9c723aee1" y="144.754470408"/>
     <use style="fill:#0000ff;stroke:#0000ff;stroke-width:0.5;" x="292.727591635" xlink:href="#ma9c723aee1" y="143.491500208"/>
     <use style="fill:#0000ff;stroke:#0000ff;stroke-width:0.5;" x="296.290346586" xlink:href="#ma9c723aee1" y="142.238098029"/>
     <use style="fill:#0000ff;stroke:#0000ff;stroke-width:0.5;" x="299.853101537" xlink:href="#ma9c723aee1" y="140.99397067"/>
     <use style="fill:#0000ff;stroke:#0000ff;stroke-width:0.5;" x="303.415856488" xlink:href="#ma9c723aee1" y="139.758842542"/>
     <use style="fill:#0000ff;stroke:#0000ff;stroke-width:0.5;" x="306.97861144" xlink:href="#ma9c723aee1" y="138.532454291"/>
     <use style="fill:#0000ff;stroke:#0000ff;stroke-width:0.5;" x="310.541366391" xlink:href="#ma9c723aee1" y="137.314561521"/>
     <use style="fill:#0000ff;stroke:#0000ff;stroke-width:0.5;" x="314.104121342" xlink:href="#ma9c723aee1" y="136.104933642"/>
     <use style="fill:#0000ff;stroke:#0000ff;stroke-width:0.5;" x="317.666876293" xlink:href="#ma9c723aee1" y="134.90335281"/>
     <use style="fill:#0000ff;stroke:#0000ff;stroke-width:0.5;" x="321.229631244" xlink:href="#ma9c723aee1" y="133.709612958"/>
     <use style="fill:#0000ff;stroke:#0000ff;stroke-width:0.5;" x="324.792386196" xlink:href="#ma9c723aee1" y="132.523518917"/>
     <use style="fill:#0000ff;stroke:#0000ff;stroke-width:0.5;" x="328.355141147" xlink:href="#ma9c723aee1" y="131.344885597"/>
     <use style="fill:#0000ff;stroke:#0000ff;stroke-width:0.5;" x="331.917896098" xlink:href="#ma9c723aee1" y="130.173537259"/>
     <use style="fill:#0000ff;stroke:#0000ff;stroke-width:0.5;" x="335.480651049" xlink:href="#ma9c723aee1" y="129.009306827"/>
     <use style="fill:#0000ff;stroke:#0000ff;stroke-width:0.5;" x="339.043406001" xlink:href="#ma9c723aee1" y="127.852035273"/>
     <use style="fill:#0000ff;stroke:#0000ff;stroke-width:0.5;" x="342.606160952" xlink:href="#ma9c723aee1" y="126.701571045"/>
     <use style="fill:#0000ff;stroke:#0000ff;stroke-width:0.5;" x="346.168915903" xlink:href="#ma9c723aee1" y="125.557769548"/>
     <use style="fill:#0000ff;stroke:#0000ff;stroke-width:0.5;" x="349.731670854" xlink:href="#ma9c723aee1" y="124.420492662"/>
     <use style="fill:#0000ff;stroke:#0000ff;stroke-width:0.5;" x="353.294425805" xlink:href="#ma9c723aee1" y="123.289608307"/>
     <use style="fill:#0000ff;stroke:#0000ff;stroke-width:0.5;" x="356.857180757" xlink:href="#ma9c723aee1" y="122.164990034"/>
     <use style="fill:#0000ff;stroke:#0000ff;stroke-width:0.5;" x="360.419935708" xlink:href="#ma9c723aee1" y="121.046516659"/>
     <use style="fill:#0000ff;stroke:#0000ff;stroke-width:0.5;" x="363.982690659" xlink:href="#ma9c723aee1" y="119.934071918"/>
     <use style="fill:#0000ff;stroke:#0000ff;stroke-width:0.5;" x="367.54544561" xlink:href="#ma9c723aee1" y="118.827544155"/>
     <use style="fill:#0000ff;stroke:#0000ff;stroke-width:0.5;" x="371.108200562" xlink:href="#ma9c723aee1" y="117.726826033"/>
     <use style="fill:#0000ff;stroke:#0000ff;stroke-width:0.5;" x="374.670955513" xlink:href="#ma9c723aee1" y="116.631814264"/>
     <use style="fill:#0000ff;stroke:#0000ff;stroke-width:0.5;" x="378.233710464" xlink:href="#ma9c723aee1" y="115.542409367"/>
     <use style="fill:#0000ff;stroke:#0000ff;stroke-width:0.5;" x="381.796465415" xlink:href="#ma9c723aee1" y="114.458515441"/>
     <use style="fill:#0000ff;stroke:#0000ff;stroke-width:0.5;" x="385.359220367" xlink:href="#ma9c723aee1" y="113.380039949"/>
     <use style="fill:#0000ff;stroke:#0000ff;stroke-width:0.5;" x="388.921975318" xlink:href="#ma9c723aee1" y="112.306893532"/>
     <use style="fill:#0000ff;stroke:#0000ff;stroke-width:0.5;" x="392.484730269" xlink:href="#ma9c723aee1" y="111.238989826"/>
     <use style="fill:#0000ff;stroke:#0000ff;stroke-width:0.5;" x="396.04748522" xlink:href="#ma9c723aee1" y="110.176245295"/>
     <use style="fill:#0000ff;stroke:#0000ff;stroke-width:0.5;" x="399.610240171" xlink:href="#ma9c723aee1" y="109.118579078"/>
     <use style="fill:#0000ff;stroke:#0000ff;stroke-width:0.5;" x="403.172995123" xlink:href="#ma9c723aee1" y="108.065912845"/>
     <use style="fill:#0000ff;stroke:#0000ff;stroke-width:0.5;" x="406.735750074" xlink:href="#ma9c723aee1" y="107.018170668"/>
     <use style="fill:#0000ff;stroke:#0000ff;stroke-width:0.5;" x="410.298505025" xlink:href="#ma9c723aee1" y="105.975278892"/>
     <use style="fill:#0000ff;stroke:#0000ff;stroke-width:0.5;" x="413.861259976" xlink:href="#ma9c723aee1" y="104.937166026"/>
     <use style="fill:#0000ff;stroke:#0000ff;stroke-width:0.5;" x="417.424014928" xlink:href="#ma9c723aee1" y="103.903762632"/>
     <use style="fill:#0000ff;stroke:#0000ff;stroke-width:0.5;" x="420.986769879" xlink:href="#ma9c723aee1" y="102.875001229"/>
     <use style="fill:#0000ff;stroke:#0000ff;stroke-width:0.5;" x="424.54952483" xlink:href="#ma9c723aee1" y="101.850816196"/>
     <use style="fill:#0000ff;stroke:#0000ff;stroke-width:0.5;" x="428.112279781" xlink:href="#ma9c723aee1" y="100.831143691"/>
     <use style="fill:#0000ff;stroke:#0000ff;stroke-width:0.5;" x="431.675034732" xlink:href="#ma9c723aee1" y="99.8159215641"/>
     <use style="fill:#0000ff;stroke:#0000ff;stroke-width:0.5;" x="435.237789684" xlink:href="#ma9c723aee1" y="98.8050892868"/>
     <use style="fill:#0000ff;stroke:#0000ff;stroke-width:0.5;" x="438.800544635" xlink:href="#ma9c723aee1" y="97.7985878784"/>
     <use style="fill:#0000ff;stroke:#0000ff;stroke-width:0.5;" x="442.363299586" xlink:href="#ma9c723aee1" y="96.7963598406"/>
     <use style="fill:#0000ff;stroke:#0000ff;stroke-width:0.5;" x="445.926054537" xlink:href="#ma9c723aee1" y="95.7983490949"/>
     <use style="fill:#0000ff;stroke:#0000ff;stroke-width:0.5;" x="449.488809489" xlink:href="#ma9c723aee1" y="94.8045009242"/>
     <use style="fill:#0000ff;stroke:#0000ff;stroke-width:0.5;" x="453.05156444" xlink:href="#ma9c723aee1" y="93.8147619181"/>
     <use style="fill:#0000ff;stroke:#0000ff;stroke-width:0.5;" x="456.614319391" xlink:href="#ma9c723aee1" y="92.8290799207"/>
     <use style="fill:#0000ff;stroke:#0000ff;stroke-width:0.5;" x="460.177074342" xlink:href="#ma9c723aee1" y="91.8474039823"/>
     <use style="fill:#0000ff;stroke:#0000ff;stroke-width:0.5;" x="463.739829294" xlink:href="#ma9c723aee1" y="90.8696843129"/>
     <use style="fill:#0000ff;stroke:#0000ff;stroke-width:0.5;" x="467.302584245" xlink:href="#ma9c723aee1" y="89.8958722394"/>
     <use style="fill:#0000ff;stroke:#0000ff;stroke-width:0.5;" x="470.865339196" xlink:href="#ma9c723aee1" y="88.9259201673"/>
     <use style="fill:#0000ff;stroke:#0000ff;stroke-width:0.5;" x="474.428094147" xlink:href="#ma9c723aee1" y="87.9597815374"/>
     <use style="fill:#0000ff;stroke:#0000ff;stroke-width:0.5;" x="477.990849098" xlink:href="#ma9c723aee1" y="86.9974107908"/>
     <use style="fill:#0000ff;stroke:#0000ff;stroke-width:0.5;" x="481.55360405" xlink:href="#ma9c723aee1" y="86.0387633352"/>
     <use style="fill:#0000ff;stroke:#0000ff;stroke-width:0.5;" x="485.116359001" xlink:href="#ma9c723aee1" y="85.0837955111"/>
     <use style="fill:#0000ff;stroke:#0000ff;stroke-width:0.5;" x="488.679113952" xlink:href="#ma9c723aee1" y="84.1324645614"/>
     <use style="fill:#0000ff;stroke:#0000ff;stroke-width:0.5;" x="492.241868903" xlink:href="#ma9c723aee1" y="83.1847286011"/>
     <use style="fill:#0000ff;stroke:#0000ff;stroke-width:0.5;" x="495.804623855" xlink:href="#ma9c723aee1" y="82.2405465898"/>
     <use style="fill:#0000ff;stroke:#0000ff;stroke-width:0.5;" x="499.367378806" xlink:href="#ma9c723aee1" y="81.2998783042"/>
     <use style="fill:#0000ff;stroke:#0000ff;stroke-width:0.5;" x="502.930133757" xlink:href="#ma9c723aee1" y="80.3626843108"/>
     <use style="fill:#0000ff;stroke:#0000ff;stroke-width:0.5;" x="506.492888708" xlink:href="#ma9c723aee1" y="79.428925953"/>
     <use style="fill:#0000ff;stroke:#0000ff;stroke-width:0.5;" x="510.055643659" xlink:href="#ma9c723aee1" y="78.4985653045"/>
     <use style="fill:#0000ff;stroke:#0000ff;stroke-width:0.5;" x="513.618398611" xlink:href="#ma9c723aee1" y="77.5715651705"/>
     <use style="fill:#0000ff;stroke:#0000ff;stroke-width:0.5;" x="517.181153562" xlink:href="#ma9c723aee1" y="76.6478890549"/>
     <use style="fill:#0000ff;stroke:#0000ff;stroke-width:0.5;" x="520.743908513" xlink:href="#ma9c723aee1" y="75.7275011423"/>
     <use style="fill:#0000ff;stroke:#0000ff;stroke-width:0.5;" x="524.306663464" xlink:href="#ma9c723aee1" y="74.8103662788"/>
     <use style="fill:#0000ff;stroke:#0000ff;stroke-width:0.5;" x="527.869418416" xlink:href="#ma9c723aee1" y="73.8964499529"/>
     <use style="fill:#0000ff;stroke:#0000ff;stroke-width:0.5;" x="531.432173367" xlink:href="#ma9c723aee1" y="72.9857182786"/>
     <use style="fill:#0000ff;stroke:#0000ff;stroke-width:0.5;" x="534.994928318" xlink:href="#ma9c723aee1" y="72.0781379724"/>
     <use style="fill:#0000ff;stroke:#0000ff;stroke-width:0.5;" x="538.557683269" xlink:href="#ma9c723aee1" y="71.173676362"/>
     <use style="fill:#0000ff;stroke:#0000ff;stroke-width:0.5;" x="542.120438221" xlink:href="#ma9c723aee1" y="70.2723013216"/>
     <use style="fill:#0000ff;stroke:#0000ff;stroke-width:0.5;" x="545.683193172" xlink:href="#ma9c723aee1" y="69.3739813055"/>
     <use style="fill:#0000ff;stroke:#0000ff;stroke-width:0.5;" x="549.245948123" xlink:href="#ma9c723aee1" y="68.4786853091"/>
     <use style="fill:#0000ff;stroke:#0000ff;stroke-width:0.5;" x="552.808703074" xlink:href="#ma9c723aee1" y="67.5863828598"/>
     <use style="fill:#0000ff;stroke:#0000ff;stroke-width:0.5;" x="556.371458025" xlink:href="#ma9c723aee1" y="66.6970440036"/>
     <use style="fill:#0000ff;stroke:#0000ff;stroke-width:0.5;" x="559.934212977" xlink:href="#ma9c723aee1" y="65.8106392891"/>
     <use style="fill:#0000ff;stroke:#0000ff;stroke-width:0.5;" x="563.496967928" xlink:href="#ma9c723aee1" y="64.9271397691"/>
     <use style="fill:#0000ff;stroke:#0000ff;stroke-width:0.5;" x="567.059722879" xlink:href="#ma9c723aee1" y="64.0465169608"/>
     <use style="fill:#0000ff;stroke:#0000ff;stroke-width:0.5;" x="570.62247783" xlink:href="#ma9c723aee1" y="63.1687428614"/>
     <use style="fill:#0000ff;stroke:#0000ff;stroke-width:0.5;" x="574.185232782" xlink:href="#ma9c723aee1" y="62.2937899233"/>
     <use style="fill:#0000ff;stroke:#0000ff;stroke-width:0.5;" x="577.747987733" xlink:href="#ma9c723aee1" y="61.4216310463"/>
     <use style="fill:#0000ff;stroke:#0000ff;stroke-width:0.5;" x="581.310742684" xlink:href="#ma9c723aee1" y="60.5522395664"/>
     <use style="fill:#0000ff;stroke:#0000ff;stroke-width:0.5;" x="584.873497635" xlink:href="#ma9c723aee1" y="59.6855892461"/>
     <use style="fill:#0000ff;stroke:#0000ff;stroke-width:0.5;" x="588.436252586" xlink:href="#ma9c723aee1" y="58.8216542643"/>
     <use style="fill:#0000ff;stroke:#0000ff;stroke-width:0.5;" x="591.999007538" xlink:href="#ma9c723aee1" y="57.9604092064"/>
     <use style="fill:#0000ff;stroke:#0000ff;stroke-width:0.5;" x="595.561762489" xlink:href="#ma9c723aee1" y="57.1018290578"/>
     <use style="fill:#0000ff;stroke:#0000ff;stroke-width:0.5;" x="599.12451744" xlink:href="#ma9c723aee1" y="56.2458891893"/>
     <use style="fill:#0000ff;stroke:#0000ff;stroke-width:0.5;" x="602.687272391" xlink:href="#ma9c723aee1" y="55.3925653542"/>
     <use style="fill:#0000ff;stroke:#0000ff;stroke-width:0.5;" x="606.250027343" xlink:href="#ma9c723aee1" y="54.5418336769"/>
     <use style="fill:#0000ff;stroke:#0000ff;stroke-width:0.5;" x="609.812782294" xlink:href="#ma9c723aee1" y="53.6936706453"/>
     <use style="fill:#0000ff;stroke:#0000ff;stroke-width:0.5;" x="613.375537245" xlink:href="#ma9c723aee1" y="52.8480531032"/>
     <use style="fill:#0000ff;stroke:#0000ff;stroke-width:0.5;" x="616.938292196" xlink:href="#ma9c723aee1" y="52.0049582424"/>
     <use style="fill:#0000ff;stroke:#0000ff;stroke-width:0.5;" x="620.501047148" xlink:href="#ma9c723aee1" y="51.1643635953"/>
     <use style="fill:#0000ff;stroke:#0000ff;stroke-width:0.5;" x="624.063802099" xlink:href="#ma9c723aee1" y="50.3262470276"/>
     <use style="fill:#0000ff;stroke:#0000ff;stroke-width:0.5;" x="627.62655705" xlink:href="#ma9c723aee1" y="49.4905867315"/>
     <use style="fill:#0000ff;stroke:#0000ff;stroke-width:0.5;" x="631.189312001" xlink:href="#ma9c723aee1" y="48.6573612186"/>
     <use style="fill:#0000ff;stroke:#0000ff;stroke-width:0.5;" x="634.752066952" xlink:href="#ma9c723aee1" y="47.8265493089"/>
     <use style="fill:#0000ff;stroke:#0000ff;stroke-width:0.5;" x="638.314821904" xlink:href="#ma9c723aee1" y="46.9981301407"/>
     <use style="fill:#0000ff;stroke:#0000ff;stroke-width:0.5;" x="641.877576855" xlink:href="#ma9c723aee1" y="46.1720831418"/>
     <use style="fill:#0000ff;stroke:#0000ff;stroke-width:0.5;" x="645.440331806" xlink:href="#ma9c723aee1" y="45.3483880376"/>
     <use style="fill:#0000ff;stroke:#0000ff;stroke-width:0.5;" x="649.003086757" xlink:href="#ma9c723aee1" y="44.5270248414"/>
     <use style="fill:#0000ff;stroke:#0000ff;stroke-width:0.5;" x="652.565841709" xlink:href="#ma9c723aee1" y="43.7079738488"/>
     <use style="fill:#0000ff;stroke:#0000ff;stroke-width:0.5;" x="656.12859666" xlink:href="#ma9c723aee1" y="42.8912156323"/>
     <use style="fill:#0000ff;stroke:#0000ff;stroke-width:0.5;" x="659.691351611" xlink:href="#ma9c723aee1" y="42.0767310357"/>
     <use style="fill:#0000ff;stroke:#0000ff;stroke-width:0.5;" x="663.254106562" xlink:href="#ma9c723aee1" y="41.2645011686"/>
     <use style="fill:#0000ff;stroke:#0000ff;stroke-width:0.5;" x="666.816861513" xlink:href="#ma9c723aee1" y="40.4545074015"/>
     <use style="fill:#0000ff;stroke:#0000ff;stroke-width:0.5;" x="670.379616465" xlink:href="#ma9c723aee1" y="39.6467313606"/>
     <use style="fill:#0000ff;stroke:#0000ff;stroke-width:0.5;" x="673.942371416" xlink:href="#ma9c723aee1" y="38.8411549227"/>
     <use style="fill:#0000ff;stroke:#0000ff;stroke-width:0.5;" x="677.505126367" xlink:href="#ma9c723aee1" y="38.0377602109"/>
     <use style="fill:#0000ff;stroke:#0000ff;stroke-width:0.5;" x="681.067881318" xlink:href="#ma9c723aee1" y="37.2365295891"/>
     <use style="fill:#0000ff;stroke:#0000ff;stroke-width:0.5;" x="684.63063627" xlink:href="#ma9c723aee1" y="36.4374456584"/>
     <use style="fill:#0000ff;stroke:#0000ff;stroke-width:0.5;" x="688.193391221" xlink:href="#ma9c723aee1" y="35.6404912519"/>
     <use style="fill:#0000ff;stroke:#0000ff;stroke-width:0.5;" x="691.756146172" xlink:href="#ma9c723aee1" y="34.8456494307"/>
     <use style="fill:#0000ff;stroke:#0000ff;stroke-width:0.5;" x="695.318901123" xlink:href="#ma9c723aee1" y="34.0529034794"/>
     <use style="fill:#0000ff;stroke:#0000ff;stroke-width:0.5;" x="698.881656074" xlink:href="#ma9c723aee1" y="33.2622369025"/>
     <use style="fill:#0000ff;stroke:#0000ff;stroke-width:0.5;" x="702.444411026" xlink:href="#ma9c723aee1" y="32.4736334196"/>
     <use style="fill:#0000ff;stroke:#0000ff;stroke-width:0.5;" x="706.007165977" xlink:href="#ma9c723aee1" y="31.6870769621"/>
     <use style="fill:#0000ff;stroke:#0000ff;stroke-width:0.5;" x="709.569920928" xlink:href="#ma9c723aee1" y="30.9025516691"/>
     <use style="fill:#0000ff;stroke:#0000ff;stroke-width:0.5;" x="713.132675879" xlink:href="#ma9c723aee1" y="30.1200418837"/>
     <use style="fill:#0000ff;stroke:#0000ff;stroke-width:0.5;" x="716.695430831" xlink:href="#ma9c723aee1" y="29.3395321491"/>
     <use style="fill:#0000ff;stroke:#0000ff;stroke-width:0.5;" x="720.258185782" xlink:href="#ma9c723aee1" y="28.5610072054"/>
     <use style="fill:#0000ff;stroke:#0000ff;stroke-width:0.5;" x="723.820940733" xlink:href="#ma9c723aee1" y="27.7844519858"/>
     <use style="fill:#0000ff;stroke:#0000ff;stroke-width:0.5;" x="727.383695684" xlink:href="#ma9c723aee1" y="27.0098516135"/>
     <use style="fill:#0000ff;stroke:#0000ff;stroke-width:0.5;" x="730.946450636" xlink:href="#ma9c723aee1" y="26.2371913979"/>
     <use style="fill:#0000ff;stroke:#0000ff;stroke-width:0.5;" x="734.509205587" xlink:href="#ma9c723aee1" y="25.4664568316"/>
     <use style="fill:#0000ff;stroke:#0000ff;stroke-width:0.5;" x="738.071960538" xlink:href="#ma9c723aee1" y="24.6976335874"/>
     <use style="fill:#0000ff;stroke:#0000ff;stroke-width:0.5;" x="741.634715489" xlink:href="#ma9c723aee1" y="23.9307075149"/>
     <use style="fill:#0000ff;stroke:#0000ff;stroke-width:0.5;" x="745.19747044" xlink:href="#ma9c723aee1" y="23.1656646374"/>
     <use style="fill:#0000ff;stroke:#0000ff;stroke-width:0.5;" x="748.760225392" xlink:href="#ma9c723aee1" y="22.4024911492"/>
     <use style="fill:#0000ff;stroke:#0000ff;stroke-width:0.5;" x="752.322980343" xlink:href="#ma9c723aee1" y="21.6411734125"/>
     <use style="fill:#0000ff;stroke:#0000ff;stroke-width:0.5;" x="755.885735294" xlink:href="#ma9c723aee1" y="20.8816979545"/>
    </g>
   </g>
   <g id="line2d_2">
    <path clip-path="url(#pe3388e2cf2)" d="M 46.8975 271.176094 
L 54.02301 268.057726 
L 61.14852 264.659978 
L 68.27403 260.987904 
L 75.39954 257.059539 
L 82.52505 252.904873 
L 93.213314 246.332275 
L 103.901579 239.467951 
L 118.152599 230.042356 
L 146.654639 211.068386 
L 157.342903 204.289125 
L 164.468413 199.967738 
L 171.593923 195.823061 
L 178.719433 191.856252 
L 189.407698 186.22155 
L 200.095963 180.925362 
L 210.784228 175.9188 
L 221.472493 171.156713 
L 232.160757 166.600997 
L 246.411777 160.795138 
L 260.662797 155.245026 
L 274.913817 149.908601 
L 292.727592 143.4915 
L 310.541366 137.314562 
L 331.917896 130.173537 
L 353.294426 123.289608 
L 374.670956 116.631814 
L 399.61024 109.118579 
L 424.549525 101.850816 
L 449.488809 94.804501 
L 477.990849 86.997411 
L 506.492889 79.428926 
L 534.994928 72.078138 
L 567.059723 64.046517 
L 599.124517 56.245889 
L 634.752067 47.826549 
L 670.379616 39.646731 
L 706.007166 31.687077 
L 724.6975 27.593874 
L 724.6975 27.593874 
" style="fill:none;stroke:#008000;stroke-linecap:square;"/>
   </g>
   <g id="patch_3">
    <path d="M 46.8975 269.6666 
L 716.4975 269.6666 
" style="fill:none;stroke:#000000;stroke-linecap:square;stroke-linejoin:miter;"/>
   </g>
   <g id="patch_4">
    <path d="M 46.8975 269.6666 
L 46.8975 39.2666 
" style="fill:none;stroke:#000000;stroke-linecap:square;stroke-linejoin:miter;"/>
   </g>
   <g id="patch_5">
    <path d="M 46.8975 39.2666 
L 716.4975 39.2666 
" style="fill:none;stroke:#000000;stroke-linecap:square;stroke-linejoin:miter;"/>
   </g>
   <g id="patch_6">
    <path d="M 716.4975 269.6666 
L 716.4975 39.2666 
" style="fill:none;stroke:#000000;stroke-linecap:square;stroke-linejoin:miter;"/>
   </g>
   <g id="matplotlib.axis_1">
    <g id="xtick_1">
     <g id="line2d_3">
      <path clip-path="url(#pe3388e2cf2)" d="M 46.8975 269.6666 
L 46.8975 39.2666 
" style="fill:none;stroke:#000000;stroke-dasharray:1.000000,3.000000;stroke-dashoffset:0.0;stroke-width:0.5;"/>
     </g>
     <g id="line2d_4">
      <defs>
       <path d="M 0 0 
L 0 -4 
" id="med24535d03" style="stroke:#000000;stroke-width:0.5;"/>
      </defs>
      <g>
       <use style="stroke:#000000;stroke-width:0.5;" x="46.8975" xlink:href="#med24535d03" y="269.6666"/>
      </g>
     </g>
     <g id="line2d_5">
      <defs>
       <path d="M 0 0 
L 0 4 
" id="m94010d5ff1" style="stroke:#000000;stroke-width:0.5;"/>
      </defs>
      <g>
       <use style="stroke:#000000;stroke-width:0.5;" x="46.8975" xlink:href="#m94010d5ff1" y="39.2666"/>
      </g>
     </g>
     <g id="text_1">
      <!-- 0 -->
      <defs>
       <path d="M 31.78125 66.40625 
Q 24.171875 66.40625 20.328125 58.90625 
Q 16.5 51.421875 16.5 36.375 
Q 16.5 21.390625 20.328125 13.890625 
Q 24.171875 6.390625 31.78125 6.390625 
Q 39.453125 6.390625 43.28125 13.890625 
Q 47.125 21.390625 47.125 36.375 
Q 47.125 51.421875 43.28125 58.90625 
Q 39.453125 66.40625 31.78125 66.40625 
M 31.78125 74.21875 
Q 44.046875 74.21875 50.515625 64.515625 
Q 56.984375 54.828125 56.984375 36.375 
Q 56.984375 17.96875 50.515625 8.265625 
Q 44.046875 -1.421875 31.78125 -1.421875 
Q 19.53125 -1.421875 13.0625 8.265625 
Q 6.59375 17.96875 6.59375 36.375 
Q 6.59375 54.828125 13.0625 64.515625 
Q 19.53125 74.21875 31.78125 74.21875 
" id="BitstreamVeraSans-Roman-30"/>
      </defs>
      <g transform="translate(43.08 282.784725)scale(0.12 -0.12)">
       <use xlink:href="#BitstreamVeraSans-Roman-30"/>
      </g>
     </g>
    </g>
    <g id="xtick_2">
     <g id="line2d_6">
      <path clip-path="url(#pe3388e2cf2)" d="M 125.673971 269.6666 
L 125.673971 39.2666 
" style="fill:none;stroke:#000000;stroke-dasharray:1.000000,3.000000;stroke-dashoffset:0.0;stroke-width:0.5;"/>
     </g>
     <g id="line2d_7">
      <g>
       <use style="stroke:#000000;stroke-width:0.5;" x="125.673970588" xlink:href="#med24535d03" y="269.6666"/>
      </g>
     </g>
     <g id="line2d_8">
      <g>
       <use style="stroke:#000000;stroke-width:0.5;" x="125.673970588" xlink:href="#m94010d5ff1" y="39.2666"/>
      </g>
     </g>
     <g id="text_2">
      <!-- 2 -->
      <defs>
       <path d="M 19.1875 8.296875 
L 53.609375 8.296875 
L 53.609375 0 
L 7.328125 0 
L 7.328125 8.296875 
Q 12.9375 14.109375 22.625 23.890625 
Q 32.328125 33.6875 34.8125 36.53125 
Q 39.546875 41.84375 41.421875 45.53125 
Q 43.3125 49.21875 43.3125 52.78125 
Q 43.3125 58.59375 39.234375 62.25 
Q 35.15625 65.921875 28.609375 65.921875 
Q 23.96875 65.921875 18.8125 64.3125 
Q 13.671875 62.703125 7.8125 59.421875 
L 7.8125 69.390625 
Q 13.765625 71.78125 18.9375 73 
Q 24.125 74.21875 28.421875 74.21875 
Q 39.75 74.21875 46.484375 68.546875 
Q 53.21875 62.890625 53.21875 53.421875 
Q 53.21875 48.921875 51.53125 44.890625 
Q 49.859375 40.875 45.40625 35.40625 
Q 44.1875 33.984375 37.640625 27.21875 
Q 31.109375 20.453125 19.1875 8.296875 
" id="BitstreamVeraSans-Roman-32"/>
      </defs>
      <g transform="translate(121.856470588 282.784725)scale(0.12 -0.12)">
       <use xlink:href="#BitstreamVeraSans-Roman-32"/>
      </g>
     </g>
    </g>
    <g id="xtick_3">
     <g id="line2d_9">
      <path clip-path="url(#pe3388e2cf2)" d="M 204.450441 269.6666 
L 204.450441 39.2666 
" style="fill:none;stroke:#000000;stroke-dasharray:1.000000,3.000000;stroke-dashoffset:0.0;stroke-width:0.5;"/>
     </g>
     <g id="line2d_10">
      <g>
       <use style="stroke:#000000;stroke-width:0.5;" x="204.450441176" xlink:href="#med24535d03" y="269.6666"/>
      </g>
     </g>
     <g id="line2d_11">
      <g>
       <use style="stroke:#000000;stroke-width:0.5;" x="204.450441176" xlink:href="#m94010d5ff1" y="39.2666"/>
      </g>
     </g>
     <g id="text_3">
      <!-- 4 -->
      <defs>
       <path d="M 37.796875 64.3125 
L 12.890625 25.390625 
L 37.796875 25.390625 
z
M 35.203125 72.90625 
L 47.609375 72.90625 
L 47.609375 25.390625 
L 58.015625 25.390625 
L 58.015625 17.1875 
L 47.609375 17.1875 
L 47.609375 0 
L 37.796875 0 
L 37.796875 17.1875 
L 4.890625 17.1875 
L 4.890625 26.703125 
z
" id="BitstreamVeraSans-Roman-34"/>
      </defs>
      <g transform="translate(200.632941176 282.784725)scale(0.12 -0.12)">
       <use xlink:href="#BitstreamVeraSans-Roman-34"/>
      </g>
     </g>
    </g>
    <g id="xtick_4">
     <g id="line2d_12">
      <path clip-path="url(#pe3388e2cf2)" d="M 283.226912 269.6666 
L 283.226912 39.2666 
" style="fill:none;stroke:#000000;stroke-dasharray:1.000000,3.000000;stroke-dashoffset:0.0;stroke-width:0.5;"/>
     </g>
     <g id="line2d_13">
      <g>
       <use style="stroke:#000000;stroke-width:0.5;" x="283.226911765" xlink:href="#med24535d03" y="269.6666"/>
      </g>
     </g>
     <g id="line2d_14">
      <g>
       <use style="stroke:#000000;stroke-width:0.5;" x="283.226911765" xlink:href="#m94010d5ff1" y="39.2666"/>
      </g>
     </g>
     <g id="text_4">
      <!-- 6 -->
      <defs>
       <path d="M 33.015625 40.375 
Q 26.375 40.375 22.484375 35.828125 
Q 18.609375 31.296875 18.609375 23.390625 
Q 18.609375 15.53125 22.484375 10.953125 
Q 26.375 6.390625 33.015625 6.390625 
Q 39.65625 6.390625 43.53125 10.953125 
Q 47.40625 15.53125 47.40625 23.390625 
Q 47.40625 31.296875 43.53125 35.828125 
Q 39.65625 40.375 33.015625 40.375 
M 52.59375 71.296875 
L 52.59375 62.3125 
Q 48.875 64.0625 45.09375 64.984375 
Q 41.3125 65.921875 37.59375 65.921875 
Q 27.828125 65.921875 22.671875 59.328125 
Q 17.53125 52.734375 16.796875 39.40625 
Q 19.671875 43.65625 24.015625 45.921875 
Q 28.375 48.1875 33.59375 48.1875 
Q 44.578125 48.1875 50.953125 41.515625 
Q 57.328125 34.859375 57.328125 23.390625 
Q 57.328125 12.15625 50.6875 5.359375 
Q 44.046875 -1.421875 33.015625 -1.421875 
Q 20.359375 -1.421875 13.671875 8.265625 
Q 6.984375 17.96875 6.984375 36.375 
Q 6.984375 53.65625 15.1875 63.9375 
Q 23.390625 74.21875 37.203125 74.21875 
Q 40.921875 74.21875 44.703125 73.484375 
Q 48.484375 72.75 52.59375 71.296875 
" id="BitstreamVeraSans-Roman-36"/>
      </defs>
      <g transform="translate(279.409411765 282.784725)scale(0.12 -0.12)">
       <use xlink:href="#BitstreamVeraSans-Roman-36"/>
      </g>
     </g>
    </g>
    <g id="xtick_5">
     <g id="line2d_15">
      <path clip-path="url(#pe3388e2cf2)" d="M 362.003382 269.6666 
L 362.003382 39.2666 
" style="fill:none;stroke:#000000;stroke-dasharray:1.000000,3.000000;stroke-dashoffset:0.0;stroke-width:0.5;"/>
     </g>
     <g id="line2d_16">
      <g>
       <use style="stroke:#000000;stroke-width:0.5;" x="362.003382353" xlink:href="#med24535d03" y="269.6666"/>
      </g>
     </g>
     <g id="line2d_17">
      <g>
       <use style="stroke:#000000;stroke-width:0.5;" x="362.003382353" xlink:href="#m94010d5ff1" y="39.2666"/>
      </g>
     </g>
     <g id="text_5">
      <!-- 8 -->
      <defs>
       <path d="M 31.78125 34.625 
Q 24.75 34.625 20.71875 30.859375 
Q 16.703125 27.09375 16.703125 20.515625 
Q 16.703125 13.921875 20.71875 10.15625 
Q 24.75 6.390625 31.78125 6.390625 
Q 38.8125 6.390625 42.859375 10.171875 
Q 46.921875 13.96875 46.921875 20.515625 
Q 46.921875 27.09375 42.890625 30.859375 
Q 38.875 34.625 31.78125 34.625 
M 21.921875 38.8125 
Q 15.578125 40.375 12.03125 44.71875 
Q 8.5 49.078125 8.5 55.328125 
Q 8.5 64.0625 14.71875 69.140625 
Q 20.953125 74.21875 31.78125 74.21875 
Q 42.671875 74.21875 48.875 69.140625 
Q 55.078125 64.0625 55.078125 55.328125 
Q 55.078125 49.078125 51.53125 44.71875 
Q 48 40.375 41.703125 38.8125 
Q 48.828125 37.15625 52.796875 32.3125 
Q 56.78125 27.484375 56.78125 20.515625 
Q 56.78125 9.90625 50.3125 4.234375 
Q 43.84375 -1.421875 31.78125 -1.421875 
Q 19.734375 -1.421875 13.25 4.234375 
Q 6.78125 9.90625 6.78125 20.515625 
Q 6.78125 27.484375 10.78125 32.3125 
Q 14.796875 37.15625 21.921875 38.8125 
M 18.3125 54.390625 
Q 18.3125 48.734375 21.84375 45.5625 
Q 25.390625 42.390625 31.78125 42.390625 
Q 38.140625 42.390625 41.71875 45.5625 
Q 45.3125 48.734375 45.3125 54.390625 
Q 45.3125 60.0625 41.71875 63.234375 
Q 38.140625 66.40625 31.78125 66.40625 
Q 25.390625 66.40625 21.84375 63.234375 
Q 18.3125 60.0625 18.3125 54.390625 
" id="BitstreamVeraSans-Roman-38"/>
      </defs>
      <g transform="translate(358.185882353 282.784725)scale(0.12 -0.12)">
       <use xlink:href="#BitstreamVeraSans-Roman-38"/>
      </g>
     </g>
    </g>
    <g id="xtick_6">
     <g id="line2d_18">
      <path clip-path="url(#pe3388e2cf2)" d="M 440.779853 269.6666 
L 440.779853 39.2666 
" style="fill:none;stroke:#000000;stroke-dasharray:1.000000,3.000000;stroke-dashoffset:0.0;stroke-width:0.5;"/>
     </g>
     <g id="line2d_19">
      <g>
       <use style="stroke:#000000;stroke-width:0.5;" x="440.779852941" xlink:href="#med24535d03" y="269.6666"/>
      </g>
     </g>
     <g id="line2d_20">
      <g>
       <use style="stroke:#000000;stroke-width:0.5;" x="440.779852941" xlink:href="#m94010d5ff1" y="39.2666"/>
      </g>
     </g>
     <g id="text_6">
      <!-- 10 -->
      <defs>
       <path d="M 12.40625 8.296875 
L 28.515625 8.296875 
L 28.515625 63.921875 
L 10.984375 60.40625 
L 10.984375 69.390625 
L 28.421875 72.90625 
L 38.28125 72.90625 
L 38.28125 8.296875 
L 54.390625 8.296875 
L 54.390625 0 
L 12.40625 0 
z
" id="BitstreamVeraSans-Roman-31"/>
      </defs>
      <g transform="translate(433.144852941 282.784725)scale(0.12 -0.12)">
       <use xlink:href="#BitstreamVeraSans-Roman-31"/>
       <use x="63.623046875" xlink:href="#BitstreamVeraSans-Roman-30"/>
      </g>
     </g>
    </g>
    <g id="xtick_7">
     <g id="line2d_21">
      <path clip-path="url(#pe3388e2cf2)" d="M 519.556324 269.6666 
L 519.556324 39.2666 
" style="fill:none;stroke:#000000;stroke-dasharray:1.000000,3.000000;stroke-dashoffset:0.0;stroke-width:0.5;"/>
     </g>
     <g id="line2d_22">
      <g>
       <use style="stroke:#000000;stroke-width:0.5;" x="519.556323529" xlink:href="#med24535d03" y="269.6666"/>
      </g>
     </g>
     <g id="line2d_23">
      <g>
       <use style="stroke:#000000;stroke-width:0.5;" x="519.556323529" xlink:href="#m94010d5ff1" y="39.2666"/>
      </g>
     </g>
     <g id="text_7">
      <!-- 12 -->
      <g transform="translate(511.921323529 282.784725)scale(0.12 -0.12)">
       <use xlink:href="#BitstreamVeraSans-Roman-31"/>
       <use x="63.623046875" xlink:href="#BitstreamVeraSans-Roman-32"/>
      </g>
     </g>
    </g>
    <g id="xtick_8">
     <g id="line2d_24">
      <path clip-path="url(#pe3388e2cf2)" d="M 598.332794 269.6666 
L 598.332794 39.2666 
" style="fill:none;stroke:#000000;stroke-dasharray:1.000000,3.000000;stroke-dashoffset:0.0;stroke-width:0.5;"/>
     </g>
     <g id="line2d_25">
      <g>
       <use style="stroke:#000000;stroke-width:0.5;" x="598.332794118" xlink:href="#med24535d03" y="269.6666"/>
      </g>
     </g>
     <g id="line2d_26">
      <g>
       <use style="stroke:#000000;stroke-width:0.5;" x="598.332794118" xlink:href="#m94010d5ff1" y="39.2666"/>
      </g>
     </g>
     <g id="text_8">
      <!-- 14 -->
      <g transform="translate(590.697794118 282.784725)scale(0.12 -0.12)">
       <use xlink:href="#BitstreamVeraSans-Roman-31"/>
       <use x="63.623046875" xlink:href="#BitstreamVeraSans-Roman-34"/>
      </g>
     </g>
    </g>
    <g id="xtick_9">
     <g id="line2d_27">
      <path clip-path="url(#pe3388e2cf2)" d="M 677.109265 269.6666 
L 677.109265 39.2666 
" style="fill:none;stroke:#000000;stroke-dasharray:1.000000,3.000000;stroke-dashoffset:0.0;stroke-width:0.5;"/>
     </g>
     <g id="line2d_28">
      <g>
       <use style="stroke:#000000;stroke-width:0.5;" x="677.109264706" xlink:href="#med24535d03" y="269.6666"/>
      </g>
     </g>
     <g id="line2d_29">
      <g>
       <use style="stroke:#000000;stroke-width:0.5;" x="677.109264706" xlink:href="#m94010d5ff1" y="39.2666"/>
      </g>
     </g>
     <g id="text_9">
      <!-- 16 -->
      <g transform="translate(669.474264706 282.784725)scale(0.12 -0.12)">
       <use xlink:href="#BitstreamVeraSans-Roman-31"/>
       <use x="63.623046875" xlink:href="#BitstreamVeraSans-Roman-36"/>
      </g>
     </g>
    </g>
    <g id="text_10">
     <!-- Peak depletion brightness (saturation units) -->
     <defs>
      <path id="BitstreamVeraSans-Roman-20"/>
      <path d="M 45.40625 46.390625 
L 45.40625 75.984375 
L 54.390625 75.984375 
L 54.390625 0 
L 45.40625 0 
L 45.40625 8.203125 
Q 42.578125 3.328125 38.25 0.953125 
Q 33.9375 -1.421875 27.875 -1.421875 
Q 17.96875 -1.421875 11.734375 6.484375 
Q 5.515625 14.40625 5.515625 27.296875 
Q 5.515625 40.1875 11.734375 48.09375 
Q 17.96875 56 27.875 56 
Q 33.9375 56 38.25 53.625 
Q 42.578125 51.265625 45.40625 46.390625 
M 14.796875 27.296875 
Q 14.796875 17.390625 18.875 11.75 
Q 22.953125 6.109375 30.078125 6.109375 
Q 37.203125 6.109375 41.296875 11.75 
Q 45.40625 17.390625 45.40625 27.296875 
Q 45.40625 37.203125 41.296875 42.84375 
Q 37.203125 48.484375 30.078125 48.484375 
Q 22.953125 48.484375 18.875 42.84375 
Q 14.796875 37.203125 14.796875 27.296875 
" id="BitstreamVeraSans-Roman-64"/>
      <path d="M 9.078125 75.984375 
L 18.109375 75.984375 
L 18.109375 31.109375 
L 44.921875 54.6875 
L 56.390625 54.6875 
L 27.390625 29.109375 
L 57.625 0 
L 45.90625 0 
L 18.109375 26.703125 
L 18.109375 0 
L 9.078125 0 
z
" id="BitstreamVeraSans-Roman-6b"/>
      <path d="M 41.109375 46.296875 
Q 39.59375 47.171875 37.8125 47.578125 
Q 36.03125 48 33.890625 48 
Q 26.265625 48 22.1875 43.046875 
Q 18.109375 38.09375 18.109375 28.8125 
L 18.109375 0 
L 9.078125 0 
L 9.078125 54.6875 
L 18.109375 54.6875 
L 18.109375 46.1875 
Q 20.953125 51.171875 25.484375 53.578125 
Q 30.03125 56 36.53125 56 
Q 37.453125 56 38.578125 55.875 
Q 39.703125 55.765625 41.0625 55.515625 
z
" id="BitstreamVeraSans-Roman-72"/>
      <path d="M 30.609375 48.390625 
Q 23.390625 48.390625 19.1875 42.75 
Q 14.984375 37.109375 14.984375 27.296875 
Q 14.984375 17.484375 19.15625 11.84375 
Q 23.34375 6.203125 30.609375 6.203125 
Q 37.796875 6.203125 41.984375 11.859375 
Q 46.1875 17.53125 46.1875 27.296875 
Q 46.1875 37.015625 41.984375 42.703125 
Q 37.796875 48.390625 30.609375 48.390625 
M 30.609375 56 
Q 42.328125 56 49.015625 48.375 
Q 55.71875 40.765625 55.71875 27.296875 
Q 55.71875 13.875 49.015625 6.21875 
Q 42.328125 -1.421875 30.609375 -1.421875 
Q 18.84375 -1.421875 12.171875 6.21875 
Q 5.515625 13.875 5.515625 27.296875 
Q 5.515625 40.765625 12.171875 48.375 
Q 18.84375 56 30.609375 56 
" id="BitstreamVeraSans-Roman-6f"/>
      <path d="M 34.28125 27.484375 
Q 23.390625 27.484375 19.1875 25 
Q 14.984375 22.515625 14.984375 16.5 
Q 14.984375 11.71875 18.140625 8.90625 
Q 21.296875 6.109375 26.703125 6.109375 
Q 34.1875 6.109375 38.703125 11.40625 
Q 43.21875 16.703125 43.21875 25.484375 
L 43.21875 27.484375 
z
M 52.203125 31.203125 
L 52.203125 0 
L 43.21875 0 
L 43.21875 8.296875 
Q 40.140625 3.328125 35.546875 0.953125 
Q 30.953125 -1.421875 24.3125 -1.421875 
Q 15.921875 -1.421875 10.953125 3.296875 
Q 6 8.015625 6 15.921875 
Q 6 25.140625 12.171875 29.828125 
Q 18.359375 34.515625 30.609375 34.515625 
L 43.21875 34.515625 
L 43.21875 35.40625 
Q 43.21875 41.609375 39.140625 45 
Q 35.0625 48.390625 27.6875 48.390625 
Q 23 48.390625 18.546875 47.265625 
Q 14.109375 46.140625 10.015625 43.890625 
L 10.015625 52.203125 
Q 14.9375 54.109375 19.578125 55.046875 
Q 24.21875 56 28.609375 56 
Q 40.484375 56 46.34375 49.84375 
Q 52.203125 43.703125 52.203125 31.203125 
" id="BitstreamVeraSans-Roman-61"/>
      <path d="M 18.109375 8.203125 
L 18.109375 -20.796875 
L 9.078125 -20.796875 
L 9.078125 54.6875 
L 18.109375 54.6875 
L 18.109375 46.390625 
Q 20.953125 51.265625 25.265625 53.625 
Q 29.59375 56 35.59375 56 
Q 45.5625 56 51.78125 48.09375 
Q 58.015625 40.1875 58.015625 27.296875 
Q 58.015625 14.40625 51.78125 6.484375 
Q 45.5625 -1.421875 35.59375 -1.421875 
Q 29.59375 -1.421875 25.265625 0.953125 
Q 20.953125 3.328125 18.109375 8.203125 
M 48.6875 27.296875 
Q 48.6875 37.203125 44.609375 42.84375 
Q 40.53125 48.484375 33.40625 48.484375 
Q 26.265625 48.484375 22.1875 42.84375 
Q 18.109375 37.203125 18.109375 27.296875 
Q 18.109375 17.390625 22.1875 11.75 
Q 26.265625 6.109375 33.40625 6.109375 
Q 40.53125 6.109375 44.609375 11.75 
Q 48.6875 17.390625 48.6875 27.296875 
" id="BitstreamVeraSans-Roman-70"/>
      <path d="M 9.421875 54.6875 
L 18.40625 54.6875 
L 18.40625 0 
L 9.421875 0 
z
M 9.421875 75.984375 
L 18.40625 75.984375 
L 18.40625 64.59375 
L 9.421875 64.59375 
z
" id="BitstreamVeraSans-Roman-69"/>
      <path d="M 9.421875 75.984375 
L 18.40625 75.984375 
L 18.40625 0 
L 9.421875 0 
z
" id="BitstreamVeraSans-Roman-6c"/>
      <path d="M 8.5 21.578125 
L 8.5 54.6875 
L 17.484375 54.6875 
L 17.484375 21.921875 
Q 17.484375 14.15625 20.5 10.265625 
Q 23.53125 6.390625 29.59375 6.390625 
Q 36.859375 6.390625 41.078125 11.03125 
Q 45.3125 15.671875 45.3125 23.6875 
L 45.3125 54.6875 
L 54.296875 54.6875 
L 54.296875 0 
L 45.3125 0 
L 45.3125 8.40625 
Q 42.046875 3.421875 37.71875 1 
Q 33.40625 -1.421875 27.6875 -1.421875 
Q 18.265625 -1.421875 13.375 4.4375 
Q 8.5 10.296875 8.5 21.578125 
" id="BitstreamVeraSans-Roman-75"/>
      <path d="M 54.890625 33.015625 
L 54.890625 0 
L 45.90625 0 
L 45.90625 32.71875 
Q 45.90625 40.484375 42.875 44.328125 
Q 39.84375 48.1875 33.796875 48.1875 
Q 26.515625 48.1875 22.3125 43.546875 
Q 18.109375 38.921875 18.109375 30.90625 
L 18.109375 0 
L 9.078125 0 
L 9.078125 54.6875 
L 18.109375 54.6875 
L 18.109375 46.1875 
Q 21.34375 51.125 25.703125 53.5625 
Q 30.078125 56 35.796875 56 
Q 45.21875 56 50.046875 50.171875 
Q 54.890625 44.34375 54.890625 33.015625 
" id="BitstreamVeraSans-Roman-6e"/>
      <path d="M 56.203125 29.59375 
L 56.203125 25.203125 
L 14.890625 25.203125 
Q 15.484375 15.921875 20.484375 11.0625 
Q 25.484375 6.203125 34.421875 6.203125 
Q 39.59375 6.203125 44.453125 7.46875 
Q 49.3125 8.734375 54.109375 11.28125 
L 54.109375 2.78125 
Q 49.265625 0.734375 44.1875 -0.34375 
Q 39.109375 -1.421875 33.890625 -1.421875 
Q 20.796875 -1.421875 13.15625 6.1875 
Q 5.515625 13.8125 5.515625 26.8125 
Q 5.515625 40.234375 12.765625 48.109375 
Q 20.015625 56 32.328125 56 
Q 43.359375 56 49.78125 48.890625 
Q 56.203125 41.796875 56.203125 29.59375 
M 47.21875 32.234375 
Q 47.125 39.59375 43.09375 43.984375 
Q 39.0625 48.390625 32.421875 48.390625 
Q 24.90625 48.390625 20.390625 44.140625 
Q 15.875 39.890625 15.1875 32.171875 
z
" id="BitstreamVeraSans-Roman-65"/>
      <path d="M 19.671875 64.796875 
L 19.671875 37.40625 
L 32.078125 37.40625 
Q 38.96875 37.40625 42.71875 40.96875 
Q 46.484375 44.53125 46.484375 51.125 
Q 46.484375 57.671875 42.71875 61.234375 
Q 38.96875 64.796875 32.078125 64.796875 
z
M 9.8125 72.90625 
L 32.078125 72.90625 
Q 44.34375 72.90625 50.609375 67.359375 
Q 56.890625 61.8125 56.890625 51.125 
Q 56.890625 40.328125 50.609375 34.8125 
Q 44.34375 29.296875 32.078125 29.296875 
L 19.671875 29.296875 
L 19.671875 0 
L 9.8125 0 
z
" id="BitstreamVeraSans-Roman-50"/>
      <path d="M 44.28125 53.078125 
L 44.28125 44.578125 
Q 40.484375 46.53125 36.375 47.5 
Q 32.28125 48.484375 27.875 48.484375 
Q 21.1875 48.484375 17.84375 46.4375 
Q 14.5 44.390625 14.5 40.28125 
Q 14.5 37.15625 16.890625 35.375 
Q 19.28125 33.59375 26.515625 31.984375 
L 29.59375 31.296875 
Q 39.15625 29.25 43.1875 25.515625 
Q 47.21875 21.78125 47.21875 15.09375 
Q 47.21875 7.46875 41.1875 3.015625 
Q 35.15625 -1.421875 24.609375 -1.421875 
Q 20.21875 -1.421875 15.453125 -0.5625 
Q 10.6875 0.296875 5.421875 2 
L 5.421875 11.28125 
Q 10.40625 8.6875 15.234375 7.390625 
Q 20.0625 6.109375 24.8125 6.109375 
Q 31.15625 6.109375 34.5625 8.28125 
Q 37.984375 10.453125 37.984375 14.40625 
Q 37.984375 18.0625 35.515625 20.015625 
Q 33.0625 21.96875 24.703125 23.78125 
L 21.578125 24.515625 
Q 13.234375 26.265625 9.515625 29.90625 
Q 5.8125 33.546875 5.8125 39.890625 
Q 5.8125 47.609375 11.28125 51.796875 
Q 16.75 56 26.8125 56 
Q 31.78125 56 36.171875 55.265625 
Q 40.578125 54.546875 44.28125 53.078125 
" id="BitstreamVeraSans-Roman-73"/>
      <path d="M 54.890625 33.015625 
L 54.890625 0 
L 45.90625 0 
L 45.90625 32.71875 
Q 45.90625 40.484375 42.875 44.328125 
Q 39.84375 48.1875 33.796875 48.1875 
Q 26.515625 48.1875 22.3125 43.546875 
Q 18.109375 38.921875 18.109375 30.90625 
L 18.109375 0 
L 9.078125 0 
L 9.078125 75.984375 
L 18.109375 75.984375 
L 18.109375 46.1875 
Q 21.34375 51.125 25.703125 53.5625 
Q 30.078125 56 35.796875 56 
Q 45.21875 56 50.046875 50.171875 
Q 54.890625 44.34375 54.890625 33.015625 
" id="BitstreamVeraSans-Roman-68"/>
      <path d="M 18.3125 70.21875 
L 18.3125 54.6875 
L 36.8125 54.6875 
L 36.8125 47.703125 
L 18.3125 47.703125 
L 18.3125 18.015625 
Q 18.3125 11.328125 20.140625 9.421875 
Q 21.96875 7.515625 27.59375 7.515625 
L 36.8125 7.515625 
L 36.8125 0 
L 27.59375 0 
Q 17.1875 0 13.234375 3.875 
Q 9.28125 7.765625 9.28125 18.015625 
L 9.28125 47.703125 
L 2.6875 47.703125 
L 2.6875 54.6875 
L 9.28125 54.6875 
L 9.28125 70.21875 
z
" id="BitstreamVeraSans-Roman-74"/>
      <path d="M 31 75.875 
Q 24.46875 64.65625 21.28125 53.65625 
Q 18.109375 42.671875 18.109375 31.390625 
Q 18.109375 20.125 21.3125 9.0625 
Q 24.515625 -2 31 -13.1875 
L 23.1875 -13.1875 
Q 15.875 -1.703125 12.234375 9.375 
Q 8.59375 20.453125 8.59375 31.390625 
Q 8.59375 42.28125 12.203125 53.3125 
Q 15.828125 64.359375 23.1875 75.875 
z
" id="BitstreamVeraSans-Roman-28"/>
      <path d="M 48.6875 27.296875 
Q 48.6875 37.203125 44.609375 42.84375 
Q 40.53125 48.484375 33.40625 48.484375 
Q 26.265625 48.484375 22.1875 42.84375 
Q 18.109375 37.203125 18.109375 27.296875 
Q 18.109375 17.390625 22.1875 11.75 
Q 26.265625 6.109375 33.40625 6.109375 
Q 40.53125 6.109375 44.609375 11.75 
Q 48.6875 17.390625 48.6875 27.296875 
M 18.109375 46.390625 
Q 20.953125 51.265625 25.265625 53.625 
Q 29.59375 56 35.59375 56 
Q 45.5625 56 51.78125 48.09375 
Q 58.015625 40.1875 58.015625 27.296875 
Q 58.015625 14.40625 51.78125 6.484375 
Q 45.5625 -1.421875 35.59375 -1.421875 
Q 29.59375 -1.421875 25.265625 0.953125 
Q 20.953125 3.328125 18.109375 8.203125 
L 18.109375 0 
L 9.078125 0 
L 9.078125 75.984375 
L 18.109375 75.984375 
z
" id="BitstreamVeraSans-Roman-62"/>
      <path d="M 8.015625 75.875 
L 15.828125 75.875 
Q 23.140625 64.359375 26.78125 53.3125 
Q 30.421875 42.28125 30.421875 31.390625 
Q 30.421875 20.453125 26.78125 9.375 
Q 23.140625 -1.703125 15.828125 -13.1875 
L 8.015625 -13.1875 
Q 14.5 -2 17.703125 9.0625 
Q 20.90625 20.125 20.90625 31.390625 
Q 20.90625 42.671875 17.703125 53.65625 
Q 14.5 64.65625 8.015625 75.875 
" id="BitstreamVeraSans-Roman-29"/>
      <path d="M 45.40625 27.984375 
Q 45.40625 37.75 41.375 43.109375 
Q 37.359375 48.484375 30.078125 48.484375 
Q 22.859375 48.484375 18.828125 43.109375 
Q 14.796875 37.75 14.796875 27.984375 
Q 14.796875 18.265625 18.828125 12.890625 
Q 22.859375 7.515625 30.078125 7.515625 
Q 37.359375 7.515625 41.375 12.890625 
Q 45.40625 18.265625 45.40625 27.984375 
M 54.390625 6.78125 
Q 54.390625 -7.171875 48.1875 -13.984375 
Q 42 -20.796875 29.203125 -20.796875 
Q 24.46875 -20.796875 20.265625 -20.09375 
Q 16.0625 -19.390625 12.109375 -17.921875 
L 12.109375 -9.1875 
Q 16.0625 -11.328125 19.921875 -12.34375 
Q 23.78125 -13.375 27.78125 -13.375 
Q 36.625 -13.375 41.015625 -8.765625 
Q 45.40625 -4.15625 45.40625 5.171875 
L 45.40625 9.625 
Q 42.625 4.78125 38.28125 2.390625 
Q 33.9375 0 27.875 0 
Q 17.828125 0 11.671875 7.65625 
Q 5.515625 15.328125 5.515625 27.984375 
Q 5.515625 40.671875 11.671875 48.328125 
Q 17.828125 56 27.875 56 
Q 33.9375 56 38.28125 53.609375 
Q 42.625 51.21875 45.40625 46.390625 
L 45.40625 54.6875 
L 54.390625 54.6875 
z
" id="BitstreamVeraSans-Roman-67"/>
     </defs>
     <g transform="translate(249.7734375 299.398475)scale(0.12 -0.12)">
      <use xlink:href="#BitstreamVeraSans-Roman-50"/>
      <use x="60.255859375" xlink:href="#BitstreamVeraSans-Roman-65"/>
      <use x="121.779296875" xlink:href="#BitstreamVeraSans-Roman-61"/>
      <use x="183.05859375" xlink:href="#BitstreamVeraSans-Roman-6b"/>
      <use x="240.96875" xlink:href="#BitstreamVeraSans-Roman-20"/>
      <use x="272.755859375" xlink:href="#BitstreamVeraSans-Roman-64"/>
      <use x="336.232421875" xlink:href="#BitstreamVeraSans-Roman-65"/>
      <use x="397.755859375" xlink:href="#BitstreamVeraSans-Roman-70"/>
      <use x="461.232421875" xlink:href="#BitstreamVeraSans-Roman-6c"/>
      <use x="489.015625" xlink:href="#BitstreamVeraSans-Roman-65"/>
      <use x="550.5390625" xlink:href="#BitstreamVeraSans-Roman-74"/>
      <use x="589.748046875" xlink:href="#BitstreamVeraSans-Roman-69"/>
      <use x="617.53125" xlink:href="#BitstreamVeraSans-Roman-6f"/>
      <use x="678.712890625" xlink:href="#BitstreamVeraSans-Roman-6e"/>
      <use x="742.091796875" xlink:href="#BitstreamVeraSans-Roman-20"/>
      <use x="773.87890625" xlink:href="#BitstreamVeraSans-Roman-62"/>
      <use x="837.35546875" xlink:href="#BitstreamVeraSans-Roman-72"/>
      <use x="878.46875" xlink:href="#BitstreamVeraSans-Roman-69"/>
      <use x="906.251953125" xlink:href="#BitstreamVeraSans-Roman-67"/>
      <use x="969.728515625" xlink:href="#BitstreamVeraSans-Roman-68"/>
      <use x="1033.107421875" xlink:href="#BitstreamVeraSans-Roman-74"/>
      <use x="1072.31640625" xlink:href="#BitstreamVeraSans-Roman-6e"/>
      <use x="1135.6953125" xlink:href="#BitstreamVeraSans-Roman-65"/>
      <use x="1197.21875" xlink:href="#BitstreamVeraSans-Roman-73"/>
      <use x="1249.318359375" xlink:href="#BitstreamVeraSans-Roman-73"/>
      <use x="1301.41796875" xlink:href="#BitstreamVeraSans-Roman-20"/>
      <use x="1333.205078125" xlink:href="#BitstreamVeraSans-Roman-28"/>
      <use x="1372.21875" xlink:href="#BitstreamVeraSans-Roman-73"/>
      <use x="1424.318359375" xlink:href="#BitstreamVeraSans-Roman-61"/>
      <use x="1485.59765625" xlink:href="#BitstreamVeraSans-Roman-74"/>
      <use x="1524.806640625" xlink:href="#BitstreamVeraSans-Roman-75"/>
      <use x="1588.185546875" xlink:href="#BitstreamVeraSans-Roman-72"/>
      <use x="1629.298828125" xlink:href="#BitstreamVeraSans-Roman-61"/>
      <use x="1690.578125" xlink:href="#BitstreamVeraSans-Roman-74"/>
      <use x="1729.787109375" xlink:href="#BitstreamVeraSans-Roman-69"/>
      <use x="1757.5703125" xlink:href="#BitstreamVeraSans-Roman-6f"/>
      <use x="1818.751953125" xlink:href="#BitstreamVeraSans-Roman-6e"/>
      <use x="1882.130859375" xlink:href="#BitstreamVeraSans-Roman-20"/>
      <use x="1913.91796875" xlink:href="#BitstreamVeraSans-Roman-75"/>
      <use x="1977.296875" xlink:href="#BitstreamVeraSans-Roman-6e"/>
      <use x="2040.67578125" xlink:href="#BitstreamVeraSans-Roman-69"/>
      <use x="2068.458984375" xlink:href="#BitstreamVeraSans-Roman-74"/>
      <use x="2107.66796875" xlink:href="#BitstreamVeraSans-Roman-73"/>
      <use x="2159.767578125" xlink:href="#BitstreamVeraSans-Roman-29"/>
     </g>
    </g>
   </g>
   <g id="matplotlib.axis_2">
    <g id="ytick_1">
     <g id="line2d_30">
      <path clip-path="url(#pe3388e2cf2)" d="M 46.8975 269.6666 
L 716.4975 269.6666 
" style="fill:none;stroke:#000000;stroke-dasharray:1.000000,3.000000;stroke-dashoffset:0.0;stroke-width:0.5;"/>
     </g>
     <g id="line2d_31">
      <defs>
       <path d="M 0 0 
L 4 0 
" id="meb6144ecc6" style="stroke:#000000;stroke-width:0.5;"/>
      </defs>
      <g>
       <use style="stroke:#000000;stroke-width:0.5;" x="46.8975" xlink:href="#meb6144ecc6" y="269.6666"/>
      </g>
     </g>
     <g id="line2d_32">
      <defs>
       <path d="M 0 0 
L -4 0 
" id="m609e7a9524" style="stroke:#000000;stroke-width:0.5;"/>
      </defs>
      <g>
       <use style="stroke:#000000;stroke-width:0.5;" x="716.4975" xlink:href="#m609e7a9524" y="269.6666"/>
      </g>
     </g>
     <g id="text_11">
      <!-- 1.0 -->
      <defs>
       <path d="M 10.6875 12.40625 
L 21 12.40625 
L 21 0 
L 10.6875 0 
z
" id="BitstreamVeraSans-Roman-2e"/>
      </defs>
      <g transform="translate(23.81375 272.97785)scale(0.12 -0.12)">
       <use xlink:href="#BitstreamVeraSans-Roman-31"/>
       <use x="63.623046875" xlink:href="#BitstreamVeraSans-Roman-2e"/>
       <use x="95.41015625" xlink:href="#BitstreamVeraSans-Roman-30"/>
      </g>
     </g>
    </g>
    <g id="ytick_2">
     <g id="line2d_33">
      <path clip-path="url(#pe3388e2cf2)" d="M 46.8975 236.752314 
L 716.4975 236.752314 
" style="fill:none;stroke:#000000;stroke-dasharray:1.000000,3.000000;stroke-dashoffset:0.0;stroke-width:0.5;"/>
     </g>
     <g id="line2d_34">
      <g>
       <use style="stroke:#000000;stroke-width:0.5;" x="46.8975" xlink:href="#meb6144ecc6" y="236.752314286"/>
      </g>
     </g>
     <g id="line2d_35">
      <g>
       <use style="stroke:#000000;stroke-width:0.5;" x="716.4975" xlink:href="#m609e7a9524" y="236.752314286"/>
      </g>
     </g>
     <g id="text_12">
      <!-- 1.5 -->
      <defs>
       <path d="M 10.796875 72.90625 
L 49.515625 72.90625 
L 49.515625 64.59375 
L 19.828125 64.59375 
L 19.828125 46.734375 
Q 21.96875 47.46875 24.109375 47.828125 
Q 26.265625 48.1875 28.421875 48.1875 
Q 40.625 48.1875 47.75 41.5 
Q 54.890625 34.8125 54.890625 23.390625 
Q 54.890625 11.625 47.5625 5.09375 
Q 40.234375 -1.421875 26.90625 -1.421875 
Q 22.3125 -1.421875 17.546875 -0.640625 
Q 12.796875 0.140625 7.71875 1.703125 
L 7.71875 11.625 
Q 12.109375 9.234375 16.796875 8.0625 
Q 21.484375 6.890625 26.703125 6.890625 
Q 35.15625 6.890625 40.078125 11.328125 
Q 45.015625 15.765625 45.015625 23.390625 
Q 45.015625 31 40.078125 35.4375 
Q 35.15625 39.890625 26.703125 39.890625 
Q 22.75 39.890625 18.8125 39.015625 
Q 14.890625 38.140625 10.796875 36.28125 
z
" id="BitstreamVeraSans-Roman-35"/>
      </defs>
      <g transform="translate(23.81375 240.063564286)scale(0.12 -0.12)">
       <use xlink:href="#BitstreamVeraSans-Roman-31"/>
       <use x="63.623046875" xlink:href="#BitstreamVeraSans-Roman-2e"/>
       <use x="95.41015625" xlink:href="#BitstreamVeraSans-Roman-35"/>
      </g>
     </g>
    </g>
    <g id="ytick_3">
     <g id="line2d_36">
      <path clip-path="url(#pe3388e2cf2)" d="M 46.8975 203.838029 
L 716.4975 203.838029 
" style="fill:none;stroke:#000000;stroke-dasharray:1.000000,3.000000;stroke-dashoffset:0.0;stroke-width:0.5;"/>
     </g>
     <g id="line2d_37">
      <g>
       <use style="stroke:#000000;stroke-width:0.5;" x="46.8975" xlink:href="#meb6144ecc6" y="203.838028571"/>
      </g>
     </g>
     <g id="line2d_38">
      <g>
       <use style="stroke:#000000;stroke-width:0.5;" x="716.4975" xlink:href="#m609e7a9524" y="203.838028571"/>
      </g>
     </g>
     <g id="text_13">
      <!-- 2.0 -->
      <g transform="translate(23.81375 207.149278571)scale(0.12 -0.12)">
       <use xlink:href="#BitstreamVeraSans-Roman-32"/>
       <use x="63.623046875" xlink:href="#BitstreamVeraSans-Roman-2e"/>
       <use x="95.41015625" xlink:href="#BitstreamVeraSans-Roman-30"/>
      </g>
     </g>
    </g>
    <g id="ytick_4">
     <g id="line2d_39">
      <path clip-path="url(#pe3388e2cf2)" d="M 46.8975 170.923743 
L 716.4975 170.923743 
" style="fill:none;stroke:#000000;stroke-dasharray:1.000000,3.000000;stroke-dashoffset:0.0;stroke-width:0.5;"/>
     </g>
     <g id="line2d_40">
      <g>
       <use style="stroke:#000000;stroke-width:0.5;" x="46.8975" xlink:href="#meb6144ecc6" y="170.923742857"/>
      </g>
     </g>
     <g id="line2d_41">
      <g>
       <use style="stroke:#000000;stroke-width:0.5;" x="716.4975" xlink:href="#m609e7a9524" y="170.923742857"/>
      </g>
     </g>
     <g id="text_14">
      <!-- 2.5 -->
      <g transform="translate(23.81375 174.234992857)scale(0.12 -0.12)">
       <use xlink:href="#BitstreamVeraSans-Roman-32"/>
       <use x="63.623046875" xlink:href="#BitstreamVeraSans-Roman-2e"/>
       <use x="95.41015625" xlink:href="#BitstreamVeraSans-Roman-35"/>
      </g>
     </g>
    </g>
    <g id="ytick_5">
     <g id="line2d_42">
      <path clip-path="url(#pe3388e2cf2)" d="M 46.8975 138.009457 
L 716.4975 138.009457 
" style="fill:none;stroke:#000000;stroke-dasharray:1.000000,3.000000;stroke-dashoffset:0.0;stroke-width:0.5;"/>
     </g>
     <g id="line2d_43">
      <g>
       <use style="stroke:#000000;stroke-width:0.5;" x="46.8975" xlink:href="#meb6144ecc6" y="138.009457143"/>
      </g>
     </g>
     <g id="line2d_44">
      <g>
       <use style="stroke:#000000;stroke-width:0.5;" x="716.4975" xlink:href="#m609e7a9524" y="138.009457143"/>
      </g>
     </g>
     <g id="text_15">
      <!-- 3.0 -->
      <defs>
       <path d="M 40.578125 39.3125 
Q 47.65625 37.796875 51.625 33 
Q 55.609375 28.21875 55.609375 21.1875 
Q 55.609375 10.40625 48.1875 4.484375 
Q 40.765625 -1.421875 27.09375 -1.421875 
Q 22.515625 -1.421875 17.65625 -0.515625 
Q 12.796875 0.390625 7.625 2.203125 
L 7.625 11.71875 
Q 11.71875 9.328125 16.59375 8.109375 
Q 21.484375 6.890625 26.8125 6.890625 
Q 36.078125 6.890625 40.9375 10.546875 
Q 45.796875 14.203125 45.796875 21.1875 
Q 45.796875 27.640625 41.28125 31.265625 
Q 36.765625 34.90625 28.71875 34.90625 
L 20.21875 34.90625 
L 20.21875 43.015625 
L 29.109375 43.015625 
Q 36.375 43.015625 40.234375 45.921875 
Q 44.09375 48.828125 44.09375 54.296875 
Q 44.09375 59.90625 40.109375 62.90625 
Q 36.140625 65.921875 28.71875 65.921875 
Q 24.65625 65.921875 20.015625 65.03125 
Q 15.375 64.15625 9.8125 62.3125 
L 9.8125 71.09375 
Q 15.4375 72.65625 20.34375 73.4375 
Q 25.25 74.21875 29.59375 74.21875 
Q 40.828125 74.21875 47.359375 69.109375 
Q 53.90625 64.015625 53.90625 55.328125 
Q 53.90625 49.265625 50.4375 45.09375 
Q 46.96875 40.921875 40.578125 39.3125 
" id="BitstreamVeraSans-Roman-33"/>
      </defs>
      <g transform="translate(23.81375 141.320707143)scale(0.12 -0.12)">
       <use xlink:href="#BitstreamVeraSans-Roman-33"/>
       <use x="63.623046875" xlink:href="#BitstreamVeraSans-Roman-2e"/>
       <use x="95.41015625" xlink:href="#BitstreamVeraSans-Roman-30"/>
      </g>
     </g>
    </g>
    <g id="ytick_6">
     <g id="line2d_45">
      <path clip-path="url(#pe3388e2cf2)" d="M 46.8975 105.095171 
L 716.4975 105.095171 
" style="fill:none;stroke:#000000;stroke-dasharray:1.000000,3.000000;stroke-dashoffset:0.0;stroke-width:0.5;"/>
     </g>
     <g id="line2d_46">
      <g>
       <use style="stroke:#000000;stroke-width:0.5;" x="46.8975" xlink:href="#meb6144ecc6" y="105.095171429"/>
      </g>
     </g>
     <g id="line2d_47">
      <g>
       <use style="stroke:#000000;stroke-width:0.5;" x="716.4975" xlink:href="#m609e7a9524" y="105.095171429"/>
      </g>
     </g>
     <g id="text_16">
      <!-- 3.5 -->
      <g transform="translate(23.81375 108.406421429)scale(0.12 -0.12)">
       <use xlink:href="#BitstreamVeraSans-Roman-33"/>
       <use x="63.623046875" xlink:href="#BitstreamVeraSans-Roman-2e"/>
       <use x="95.41015625" xlink:href="#BitstreamVeraSans-Roman-35"/>
      </g>
     </g>
    </g>
    <g id="ytick_7">
     <g id="line2d_48">
      <path clip-path="url(#pe3388e2cf2)" d="M 46.8975 72.180886 
L 716.4975 72.180886 
" style="fill:none;stroke:#000000;stroke-dasharray:1.000000,3.000000;stroke-dashoffset:0.0;stroke-width:0.5;"/>
     </g>
     <g id="line2d_49">
      <g>
       <use style="stroke:#000000;stroke-width:0.5;" x="46.8975" xlink:href="#meb6144ecc6" y="72.1808857143"/>
      </g>
     </g>
     <g id="line2d_50">
      <g>
       <use style="stroke:#000000;stroke-width:0.5;" x="716.4975" xlink:href="#m609e7a9524" y="72.1808857143"/>
      </g>
     </g>
     <g id="text_17">
      <!-- 4.0 -->
      <g transform="translate(23.81375 75.4921357143)scale(0.12 -0.12)">
       <use xlink:href="#BitstreamVeraSans-Roman-34"/>
       <use x="63.623046875" xlink:href="#BitstreamVeraSans-Roman-2e"/>
       <use x="95.41015625" xlink:href="#BitstreamVeraSans-Roman-30"/>
      </g>
     </g>
    </g>
    <g id="ytick_8">
     <g id="line2d_51">
      <path clip-path="url(#pe3388e2cf2)" d="M 46.8975 39.2666 
L 716.4975 39.2666 
" style="fill:none;stroke:#000000;stroke-dasharray:1.000000,3.000000;stroke-dashoffset:0.0;stroke-width:0.5;"/>
     </g>
     <g id="line2d_52">
      <g>
       <use style="stroke:#000000;stroke-width:0.5;" x="46.8975" xlink:href="#meb6144ecc6" y="39.2666"/>
      </g>
     </g>
     <g id="line2d_53">
      <g>
       <use style="stroke:#000000;stroke-width:0.5;" x="716.4975" xlink:href="#m609e7a9524" y="39.2666"/>
      </g>
     </g>
     <g id="text_18">
      <!-- 4.5 -->
      <g transform="translate(23.81375 42.57785)scale(0.12 -0.12)">
       <use xlink:href="#BitstreamVeraSans-Roman-34"/>
       <use x="63.623046875" xlink:href="#BitstreamVeraSans-Roman-2e"/>
       <use x="95.41015625" xlink:href="#BitstreamVeraSans-Roman-35"/>
      </g>
     </g>
    </g>
    <g id="text_19">
     <!-- Resolution improvement (vs. diffraction limit) -->
     <defs>
      <path d="M 52 44.1875 
Q 55.375 50.25 60.0625 53.125 
Q 64.75 56 71.09375 56 
Q 79.640625 56 84.28125 50.015625 
Q 88.921875 44.046875 88.921875 33.015625 
L 88.921875 0 
L 79.890625 0 
L 79.890625 32.71875 
Q 79.890625 40.578125 77.09375 44.375 
Q 74.3125 48.1875 68.609375 48.1875 
Q 61.625 48.1875 57.5625 43.546875 
Q 53.515625 38.921875 53.515625 30.90625 
L 53.515625 0 
L 44.484375 0 
L 44.484375 32.71875 
Q 44.484375 40.625 41.703125 44.40625 
Q 38.921875 48.1875 33.109375 48.1875 
Q 26.21875 48.1875 22.15625 43.53125 
Q 18.109375 38.875 18.109375 30.90625 
L 18.109375 0 
L 9.078125 0 
L 9.078125 54.6875 
L 18.109375 54.6875 
L 18.109375 46.1875 
Q 21.1875 51.21875 25.484375 53.609375 
Q 29.78125 56 35.6875 56 
Q 41.65625 56 45.828125 52.96875 
Q 50 49.953125 52 44.1875 
" id="BitstreamVeraSans-Roman-6d"/>
      <path d="M 44.390625 34.1875 
Q 47.5625 33.109375 50.5625 29.59375 
Q 53.5625 26.078125 56.59375 19.921875 
L 66.609375 0 
L 56 0 
L 46.6875 18.703125 
Q 43.0625 26.03125 39.671875 28.421875 
Q 36.28125 30.8125 30.421875 30.8125 
L 19.671875 30.8125 
L 19.671875 0 
L 9.8125 0 
L 9.8125 72.90625 
L 32.078125 72.90625 
Q 44.578125 72.90625 50.734375 67.671875 
Q 56.890625 62.453125 56.890625 51.90625 
Q 56.890625 45.015625 53.6875 40.46875 
Q 50.484375 35.9375 44.390625 34.1875 
M 19.671875 64.796875 
L 19.671875 38.921875 
L 32.078125 38.921875 
Q 39.203125 38.921875 42.84375 42.21875 
Q 46.484375 45.515625 46.484375 51.90625 
Q 46.484375 58.296875 42.84375 61.546875 
Q 39.203125 64.796875 32.078125 64.796875 
z
" id="BitstreamVeraSans-Roman-52"/>
      <path d="M 37.109375 75.984375 
L 37.109375 68.5 
L 28.515625 68.5 
Q 23.6875 68.5 21.796875 66.546875 
Q 19.921875 64.59375 19.921875 59.515625 
L 19.921875 54.6875 
L 34.71875 54.6875 
L 34.71875 47.703125 
L 19.921875 47.703125 
L 19.921875 0 
L 10.890625 0 
L 10.890625 47.703125 
L 2.296875 47.703125 
L 2.296875 54.6875 
L 10.890625 54.6875 
L 10.890625 58.5 
Q 10.890625 67.625 15.140625 71.796875 
Q 19.390625 75.984375 28.609375 75.984375 
z
" id="BitstreamVeraSans-Roman-66"/>
      <path d="M 48.78125 52.59375 
L 48.78125 44.1875 
Q 44.96875 46.296875 41.140625 47.34375 
Q 37.3125 48.390625 33.40625 48.390625 
Q 24.65625 48.390625 19.8125 42.84375 
Q 14.984375 37.3125 14.984375 27.296875 
Q 14.984375 17.28125 19.8125 11.734375 
Q 24.65625 6.203125 33.40625 6.203125 
Q 37.3125 6.203125 41.140625 7.25 
Q 44.96875 8.296875 48.78125 10.40625 
L 48.78125 2.09375 
Q 45.015625 0.34375 40.984375 -0.53125 
Q 36.96875 -1.421875 32.421875 -1.421875 
Q 20.0625 -1.421875 12.78125 6.34375 
Q 5.515625 14.109375 5.515625 27.296875 
Q 5.515625 40.671875 12.859375 48.328125 
Q 20.21875 56 33.015625 56 
Q 37.15625 56 41.109375 55.140625 
Q 45.0625 54.296875 48.78125 52.59375 
" id="BitstreamVeraSans-Roman-63"/>
      <path d="M 2.984375 54.6875 
L 12.5 54.6875 
L 29.59375 8.796875 
L 46.6875 54.6875 
L 56.203125 54.6875 
L 35.6875 0 
L 23.484375 0 
z
" id="BitstreamVeraSans-Roman-76"/>
     </defs>
     <g transform="translate(16.318125 291.1991)rotate(-90.0)scale(0.12 -0.12)">
      <use xlink:href="#BitstreamVeraSans-Roman-52"/>
      <use x="69.419921875" xlink:href="#BitstreamVeraSans-Roman-65"/>
      <use x="130.943359375" xlink:href="#BitstreamVeraSans-Roman-73"/>
      <use x="183.04296875" xlink:href="#BitstreamVeraSans-Roman-6f"/>
      <use x="244.224609375" xlink:href="#BitstreamVeraSans-Roman-6c"/>
      <use x="272.0078125" xlink:href="#BitstreamVeraSans-Roman-75"/>
      <use x="335.38671875" xlink:href="#BitstreamVeraSans-Roman-74"/>
      <use x="374.595703125" xlink:href="#BitstreamVeraSans-Roman-69"/>
      <use x="402.37890625" xlink:href="#BitstreamVeraSans-Roman-6f"/>
      <use x="463.560546875" xlink:href="#BitstreamVeraSans-Roman-6e"/>
      <use x="526.939453125" xlink:href="#BitstreamVeraSans-Roman-20"/>
      <use x="558.7265625" xlink:href="#BitstreamVeraSans-Roman-69"/>
      <use x="586.509765625" xlink:href="#BitstreamVeraSans-Roman-6d"/>
      <use x="683.921875" xlink:href="#BitstreamVeraSans-Roman-70"/>
      <use x="747.3984375" xlink:href="#BitstreamVeraSans-Roman-72"/>
      <use x="788.48046875" xlink:href="#BitstreamVeraSans-Roman-6f"/>
      <use x="849.662109375" xlink:href="#BitstreamVeraSans-Roman-76"/>
      <use x="908.841796875" xlink:href="#BitstreamVeraSans-Roman-65"/>
      <use x="970.365234375" xlink:href="#BitstreamVeraSans-Roman-6d"/>
      <use x="1067.77734375" xlink:href="#BitstreamVeraSans-Roman-65"/>
      <use x="1129.30078125" xlink:href="#BitstreamVeraSans-Roman-6e"/>
      <use x="1192.6796875" xlink:href="#BitstreamVeraSans-Roman-74"/>
      <use x="1231.888671875" xlink:href="#BitstreamVeraSans-Roman-20"/>
      <use x="1263.67578125" xlink:href="#BitstreamVeraSans-Roman-28"/>
      <use x="1302.689453125" xlink:href="#BitstreamVeraSans-Roman-76"/>
      <use x="1361.869140625" xlink:href="#BitstreamVeraSans-Roman-73"/>
      <use x="1413.96875" xlink:href="#BitstreamVeraSans-Roman-2e"/>
      <use x="1445.755859375" xlink:href="#BitstreamVeraSans-Roman-20"/>
      <use x="1477.54296875" xlink:href="#BitstreamVeraSans-Roman-64"/>
      <use x="1541.01953125" xlink:href="#BitstreamVeraSans-Roman-69"/>
      <use x="1568.802734375" xlink:href="#BitstreamVeraSans-Roman-66"/>
      <use x="1604.0078125" xlink:href="#BitstreamVeraSans-Roman-66"/>
      <use x="1639.212890625" xlink:href="#BitstreamVeraSans-Roman-72"/>
      <use x="1680.326171875" xlink:href="#BitstreamVeraSans-Roman-61"/>
      <use x="1741.60546875" xlink:href="#BitstreamVeraSans-Roman-63"/>
      <use x="1796.5859375" xlink:href="#BitstreamVeraSans-Roman-74"/>
      <use x="1835.794921875" xlink:href="#BitstreamVeraSans-Roman-69"/>
      <use x="1863.578125" xlink:href="#BitstreamVeraSans-Roman-6f"/>
      <use x="1924.759765625" xlink:href="#BitstreamVeraSans-Roman-6e"/>
      <use x="1988.138671875" xlink:href="#BitstreamVeraSans-Roman-20"/>
      <use x="2019.92578125" xlink:href="#BitstreamVeraSans-Roman-6c"/>
      <use x="2047.708984375" xlink:href="#BitstreamVeraSans-Roman-69"/>
      <use x="2075.4921875" xlink:href="#BitstreamVeraSans-Roman-6d"/>
      <use x="2172.904296875" xlink:href="#BitstreamVeraSans-Roman-69"/>
      <use x="2200.6875" xlink:href="#BitstreamVeraSans-Roman-74"/>
      <use x="2239.896484375" xlink:href="#BitstreamVeraSans-Roman-29"/>
     </g>
    </g>
   </g>
   <g id="text_20">
    <!-- Resolution improvement vs. depletion brightness -->
    <g transform="translate(204.06 18.14175)scale(0.144 -0.144)">
     <use xlink:href="#BitstreamVeraSans-Roman-52"/>
     <use x="69.419921875" xlink:href="#BitstreamVeraSans-Roman-65"/>
     <use x="130.943359375" xlink:href="#BitstreamVeraSans-Roman-73"/>
     <use x="183.04296875" xlink:href="#BitstreamVeraSans-Roman-6f"/>
     <use x="244.224609375" xlink:href="#BitstreamVeraSans-Roman-6c"/>
     <use x="272.0078125" xlink:href="#BitstreamVeraSans-Roman-75"/>
     <use x="335.38671875" xlink:href="#BitstreamVeraSans-Roman-74"/>
     <use x="374.595703125" xlink:href="#BitstreamVeraSans-Roman-69"/>
     <use x="402.37890625" xlink:href="#BitstreamVeraSans-Roman-6f"/>
     <use x="463.560546875" xlink:href="#BitstreamVeraSans-Roman-6e"/>
     <use x="526.939453125" xlink:href="#BitstreamVeraSans-Roman-20"/>
     <use x="558.7265625" xlink:href="#BitstreamVeraSans-Roman-69"/>
     <use x="586.509765625" xlink:href="#BitstreamVeraSans-Roman-6d"/>
     <use x="683.921875" xlink:href="#BitstreamVeraSans-Roman-70"/>
     <use x="747.3984375" xlink:href="#BitstreamVeraSans-Roman-72"/>
     <use x="788.48046875" xlink:href="#BitstreamVeraSans-Roman-6f"/>
     <use x="849.662109375" xlink:href="#BitstreamVeraSans-Roman-76"/>
     <use x="908.841796875" xlink:href="#BitstreamVeraSans-Roman-65"/>
     <use x="970.365234375" xlink:href="#BitstreamVeraSans-Roman-6d"/>
     <use x="1067.77734375" xlink:href="#BitstreamVeraSans-Roman-65"/>
     <use x="1129.30078125" xlink:href="#BitstreamVeraSans-Roman-6e"/>
     <use x="1192.6796875" xlink:href="#BitstreamVeraSans-Roman-74"/>
     <use x="1231.888671875" xlink:href="#BitstreamVeraSans-Roman-20"/>
     <use x="1263.67578125" xlink:href="#BitstreamVeraSans-Roman-76"/>
     <use x="1322.85546875" xlink:href="#BitstreamVeraSans-Roman-73"/>
     <use x="1374.955078125" xlink:href="#BitstreamVeraSans-Roman-2e"/>
     <use x="1406.7421875" xlink:href="#BitstreamVeraSans-Roman-20"/>
     <use x="1438.529296875" xlink:href="#BitstreamVeraSans-Roman-64"/>
     <use x="1502.005859375" xlink:href="#BitstreamVeraSans-Roman-65"/>
     <use x="1563.529296875" xlink:href="#BitstreamVeraSans-Roman-70"/>
     <use x="1627.005859375" xlink:href="#BitstreamVeraSans-Roman-6c"/>
     <use x="1654.7890625" xlink:href="#BitstreamVeraSans-Roman-65"/>
     <use x="1716.3125" xlink:href="#BitstreamVeraSans-Roman-74"/>
     <use x="1755.521484375" xlink:href="#BitstreamVeraSans-Roman-69"/>
     <use x="1783.3046875" xlink:href="#BitstreamVeraSans-Roman-6f"/>
     <use x="1844.486328125" xlink:href="#BitstreamVeraSans-Roman-6e"/>
     <use x="1907.865234375" xlink:href="#BitstreamVeraSans-Roman-20"/>
     <use x="1939.65234375" xlink:href="#BitstreamVeraSans-Roman-62"/>
     <use x="2003.12890625" xlink:href="#BitstreamVeraSans-Roman-72"/>
     <use x="2044.2421875" xlink:href="#BitstreamVeraSans-Roman-69"/>
     <use x="2072.025390625" xlink:href="#BitstreamVeraSans-Roman-67"/>
     <use x="2135.501953125" xlink:href="#BitstreamVeraSans-Roman-68"/>
     <use x="2198.880859375" xlink:href="#BitstreamVeraSans-Roman-74"/>
     <use x="2238.08984375" xlink:href="#BitstreamVeraSans-Roman-6e"/>
     <use x="2301.46875" xlink:href="#BitstreamVeraSans-Roman-65"/>
     <use x="2362.9921875" xlink:href="#BitstreamVeraSans-Roman-73"/>
     <use x="2415.091796875" xlink:href="#BitstreamVeraSans-Roman-73"/>
    </g>
    <!-- for fixed step size and fixed excitation brightness -->
    <defs>
     <path d="M 5.515625 54.6875 
L 48.1875 54.6875 
L 48.1875 46.484375 
L 14.40625 7.171875 
L 48.1875 7.171875 
L 48.1875 0 
L 4.296875 0 
L 4.296875 8.203125 
L 38.09375 47.515625 
L 5.515625 47.515625 
z
" id="BitstreamVeraSans-Roman-7a"/>
     <path d="M 54.890625 54.6875 
L 35.109375 28.078125 
L 55.90625 0 
L 45.3125 0 
L 29.390625 21.484375 
L 13.484375 0 
L 2.875 0 
L 24.125 28.609375 
L 4.6875 54.6875 
L 15.28125 54.6875 
L 29.78125 35.203125 
L 44.28125 54.6875 
z
" id="BitstreamVeraSans-Roman-78"/>
    </defs>
    <g transform="translate(203.453625 34.2666)scale(0.144 -0.144)">
     <use xlink:href="#BitstreamVeraSans-Roman-66"/>
     <use x="35.205078125" xlink:href="#BitstreamVeraSans-Roman-6f"/>
     <use x="96.38671875" xlink:href="#BitstreamVeraSans-Roman-72"/>
     <use x="137.5" xlink:href="#BitstreamVeraSans-Roman-20"/>
     <use x="169.287109375" xlink:href="#BitstreamVeraSans-Roman-66"/>
     <use x="204.4921875" xlink:href="#BitstreamVeraSans-Roman-69"/>
     <use x="232.275390625" xlink:href="#BitstreamVeraSans-Roman-78"/>
     <use x="291.408203125" xlink:href="#BitstreamVeraSans-Roman-65"/>
     <use x="352.931640625" xlink:href="#BitstreamVeraSans-Roman-64"/>
     <use x="416.408203125" xlink:href="#BitstreamVeraSans-Roman-20"/>
     <use x="448.1953125" xlink:href="#BitstreamVeraSans-Roman-73"/>
     <use x="500.294921875" xlink:href="#BitstreamVeraSans-Roman-74"/>
     <use x="539.50390625" xlink:href="#BitstreamVeraSans-Roman-65"/>
     <use x="601.02734375" xlink:href="#BitstreamVeraSans-Roman-70"/>
     <use x="664.50390625" xlink:href="#BitstreamVeraSans-Roman-20"/>
     <use x="696.291015625" xlink:href="#BitstreamVeraSans-Roman-73"/>
     <use x="748.390625" xlink:href="#BitstreamVeraSans-Roman-69"/>
     <use x="776.173828125" xlink:href="#BitstreamVeraSans-Roman-7a"/>
     <use x="828.6640625" xlink:href="#BitstreamVeraSans-Roman-65"/>
     <use x="890.1875" xlink:href="#BitstreamVeraSans-Roman-20"/>
     <use x="921.974609375" xlink:href="#BitstreamVeraSans-Roman-61"/>
     <use x="983.25390625" xlink:href="#BitstreamVeraSans-Roman-6e"/>
     <use x="1046.6328125" xlink:href="#BitstreamVeraSans-Roman-64"/>
     <use x="1110.109375" xlink:href="#BitstreamVeraSans-Roman-20"/>
     <use x="1141.896484375" xlink:href="#BitstreamVeraSans-Roman-66"/>
     <use x="1177.1015625" xlink:href="#BitstreamVeraSans-Roman-69"/>
     <use x="1204.884765625" xlink:href="#BitstreamVeraSans-Roman-78"/>
     <use x="1264.017578125" xlink:href="#BitstreamVeraSans-Roman-65"/>
     <use x="1325.541015625" xlink:href="#BitstreamVeraSans-Roman-64"/>
     <use x="1389.017578125" xlink:href="#BitstreamVeraSans-Roman-20"/>
     <use x="1420.8046875" xlink:href="#BitstreamVeraSans-Roman-65"/>
     <use x="1482.3125" xlink:href="#BitstreamVeraSans-Roman-78"/>
     <use x="1541.4765625" xlink:href="#BitstreamVeraSans-Roman-63"/>
     <use x="1596.45703125" xlink:href="#BitstreamVeraSans-Roman-69"/>
     <use x="1624.240234375" xlink:href="#BitstreamVeraSans-Roman-74"/>
     <use x="1663.44921875" xlink:href="#BitstreamVeraSans-Roman-61"/>
     <use x="1724.728515625" xlink:href="#BitstreamVeraSans-Roman-74"/>
     <use x="1763.9375" xlink:href="#BitstreamVeraSans-Roman-69"/>
     <use x="1791.720703125" xlink:href="#BitstreamVeraSans-Roman-6f"/>
     <use x="1852.90234375" xlink:href="#BitstreamVeraSans-Roman-6e"/>
     <use x="1916.28125" xlink:href="#BitstreamVeraSans-Roman-20"/>
     <use x="1948.068359375" xlink:href="#BitstreamVeraSans-Roman-62"/>
     <use x="2011.544921875" xlink:href="#BitstreamVeraSans-Roman-72"/>
     <use x="2052.658203125" xlink:href="#BitstreamVeraSans-Roman-69"/>
     <use x="2080.44140625" xlink:href="#BitstreamVeraSans-Roman-67"/>
     <use x="2143.91796875" xlink:href="#BitstreamVeraSans-Roman-68"/>
     <use x="2207.296875" xlink:href="#BitstreamVeraSans-Roman-74"/>
     <use x="2246.505859375" xlink:href="#BitstreamVeraSans-Roman-6e"/>
     <use x="2309.884765625" xlink:href="#BitstreamVeraSans-Roman-65"/>
     <use x="2371.408203125" xlink:href="#BitstreamVeraSans-Roman-73"/>
     <use x="2423.5078125" xlink:href="#BitstreamVeraSans-Roman-73"/>
    </g>
   </g>
   <g id="legend_1">
    <g id="patch_7">
     <path d="M 493.0095 262.4666 
L 709.2975 262.4666 
L 709.2975 215.8736 
L 493.0095 215.8736 
z
" style="fill:#ffffff;stroke:#000000;stroke-linejoin:miter;"/>
    </g>
    <g id="line2d_54"/>
    <g id="line2d_55">
     <g>
      <use style="fill:#0000ff;stroke:#0000ff;stroke-width:0.5;" x="503.0895" xlink:href="#ma9c723aee1" y="227.53535"/>
      <use style="fill:#0000ff;stroke:#0000ff;stroke-width:0.5;" x="523.2495" xlink:href="#ma9c723aee1" y="227.53535"/>
     </g>
    </g>
    <g id="text_21">
     <!-- Descanned point STED -->
     <defs>
      <path d="M -0.296875 72.90625 
L 61.375 72.90625 
L 61.375 64.59375 
L 35.5 64.59375 
L 35.5 0 
L 25.59375 0 
L 25.59375 64.59375 
L -0.296875 64.59375 
z
" id="BitstreamVeraSans-Roman-54"/>
      <path d="M 53.515625 70.515625 
L 53.515625 60.890625 
Q 47.90625 63.578125 42.921875 64.890625 
Q 37.9375 66.21875 33.296875 66.21875 
Q 25.25 66.21875 20.875 63.09375 
Q 16.5 59.96875 16.5 54.203125 
Q 16.5 49.359375 19.40625 46.890625 
Q 22.3125 44.4375 30.421875 42.921875 
L 36.375 41.703125 
Q 47.40625 39.59375 52.65625 34.296875 
Q 57.90625 29 57.90625 20.125 
Q 57.90625 9.515625 50.796875 4.046875 
Q 43.703125 -1.421875 29.984375 -1.421875 
Q 24.8125 -1.421875 18.96875 -0.25 
Q 13.140625 0.921875 6.890625 3.21875 
L 6.890625 13.375 
Q 12.890625 10.015625 18.65625 8.296875 
Q 24.421875 6.59375 29.984375 6.59375 
Q 38.421875 6.59375 43.015625 9.90625 
Q 47.609375 13.234375 47.609375 19.390625 
Q 47.609375 24.75 44.3125 27.78125 
Q 41.015625 30.8125 33.5 32.328125 
L 27.484375 33.5 
Q 16.453125 35.6875 11.515625 40.375 
Q 6.59375 45.0625 6.59375 53.421875 
Q 6.59375 63.09375 13.40625 68.65625 
Q 20.21875 74.21875 32.171875 74.21875 
Q 37.3125 74.21875 42.625 73.28125 
Q 47.953125 72.359375 53.515625 70.515625 
" id="BitstreamVeraSans-Roman-53"/>
      <path d="M 19.671875 64.796875 
L 19.671875 8.109375 
L 31.59375 8.109375 
Q 46.6875 8.109375 53.6875 14.9375 
Q 60.6875 21.78125 60.6875 36.53125 
Q 60.6875 51.171875 53.6875 57.984375 
Q 46.6875 64.796875 31.59375 64.796875 
z
M 9.8125 72.90625 
L 30.078125 72.90625 
Q 51.265625 72.90625 61.171875 64.09375 
Q 71.09375 55.28125 71.09375 36.53125 
Q 71.09375 17.671875 61.125 8.828125 
Q 51.171875 0 30.078125 0 
L 9.8125 0 
z
" id="BitstreamVeraSans-Roman-44"/>
      <path d="M 9.8125 72.90625 
L 55.90625 72.90625 
L 55.90625 64.59375 
L 19.671875 64.59375 
L 19.671875 43.015625 
L 54.390625 43.015625 
L 54.390625 34.71875 
L 19.671875 34.71875 
L 19.671875 8.296875 
L 56.78125 8.296875 
L 56.78125 0 
L 9.8125 0 
z
" id="BitstreamVeraSans-Roman-45"/>
     </defs>
     <g transform="translate(539.0895 232.57535)scale(0.144 -0.144)">
      <use xlink:href="#BitstreamVeraSans-Roman-44"/>
      <use x="77.001953125" xlink:href="#BitstreamVeraSans-Roman-65"/>
      <use x="138.525390625" xlink:href="#BitstreamVeraSans-Roman-73"/>
      <use x="190.625" xlink:href="#BitstreamVeraSans-Roman-63"/>
      <use x="245.60546875" xlink:href="#BitstreamVeraSans-Roman-61"/>
      <use x="306.884765625" xlink:href="#BitstreamVeraSans-Roman-6e"/>
      <use x="370.263671875" xlink:href="#BitstreamVeraSans-Roman-6e"/>
      <use x="433.642578125" xlink:href="#BitstreamVeraSans-Roman-65"/>
      <use x="495.166015625" xlink:href="#BitstreamVeraSans-Roman-64"/>
      <use x="558.642578125" xlink:href="#BitstreamVeraSans-Roman-20"/>
      <use x="590.4296875" xlink:href="#BitstreamVeraSans-Roman-70"/>
      <use x="653.90625" xlink:href="#BitstreamVeraSans-Roman-6f"/>
      <use x="715.087890625" xlink:href="#BitstreamVeraSans-Roman-69"/>
      <use x="742.87109375" xlink:href="#BitstreamVeraSans-Roman-6e"/>
      <use x="806.25" xlink:href="#BitstreamVeraSans-Roman-74"/>
      <use x="845.458984375" xlink:href="#BitstreamVeraSans-Roman-20"/>
      <use x="877.24609375" xlink:href="#BitstreamVeraSans-Roman-53"/>
      <use x="940.72265625" xlink:href="#BitstreamVeraSans-Roman-54"/>
      <use x="1001.806640625" xlink:href="#BitstreamVeraSans-Roman-45"/>
      <use x="1064.990234375" xlink:href="#BitstreamVeraSans-Roman-44"/>
     </g>
    </g>
    <g id="line2d_56">
     <path d="M 503.0895 248.67185 
L 523.2495 248.67185 
" style="fill:none;stroke:#008000;stroke-linecap:square;"/>
    </g>
    <g id="line2d_57"/>
    <g id="text_22">
     <!-- Descanned line STED -->
     <g transform="translate(539.0895 253.71185)scale(0.144 -0.144)">
      <use xlink:href="#BitstreamVeraSans-Roman-44"/>
      <use x="77.001953125" xlink:href="#BitstreamVeraSans-Roman-65"/>
      <use x="138.525390625" xlink:href="#BitstreamVeraSans-Roman-73"/>
      <use x="190.625" xlink:href="#BitstreamVeraSans-Roman-63"/>
      <use x="245.60546875" xlink:href="#BitstreamVeraSans-Roman-61"/>
      <use x="306.884765625" xlink:href="#BitstreamVeraSans-Roman-6e"/>
      <use x="370.263671875" xlink:href="#BitstreamVeraSans-Roman-6e"/>
      <use x="433.642578125" xlink:href="#BitstreamVeraSans-Roman-65"/>
      <use x="495.166015625" xlink:href="#BitstreamVeraSans-Roman-64"/>
      <use x="558.642578125" xlink:href="#BitstreamVeraSans-Roman-20"/>
      <use x="590.4296875" xlink:href="#BitstreamVeraSans-Roman-6c"/>
      <use x="618.212890625" xlink:href="#BitstreamVeraSans-Roman-69"/>
      <use x="645.99609375" xlink:href="#BitstreamVeraSans-Roman-6e"/>
      <use x="709.375" xlink:href="#BitstreamVeraSans-Roman-65"/>
      <use x="770.8984375" xlink:href="#BitstreamVeraSans-Roman-20"/>
      <use x="802.685546875" xlink:href="#BitstreamVeraSans-Roman-53"/>
      <use x="866.162109375" xlink:href="#BitstreamVeraSans-Roman-54"/>
      <use x="927.24609375" xlink:href="#BitstreamVeraSans-Roman-45"/>
      <use x="990.4296875" xlink:href="#BitstreamVeraSans-Roman-44"/>
     </g>
    </g>
   </g>
  </g>
 </g>
 <defs>
  <clipPath id="pe3388e2cf2">
   <rect height="230.4" width="669.6" x="46.8975" y="39.2666"/>
  </clipPath>
 </defs>
</svg>
