<?xml version="1.0" encoding="utf-8" standalone="no"?>
<!DOCTYPE svg PUBLIC "-//W3C//DTD SVG 1.1//EN"
  "http://www.w3.org/Graphics/SVG/1.1/DTD/svg11.dtd">
<!-- Created with matplotlib (http://matplotlib.org/) -->
<svg height="309pt" version="1.1" viewBox="0 0 723 309" width="723pt" xmlns="http://www.w3.org/2000/svg" xmlns:xlink="http://www.w3.org/1999/xlink">
 <defs>
  <style type="text/css">
*{stroke-linecap:butt;stroke-linejoin:round;stroke-miterlimit:100000;}
  </style>
 </defs>
 <g id="figure_1">
  <g id="patch_1">
   <path d="M 0 309.0941 
L 723.6975 309.0941 
L 723.6975 0 
L 0 0 
z
" style="fill:#ffffff;"/>
  </g>
  <g id="axes_1">
   <g id="patch_2">
    <path d="M 46.8975 269.6666 
L 716.4975 269.6666 
L 716.4975 39.2666 
L 46.8975 39.2666 
z
" style="fill:#ffffff;"/>
   </g>
   <g id="line2d_1">
    <defs>
     <path d="M 0 1.5 
C 0.397805 1.5 0.77937 1.341951 1.06066 1.06066 
C 1.341951 0.77937 1.5 0.397805 1.5 0 
C 1.5 -0.397805 1.341951 -0.77937 1.06066 -1.06066 
C 0.77937 -1.341951 0.397805 -1.5 0 -1.5 
C -0.397805 -1.5 -0.77937 -1.341951 -1.06066 -1.06066 
C -1.341951 -0.77937 -1.5 -0.397805 -1.5 0 
C -1.5 0.397805 -1.341951 0.77937 -1.06066 1.06066 
C -0.77937 1.341951 -0.397805 1.5 0 1.5 
z
" id="m7a43860e26" style="stroke:#0000ff;stroke-width:0.5;"/>
    </defs>
    <g clip-path="url(#pa9aff0bd78)">
     <use style="fill:#0000ff;stroke:#0000ff;stroke-width:0.5;" x="46.8975" xlink:href="#m7a43860e26" y="271.176094316"/>
     <use style="fill:#0000ff;stroke:#0000ff;stroke-width:0.5;" x="56.4784220986" xlink:href="#m7a43860e26" y="266.918427657"/>
     <use style="fill:#0000ff;stroke:#0000ff;stroke-width:0.5;" x="66.0593441971" xlink:href="#m7a43860e26" y="262.157770002"/>
     <use style="fill:#0000ff;stroke:#0000ff;stroke-width:0.5;" x="75.6402662957" xlink:href="#m7a43860e26" y="256.922674444"/>
     <use style="fill:#0000ff;stroke:#0000ff;stroke-width:0.5;" x="85.2211883943" xlink:href="#m7a43860e26" y="251.281406211"/>
     <use style="fill:#0000ff;stroke:#0000ff;stroke-width:0.5;" x="94.8021104928" xlink:href="#m7a43860e26" y="245.327404715"/>
     <use style="fill:#0000ff;stroke:#0000ff;stroke-width:0.5;" x="104.383032591" xlink:href="#m7a43860e26" y="239.153721414"/>
     <use style="fill:#0000ff;stroke:#0000ff;stroke-width:0.5;" x="113.96395469" xlink:href="#m7a43860e26" y="232.835227828"/>
     <use style="fill:#0000ff;stroke:#0000ff;stroke-width:0.5;" x="123.544876789" xlink:href="#m7a43860e26" y="226.430968119"/>
     <use style="fill:#0000ff;stroke:#0000ff;stroke-width:0.5;" x="133.125798887" xlink:href="#m7a43860e26" y="220.005598042"/>
     <use style="fill:#0000ff;stroke:#0000ff;stroke-width:0.5;" x="142.706720986" xlink:href="#m7a43860e26" y="213.645693445"/>
     <use style="fill:#0000ff;stroke:#0000ff;stroke-width:0.5;" x="152.287643084" xlink:href="#m7a43860e26" y="207.454934913"/>
     <use style="fill:#0000ff;stroke:#0000ff;stroke-width:0.5;" x="161.868565183" xlink:href="#m7a43860e26" y="201.524404535"/>
     <use style="fill:#0000ff;stroke:#0000ff;stroke-width:0.5;" x="171.449487281" xlink:href="#m7a43860e26" y="195.905294975"/>
     <use style="fill:#0000ff;stroke:#0000ff;stroke-width:0.5;" x="181.03040938" xlink:href="#m7a43860e26" y="190.606822306"/>
     <use style="fill:#0000ff;stroke:#0000ff;stroke-width:0.5;" x="190.611331479" xlink:href="#m7a43860e26" y="185.60911932"/>
     <use style="fill:#0000ff;stroke:#0000ff;stroke-width:0.5;" x="200.192253577" xlink:href="#m7a43860e26" y="180.879037248"/>
     <use style="fill:#0000ff;stroke:#0000ff;stroke-width:0.5;" x="209.773175676" xlink:href="#m7a43860e26" y="176.381268204"/>
     <use style="fill:#0000ff;stroke:#0000ff;stroke-width:0.5;" x="219.354097774" xlink:href="#m7a43860e26" y="172.083049203"/>
     <use style="fill:#0000ff;stroke:#0000ff;stroke-width:0.5;" x="228.935019873" xlink:href="#m7a43860e26" y="167.956154234"/>
     <use style="fill:#0000ff;stroke:#0000ff;stroke-width:0.5;" x="238.515941971" xlink:href="#m7a43860e26" y="163.977063771"/>
     <use style="fill:#0000ff;stroke:#0000ff;stroke-width:0.5;" x="248.09686407" xlink:href="#m7a43860e26" y="160.126476562"/>
     <use style="fill:#0000ff;stroke:#0000ff;stroke-width:0.5;" x="257.677786169" xlink:href="#m7a43860e26" y="156.388636442"/>
     <use style="fill:#0000ff;stroke:#0000ff;stroke-width:0.5;" x="267.258708267" xlink:href="#m7a43860e26" y="152.750674502"/>
     <use style="fill:#0000ff;stroke:#0000ff;stroke-width:0.5;" x="276.839630366" xlink:href="#m7a43860e26" y="149.202037679"/>
     <use style="fill:#0000ff;stroke:#0000ff;stroke-width:0.5;" x="286.420552464" xlink:href="#m7a43860e26" y="145.734018127"/>
     <use style="fill:#0000ff;stroke:#0000ff;stroke-width:0.5;" x="296.001474563" xlink:href="#m7a43860e26" y="142.339375895"/>
     <use style="fill:#0000ff;stroke:#0000ff;stroke-width:0.5;" x="305.582396661" xlink:href="#m7a43860e26" y="139.01204042"/>
     <use style="fill:#0000ff;stroke:#0000ff;stroke-width:0.5;" x="315.16331876" xlink:href="#m7a43860e26" y="135.746875874"/>
     <use style="fill:#0000ff;stroke:#0000ff;stroke-width:0.5;" x="324.744240859" xlink:href="#m7a43860e26" y="132.539497079"/>
     <use style="fill:#0000ff;stroke:#0000ff;stroke-width:0.5;" x="334.325162957" xlink:href="#m7a43860e26" y="129.386125063"/>
     <use style="fill:#0000ff;stroke:#0000ff;stroke-width:0.5;" x="343.906085056" xlink:href="#m7a43860e26" y="126.283473477"/>
     <use style="fill:#0000ff;stroke:#0000ff;stroke-width:0.5;" x="353.487007154" xlink:href="#m7a43860e26" y="123.228659042"/>
     <use style="fill:#0000ff;stroke:#0000ff;stroke-width:0.5;" x="363.067929253" xlink:href="#m7a43860e26" y="120.21913066"/>
     <use style="fill:#0000ff;stroke:#0000ff;stroke-width:0.5;" x="372.648851351" xlink:href="#m7a43860e26" y="117.252613075"/>
     <use style="fill:#0000ff;stroke:#0000ff;stroke-width:0.5;" x="382.22977345" xlink:href="#m7a43860e26" y="114.327061891"/>
     <use style="fill:#0000ff;stroke:#0000ff;stroke-width:0.5;" x="391.810695548" xlink:href="#m7a43860e26" y="111.440627461"/>
     <use style="fill:#0000ff;stroke:#0000ff;stroke-width:0.5;" x="401.391617647" xlink:href="#m7a43860e26" y="108.591625764"/>
     <use style="fill:#0000ff;stroke:#0000ff;stroke-width:0.5;" x="410.972539746" xlink:href="#m7a43860e26" y="105.778514765"/>
     <use style="fill:#0000ff;stroke:#0000ff;stroke-width:0.5;" x="420.553461844" xlink:href="#m7a43860e26" y="102.999875119"/>
     <use style="fill:#0000ff;stroke:#0000ff;stroke-width:0.5;" x="430.134383943" xlink:href="#m7a43860e26" y="100.254394317"/>
     <use style="fill:#0000ff;stroke:#0000ff;stroke-width:0.5;" x="439.715306041" xlink:href="#m7a43860e26" y="97.5408535742"/>
     <use style="fill:#0000ff;stroke:#0000ff;stroke-width:0.5;" x="449.29622814" xlink:href="#m7a43860e26" y="94.8581169174"/>
     <use style="fill:#0000ff;stroke:#0000ff;stroke-width:0.5;" x="458.877150238" xlink:href="#m7a43860e26" y="92.2051220348"/>
     <use style="fill:#0000ff;stroke:#0000ff;stroke-width:0.5;" x="468.458072337" xlink:href="#m7a43860e26" y="89.5808725251"/>
     <use style="fill:#0000ff;stroke:#0000ff;stroke-width:0.5;" x="478.038994436" xlink:href="#m7a43860e26" y="86.9844313774"/>
     <use style="fill:#0000ff;stroke:#0000ff;stroke-width:0.5;" x="487.619916534" xlink:href="#m7a43860e26" y="84.4149152886"/>
     <use style="fill:#0000ff;stroke:#0000ff;stroke-width:0.5;" x="497.200838633" xlink:href="#m7a43860e26" y="81.8714898294"/>
     <use style="fill:#0000ff;stroke:#0000ff;stroke-width:0.5;" x="506.781760731" xlink:href="#m7a43860e26" y="79.3533652333"/>
     <use style="fill:#0000ff;stroke:#0000ff;stroke-width:0.5;" x="516.36268283" xlink:href="#m7a43860e26" y="76.8597926962"/>
     <use style="fill:#0000ff;stroke:#0000ff;stroke-width:0.5;" x="525.943604928" xlink:href="#m7a43860e26" y="74.3900611618"/>
     <use style="fill:#0000ff;stroke:#0000ff;stroke-width:0.5;" x="535.524527027" xlink:href="#m7a43860e26" y="71.9434944216"/>
     <use style="fill:#0000ff;stroke:#0000ff;stroke-width:0.5;" x="545.105449126" xlink:href="#m7a43860e26" y="69.519448578"/>
     <use style="fill:#0000ff;stroke:#0000ff;stroke-width:0.5;" x="554.686371224" xlink:href="#m7a43860e26" y="67.1173097595"/>
     <use style="fill:#0000ff;stroke:#0000ff;stroke-width:0.5;" x="564.267293323" xlink:href="#m7a43860e26" y="64.7364920507"/>
     <use style="fill:#0000ff;stroke:#0000ff;stroke-width:0.5;" x="573.848215421" xlink:href="#m7a43860e26" y="62.3764356709"/>
     <use style="fill:#0000ff;stroke:#0000ff;stroke-width:0.5;" x="583.42913752" xlink:href="#m7a43860e26" y="60.0366052522"/>
     <use style="fill:#0000ff;stroke:#0000ff;stroke-width:0.5;" x="593.010059618" xlink:href="#m7a43860e26" y="57.7164883397"/>
     <use style="fill:#0000ff;stroke:#0000ff;stroke-width:0.5;" x="602.590981717" xlink:href="#m7a43860e26" y="55.4155939715"/>
     <use style="fill:#0000ff;stroke:#0000ff;stroke-width:0.5;" x="612.171903816" xlink:href="#m7a43860e26" y="53.1334514085"/>
     <use style="fill:#0000ff;stroke:#0000ff;stroke-width:0.5;" x="621.752825914" xlink:href="#m7a43860e26" y="50.8696089513"/>
     <use style="fill:#0000ff;stroke:#0000ff;stroke-width:0.5;" x="631.333748013" xlink:href="#m7a43860e26" y="48.6236328524"/>
     <use style="fill:#0000ff;stroke:#0000ff;stroke-width:0.5;" x="640.914670111" xlink:href="#m7a43860e26" y="46.3951063208"/>
     <use style="fill:#0000ff;stroke:#0000ff;stroke-width:0.5;" x="650.49559221" xlink:href="#m7a43860e26" y="44.1836285846"/>
     <use style="fill:#0000ff;stroke:#0000ff;stroke-width:0.5;" x="660.076514308" xlink:href="#m7a43860e26" y="41.988814034"/>
     <use style="fill:#0000ff;stroke:#0000ff;stroke-width:0.5;" x="669.657436407" xlink:href="#m7a43860e26" y="39.8102914201"/>
     <use style="fill:#0000ff;stroke:#0000ff;stroke-width:0.5;" x="679.238358506" xlink:href="#m7a43860e26" y="37.6477031095"/>
     <use style="fill:#0000ff;stroke:#0000ff;stroke-width:0.5;" x="688.819280604" xlink:href="#m7a43860e26" y="35.5007043894"/>
     <use style="fill:#0000ff;stroke:#0000ff;stroke-width:0.5;" x="698.400202703" xlink:href="#m7a43860e26" y="33.3689628188"/>
     <use style="fill:#0000ff;stroke:#0000ff;stroke-width:0.5;" x="707.981124801" xlink:href="#m7a43860e26" y="31.2521576215"/>
     <use style="fill:#0000ff;stroke:#0000ff;stroke-width:0.5;" x="717.5620469" xlink:href="#m7a43860e26" y="29.1499791186"/>
     <use style="fill:#0000ff;stroke:#0000ff;stroke-width:0.5;" x="727.142968998" xlink:href="#m7a43860e26" y="27.0621281958"/>
     <use style="fill:#0000ff;stroke:#0000ff;stroke-width:0.5;" x="736.723891097" xlink:href="#m7a43860e26" y="24.9883158039"/>
     <use style="fill:#0000ff;stroke:#0000ff;stroke-width:0.5;" x="746.304813196" xlink:href="#m7a43860e26" y="22.9282624897"/>
     <use style="fill:#0000ff;stroke:#0000ff;stroke-width:0.5;" x="755.885735294" xlink:href="#m7a43860e26" y="20.8816979545"/>
    </g>
   </g>
   <g id="line2d_2">
    <path clip-path="url(#pa9aff0bd78)" d="M 46.8975 271.176094 
L 56.478422 266.918428 
L 66.059344 262.15777 
L 75.640266 256.922674 
L 85.221188 251.281406 
L 94.80211 245.327405 
L 104.383033 239.153721 
L 113.963955 232.835228 
L 123.544877 226.430968 
L 133.125799 220.005598 
L 142.706721 213.645693 
L 152.287643 207.454935 
L 161.868565 201.524405 
L 171.449487 195.905295 
L 181.030409 190.606822 
L 190.611331 185.609119 
L 200.192254 180.879037 
L 209.773176 176.381268 
L 219.354098 172.083049 
L 228.93502 167.956154 
L 238.515942 163.977064 
L 248.096864 160.126477 
L 257.677786 156.388636 
L 267.258708 152.750675 
L 276.83963 149.202038 
L 286.420552 145.734018 
L 296.001475 142.339376 
L 305.582397 139.01204 
L 315.163319 135.746876 
L 324.744241 132.539497 
L 334.325163 129.386125 
L 343.906085 126.283473 
L 353.487007 123.228659 
L 363.067929 120.219131 
L 372.648851 117.252613 
L 382.229773 114.327062 
L 391.810696 111.440627 
L 401.391618 108.591626 
L 410.97254 105.778515 
L 420.553462 102.999875 
L 430.134384 100.254394 
L 439.715306 97.540854 
L 449.296228 94.858117 
L 458.87715 92.205122 
L 468.458072 89.580873 
L 478.038994 86.984431 
L 487.619917 84.414915 
L 497.200839 81.87149 
L 506.781761 79.353365 
L 516.362683 76.859793 
L 525.943605 74.390061 
L 535.524527 71.943494 
L 545.105449 69.519449 
L 554.686371 67.11731 
L 564.267293 64.736492 
L 573.848215 62.376436 
L 583.429138 60.036605 
L 593.01006 57.716488 
L 602.590982 55.415594 
L 612.171904 53.133451 
L 621.752826 50.869609 
L 631.333748 48.623633 
L 640.91467 46.395106 
L 650.495592 44.183629 
L 660.076514 41.988814 
L 669.657436 39.810291 
L 679.238359 37.647703 
L 688.819281 35.500704 
L 698.400203 33.368963 
L 707.981125 31.252158 
L 717.562047 29.149979 
L 724.6975 27.595039 
" style="fill:none;stroke:#008000;stroke-linecap:square;"/>
   </g>
   <g id="patch_3">
    <path d="M 46.8975 269.6666 
L 716.4975 269.6666 
" style="fill:none;stroke:#000000;stroke-linecap:square;stroke-linejoin:miter;"/>
   </g>
   <g id="patch_4">
    <path d="M 46.8975 269.6666 
L 46.8975 39.2666 
" style="fill:none;stroke:#000000;stroke-linecap:square;stroke-linejoin:miter;"/>
   </g>
   <g id="patch_5">
    <path d="M 46.8975 39.2666 
L 716.4975 39.2666 
" style="fill:none;stroke:#000000;stroke-linecap:square;stroke-linejoin:miter;"/>
   </g>
   <g id="patch_6">
    <path d="M 716.4975 269.6666 
L 716.4975 39.2666 
" style="fill:none;stroke:#000000;stroke-linecap:square;stroke-linejoin:miter;"/>
   </g>
   <g id="matplotlib.axis_1">
    <g id="xtick_1">
     <g id="line2d_3">
      <path clip-path="url(#pa9aff0bd78)" d="M 46.8975 269.6666 
L 46.8975 39.2666 
" style="fill:none;stroke:#000000;stroke-dasharray:1.000000,3.000000;stroke-dashoffset:0.0;stroke-width:0.5;"/>
     </g>
     <g id="line2d_4">
      <defs>
       <path d="M 0 0 
L 0 -4 
" id="ma2cfd8b5c6" style="stroke:#000000;stroke-width:0.5;"/>
      </defs>
      <g>
       <use style="stroke:#000000;stroke-width:0.5;" x="46.8975" xlink:href="#ma2cfd8b5c6" y="269.6666"/>
      </g>
     </g>
     <g id="line2d_5">
      <defs>
       <path d="M 0 0 
L 0 4 
" id="maa840eb833" style="stroke:#000000;stroke-width:0.5;"/>
      </defs>
      <g>
       <use style="stroke:#000000;stroke-width:0.5;" x="46.8975" xlink:href="#maa840eb833" y="39.2666"/>
      </g>
     </g>
     <g id="text_1">
      <!-- 0 -->
      <defs>
       <path d="M 31.78125 66.40625 
Q 24.171875 66.40625 20.328125 58.90625 
Q 16.5 51.421875 16.5 36.375 
Q 16.5 21.390625 20.328125 13.890625 
Q 24.171875 6.390625 31.78125 6.390625 
Q 39.453125 6.390625 43.28125 13.890625 
Q 47.125 21.390625 47.125 36.375 
Q 47.125 51.421875 43.28125 58.90625 
Q 39.453125 66.40625 31.78125 66.40625 
M 31.78125 74.21875 
Q 44.046875 74.21875 50.515625 64.515625 
Q 56.984375 54.828125 56.984375 36.375 
Q 56.984375 17.96875 50.515625 8.265625 
Q 44.046875 -1.421875 31.78125 -1.421875 
Q 19.53125 -1.421875 13.0625 8.265625 
Q 6.59375 17.96875 6.59375 36.375 
Q 6.59375 54.828125 13.0625 64.515625 
Q 19.53125 74.21875 31.78125 74.21875 
" id="BitstreamVeraSans-Roman-30"/>
      </defs>
      <g transform="translate(43.08 282.784725)scale(0.12 -0.12)">
       <use xlink:href="#BitstreamVeraSans-Roman-30"/>
      </g>
     </g>
    </g>
    <g id="xtick_2">
     <g id="line2d_6">
      <path clip-path="url(#pa9aff0bd78)" d="M 125.673971 269.6666 
L 125.673971 39.2666 
" style="fill:none;stroke:#000000;stroke-dasharray:1.000000,3.000000;stroke-dashoffset:0.0;stroke-width:0.5;"/>
     </g>
     <g id="line2d_7">
      <g>
       <use style="stroke:#000000;stroke-width:0.5;" x="125.673970588" xlink:href="#ma2cfd8b5c6" y="269.6666"/>
      </g>
     </g>
     <g id="line2d_8">
      <g>
       <use style="stroke:#000000;stroke-width:0.5;" x="125.673970588" xlink:href="#maa840eb833" y="39.2666"/>
      </g>
     </g>
     <g id="text_2">
      <!-- 2 -->
      <defs>
       <path d="M 19.1875 8.296875 
L 53.609375 8.296875 
L 53.609375 0 
L 7.328125 0 
L 7.328125 8.296875 
Q 12.9375 14.109375 22.625 23.890625 
Q 32.328125 33.6875 34.8125 36.53125 
Q 39.546875 41.84375 41.421875 45.53125 
Q 43.3125 49.21875 43.3125 52.78125 
Q 43.3125 58.59375 39.234375 62.25 
Q 35.15625 65.921875 28.609375 65.921875 
Q 23.96875 65.921875 18.8125 64.3125 
Q 13.671875 62.703125 7.8125 59.421875 
L 7.8125 69.390625 
Q 13.765625 71.78125 18.9375 73 
Q 24.125 74.21875 28.421875 74.21875 
Q 39.75 74.21875 46.484375 68.546875 
Q 53.21875 62.890625 53.21875 53.421875 
Q 53.21875 48.921875 51.53125 44.890625 
Q 49.859375 40.875 45.40625 35.40625 
Q 44.1875 33.984375 37.640625 27.21875 
Q 31.109375 20.453125 19.1875 8.296875 
" id="BitstreamVeraSans-Roman-32"/>
      </defs>
      <g transform="translate(121.856470588 282.784725)scale(0.12 -0.12)">
       <use xlink:href="#BitstreamVeraSans-Roman-32"/>
      </g>
     </g>
    </g>
    <g id="xtick_3">
     <g id="line2d_9">
      <path clip-path="url(#pa9aff0bd78)" d="M 204.450441 269.6666 
L 204.450441 39.2666 
" style="fill:none;stroke:#000000;stroke-dasharray:1.000000,3.000000;stroke-dashoffset:0.0;stroke-width:0.5;"/>
     </g>
     <g id="line2d_10">
      <g>
       <use style="stroke:#000000;stroke-width:0.5;" x="204.450441176" xlink:href="#ma2cfd8b5c6" y="269.6666"/>
      </g>
     </g>
     <g id="line2d_11">
      <g>
       <use style="stroke:#000000;stroke-width:0.5;" x="204.450441176" xlink:href="#maa840eb833" y="39.2666"/>
      </g>
     </g>
     <g id="text_3">
      <!-- 4 -->
      <defs>
       <path d="M 37.796875 64.3125 
L 12.890625 25.390625 
L 37.796875 25.390625 
z
M 35.203125 72.90625 
L 47.609375 72.90625 
L 47.609375 25.390625 
L 58.015625 25.390625 
L 58.015625 17.1875 
L 47.609375 17.1875 
L 47.609375 0 
L 37.796875 0 
L 37.796875 17.1875 
L 4.890625 17.1875 
L 4.890625 26.703125 
z
" id="BitstreamVeraSans-Roman-34"/>
      </defs>
      <g transform="translate(200.632941176 282.784725)scale(0.12 -0.12)">
       <use xlink:href="#BitstreamVeraSans-Roman-34"/>
      </g>
     </g>
    </g>
    <g id="xtick_4">
     <g id="line2d_12">
      <path clip-path="url(#pa9aff0bd78)" d="M 283.226912 269.6666 
L 283.226912 39.2666 
" style="fill:none;stroke:#000000;stroke-dasharray:1.000000,3.000000;stroke-dashoffset:0.0;stroke-width:0.5;"/>
     </g>
     <g id="line2d_13">
      <g>
       <use style="stroke:#000000;stroke-width:0.5;" x="283.226911765" xlink:href="#ma2cfd8b5c6" y="269.6666"/>
      </g>
     </g>
     <g id="line2d_14">
      <g>
       <use style="stroke:#000000;stroke-width:0.5;" x="283.226911765" xlink:href="#maa840eb833" y="39.2666"/>
      </g>
     </g>
     <g id="text_4">
      <!-- 6 -->
      <defs>
       <path d="M 33.015625 40.375 
Q 26.375 40.375 22.484375 35.828125 
Q 18.609375 31.296875 18.609375 23.390625 
Q 18.609375 15.53125 22.484375 10.953125 
Q 26.375 6.390625 33.015625 6.390625 
Q 39.65625 6.390625 43.53125 10.953125 
Q 47.40625 15.53125 47.40625 23.390625 
Q 47.40625 31.296875 43.53125 35.828125 
Q 39.65625 40.375 33.015625 40.375 
M 52.59375 71.296875 
L 52.59375 62.3125 
Q 48.875 64.0625 45.09375 64.984375 
Q 41.3125 65.921875 37.59375 65.921875 
Q 27.828125 65.921875 22.671875 59.328125 
Q 17.53125 52.734375 16.796875 39.40625 
Q 19.671875 43.65625 24.015625 45.921875 
Q 28.375 48.1875 33.59375 48.1875 
Q 44.578125 48.1875 50.953125 41.515625 
Q 57.328125 34.859375 57.328125 23.390625 
Q 57.328125 12.15625 50.6875 5.359375 
Q 44.046875 -1.421875 33.015625 -1.421875 
Q 20.359375 -1.421875 13.671875 8.265625 
Q 6.984375 17.96875 6.984375 36.375 
Q 6.984375 53.65625 15.1875 63.9375 
Q 23.390625 74.21875 37.203125 74.21875 
Q 40.921875 74.21875 44.703125 73.484375 
Q 48.484375 72.75 52.59375 71.296875 
" id="BitstreamVeraSans-Roman-36"/>
      </defs>
      <g transform="translate(279.409411765 282.784725)scale(0.12 -0.12)">
       <use xlink:href="#BitstreamVeraSans-Roman-36"/>
      </g>
     </g>
    </g>
    <g id="xtick_5">
     <g id="line2d_15">
      <path clip-path="url(#pa9aff0bd78)" d="M 362.003382 269.6666 
L 362.003382 39.2666 
" style="fill:none;stroke:#000000;stroke-dasharray:1.000000,3.000000;stroke-dashoffset:0.0;stroke-width:0.5;"/>
     </g>
     <g id="line2d_16">
      <g>
       <use style="stroke:#000000;stroke-width:0.5;" x="362.003382353" xlink:href="#ma2cfd8b5c6" y="269.6666"/>
      </g>
     </g>
     <g id="line2d_17">
      <g>
       <use style="stroke:#000000;stroke-width:0.5;" x="362.003382353" xlink:href="#maa840eb833" y="39.2666"/>
      </g>
     </g>
     <g id="text_5">
      <!-- 8 -->
      <defs>
       <path d="M 31.78125 34.625 
Q 24.75 34.625 20.71875 30.859375 
Q 16.703125 27.09375 16.703125 20.515625 
Q 16.703125 13.921875 20.71875 10.15625 
Q 24.75 6.390625 31.78125 6.390625 
Q 38.8125 6.390625 42.859375 10.171875 
Q 46.921875 13.96875 46.921875 20.515625 
Q 46.921875 27.09375 42.890625 30.859375 
Q 38.875 34.625 31.78125 34.625 
M 21.921875 38.8125 
Q 15.578125 40.375 12.03125 44.71875 
Q 8.5 49.078125 8.5 55.328125 
Q 8.5 64.0625 14.71875 69.140625 
Q 20.953125 74.21875 31.78125 74.21875 
Q 42.671875 74.21875 48.875 69.140625 
Q 55.078125 64.0625 55.078125 55.328125 
Q 55.078125 49.078125 51.53125 44.71875 
Q 48 40.375 41.703125 38.8125 
Q 48.828125 37.15625 52.796875 32.3125 
Q 56.78125 27.484375 56.78125 20.515625 
Q 56.78125 9.90625 50.3125 4.234375 
Q 43.84375 -1.421875 31.78125 -1.421875 
Q 19.734375 -1.421875 13.25 4.234375 
Q 6.78125 9.90625 6.78125 20.515625 
Q 6.78125 27.484375 10.78125 32.3125 
Q 14.796875 37.15625 21.921875 38.8125 
M 18.3125 54.390625 
Q 18.3125 48.734375 21.84375 45.5625 
Q 25.390625 42.390625 31.78125 42.390625 
Q 38.140625 42.390625 41.71875 45.5625 
Q 45.3125 48.734375 45.3125 54.390625 
Q 45.3125 60.0625 41.71875 63.234375 
Q 38.140625 66.40625 31.78125 66.40625 
Q 25.390625 66.40625 21.84375 63.234375 
Q 18.3125 60.0625 18.3125 54.390625 
" id="BitstreamVeraSans-Roman-38"/>
      </defs>
      <g transform="translate(358.185882353 282.784725)scale(0.12 -0.12)">
       <use xlink:href="#BitstreamVeraSans-Roman-38"/>
      </g>
     </g>
    </g>
    <g id="xtick_6">
     <g id="line2d_18">
      <path clip-path="url(#pa9aff0bd78)" d="M 440.779853 269.6666 
L 440.779853 39.2666 
" style="fill:none;stroke:#000000;stroke-dasharray:1.000000,3.000000;stroke-dashoffset:0.0;stroke-width:0.5;"/>
     </g>
     <g id="line2d_19">
      <g>
       <use style="stroke:#000000;stroke-width:0.5;" x="440.779852941" xlink:href="#ma2cfd8b5c6" y="269.6666"/>
      </g>
     </g>
     <g id="line2d_20">
      <g>
       <use style="stroke:#000000;stroke-width:0.5;" x="440.779852941" xlink:href="#maa840eb833" y="39.2666"/>
      </g>
     </g>
     <g id="text_6">
      <!-- 10 -->
      <defs>
       <path d="M 12.40625 8.296875 
L 28.515625 8.296875 
L 28.515625 63.921875 
L 10.984375 60.40625 
L 10.984375 69.390625 
L 28.421875 72.90625 
L 38.28125 72.90625 
L 38.28125 8.296875 
L 54.390625 8.296875 
L 54.390625 0 
L 12.40625 0 
z
" id="BitstreamVeraSans-Roman-31"/>
      </defs>
      <g transform="translate(433.144852941 282.784725)scale(0.12 -0.12)">
       <use xlink:href="#BitstreamVeraSans-Roman-31"/>
       <use x="63.623046875" xlink:href="#BitstreamVeraSans-Roman-30"/>
      </g>
     </g>
    </g>
    <g id="xtick_7">
     <g id="line2d_21">
      <path clip-path="url(#pa9aff0bd78)" d="M 519.556324 269.6666 
L 519.556324 39.2666 
" style="fill:none;stroke:#000000;stroke-dasharray:1.000000,3.000000;stroke-dashoffset:0.0;stroke-width:0.5;"/>
     </g>
     <g id="line2d_22">
      <g>
       <use style="stroke:#000000;stroke-width:0.5;" x="519.556323529" xlink:href="#ma2cfd8b5c6" y="269.6666"/>
      </g>
     </g>
     <g id="line2d_23">
      <g>
       <use style="stroke:#000000;stroke-width:0.5;" x="519.556323529" xlink:href="#maa840eb833" y="39.2666"/>
      </g>
     </g>
     <g id="text_7">
      <!-- 12 -->
      <g transform="translate(511.921323529 282.784725)scale(0.12 -0.12)">
       <use xlink:href="#BitstreamVeraSans-Roman-31"/>
       <use x="63.623046875" xlink:href="#BitstreamVeraSans-Roman-32"/>
      </g>
     </g>
    </g>
    <g id="xtick_8">
     <g id="line2d_24">
      <path clip-path="url(#pa9aff0bd78)" d="M 598.332794 269.6666 
L 598.332794 39.2666 
" style="fill:none;stroke:#000000;stroke-dasharray:1.000000,3.000000;stroke-dashoffset:0.0;stroke-width:0.5;"/>
     </g>
     <g id="line2d_25">
      <g>
       <use style="stroke:#000000;stroke-width:0.5;" x="598.332794118" xlink:href="#ma2cfd8b5c6" y="269.6666"/>
      </g>
     </g>
     <g id="line2d_26">
      <g>
       <use style="stroke:#000000;stroke-width:0.5;" x="598.332794118" xlink:href="#maa840eb833" y="39.2666"/>
      </g>
     </g>
     <g id="text_8">
      <!-- 14 -->
      <g transform="translate(590.697794118 282.784725)scale(0.12 -0.12)">
       <use xlink:href="#BitstreamVeraSans-Roman-31"/>
       <use x="63.623046875" xlink:href="#BitstreamVeraSans-Roman-34"/>
      </g>
     </g>
    </g>
    <g id="xtick_9">
     <g id="line2d_27">
      <path clip-path="url(#pa9aff0bd78)" d="M 677.109265 269.6666 
L 677.109265 39.2666 
" style="fill:none;stroke:#000000;stroke-dasharray:1.000000,3.000000;stroke-dashoffset:0.0;stroke-width:0.5;"/>
     </g>
     <g id="line2d_28">
      <g>
       <use style="stroke:#000000;stroke-width:0.5;" x="677.109264706" xlink:href="#ma2cfd8b5c6" y="269.6666"/>
      </g>
     </g>
     <g id="line2d_29">
      <g>
       <use style="stroke:#000000;stroke-width:0.5;" x="677.109264706" xlink:href="#maa840eb833" y="39.2666"/>
      </g>
     </g>
     <g id="text_9">
      <!-- 16 -->
      <g transform="translate(669.474264706 282.784725)scale(0.12 -0.12)">
       <use xlink:href="#BitstreamVeraSans-Roman-31"/>
       <use x="63.623046875" xlink:href="#BitstreamVeraSans-Roman-36"/>
      </g>
     </g>
    </g>
    <g id="text_10">
     <!-- Peak depletion brightness (saturation units) -->
     <defs>
      <path d="M 54.890625 33.015625 
L 54.890625 0 
L 45.90625 0 
L 45.90625 32.71875 
Q 45.90625 40.484375 42.875 44.328125 
Q 39.84375 48.1875 33.796875 48.1875 
Q 26.515625 48.1875 22.3125 43.546875 
Q 18.109375 38.921875 18.109375 30.90625 
L 18.109375 0 
L 9.078125 0 
L 9.078125 75.984375 
L 18.109375 75.984375 
L 18.109375 46.1875 
Q 21.34375 51.125 25.703125 53.5625 
Q 30.078125 56 35.796875 56 
Q 45.21875 56 50.046875 50.171875 
Q 54.890625 44.34375 54.890625 33.015625 
" id="BitstreamVeraSans-Roman-68"/>
      <path d="M 48.6875 27.296875 
Q 48.6875 37.203125 44.609375 42.84375 
Q 40.53125 48.484375 33.40625 48.484375 
Q 26.265625 48.484375 22.1875 42.84375 
Q 18.109375 37.203125 18.109375 27.296875 
Q 18.109375 17.390625 22.1875 11.75 
Q 26.265625 6.109375 33.40625 6.109375 
Q 40.53125 6.109375 44.609375 11.75 
Q 48.6875 17.390625 48.6875 27.296875 
M 18.109375 46.390625 
Q 20.953125 51.265625 25.265625 53.625 
Q 29.59375 56 35.59375 56 
Q 45.5625 56 51.78125 48.09375 
Q 58.015625 40.1875 58.015625 27.296875 
Q 58.015625 14.40625 51.78125 6.484375 
Q 45.5625 -1.421875 35.59375 -1.421875 
Q 29.59375 -1.421875 25.265625 0.953125 
Q 20.953125 3.328125 18.109375 8.203125 
L 18.109375 0 
L 9.078125 0 
L 9.078125 75.984375 
L 18.109375 75.984375 
z
" id="BitstreamVeraSans-Roman-62"/>
      <path d="M 8.5 21.578125 
L 8.5 54.6875 
L 17.484375 54.6875 
L 17.484375 21.921875 
Q 17.484375 14.15625 20.5 10.265625 
Q 23.53125 6.390625 29.59375 6.390625 
Q 36.859375 6.390625 41.078125 11.03125 
Q 45.3125 15.671875 45.3125 23.6875 
L 45.3125 54.6875 
L 54.296875 54.6875 
L 54.296875 0 
L 45.3125 0 
L 45.3125 8.40625 
Q 42.046875 3.421875 37.71875 1 
Q 33.40625 -1.421875 27.6875 -1.421875 
Q 18.265625 -1.421875 13.375 4.4375 
Q 8.5 10.296875 8.5 21.578125 
" id="BitstreamVeraSans-Roman-75"/>
      <path d="M 34.28125 27.484375 
Q 23.390625 27.484375 19.1875 25 
Q 14.984375 22.515625 14.984375 16.5 
Q 14.984375 11.71875 18.140625 8.90625 
Q 21.296875 6.109375 26.703125 6.109375 
Q 34.1875 6.109375 38.703125 11.40625 
Q 43.21875 16.703125 43.21875 25.484375 
L 43.21875 27.484375 
z
M 52.203125 31.203125 
L 52.203125 0 
L 43.21875 0 
L 43.21875 8.296875 
Q 40.140625 3.328125 35.546875 0.953125 
Q 30.953125 -1.421875 24.3125 -1.421875 
Q 15.921875 -1.421875 10.953125 3.296875 
Q 6 8.015625 6 15.921875 
Q 6 25.140625 12.171875 29.828125 
Q 18.359375 34.515625 30.609375 34.515625 
L 43.21875 34.515625 
L 43.21875 35.40625 
Q 43.21875 41.609375 39.140625 45 
Q 35.0625 48.390625 27.6875 48.390625 
Q 23 48.390625 18.546875 47.265625 
Q 14.109375 46.140625 10.015625 43.890625 
L 10.015625 52.203125 
Q 14.9375 54.109375 19.578125 55.046875 
Q 24.21875 56 28.609375 56 
Q 40.484375 56 46.34375 49.84375 
Q 52.203125 43.703125 52.203125 31.203125 
" id="BitstreamVeraSans-Roman-61"/>
      <path id="BitstreamVeraSans-Roman-20"/>
      <path d="M 8.015625 75.875 
L 15.828125 75.875 
Q 23.140625 64.359375 26.78125 53.3125 
Q 30.421875 42.28125 30.421875 31.390625 
Q 30.421875 20.453125 26.78125 9.375 
Q 23.140625 -1.703125 15.828125 -13.1875 
L 8.015625 -13.1875 
Q 14.5 -2 17.703125 9.0625 
Q 20.90625 20.125 20.90625 31.390625 
Q 20.90625 42.671875 17.703125 53.65625 
Q 14.5 64.65625 8.015625 75.875 
" id="BitstreamVeraSans-Roman-29"/>
      <path d="M 45.40625 27.984375 
Q 45.40625 37.75 41.375 43.109375 
Q 37.359375 48.484375 30.078125 48.484375 
Q 22.859375 48.484375 18.828125 43.109375 
Q 14.796875 37.75 14.796875 27.984375 
Q 14.796875 18.265625 18.828125 12.890625 
Q 22.859375 7.515625 30.078125 7.515625 
Q 37.359375 7.515625 41.375 12.890625 
Q 45.40625 18.265625 45.40625 27.984375 
M 54.390625 6.78125 
Q 54.390625 -7.171875 48.1875 -13.984375 
Q 42 -20.796875 29.203125 -20.796875 
Q 24.46875 -20.796875 20.265625 -20.09375 
Q 16.0625 -19.390625 12.109375 -17.921875 
L 12.109375 -9.1875 
Q 16.0625 -11.328125 19.921875 -12.34375 
Q 23.78125 -13.375 27.78125 -13.375 
Q 36.625 -13.375 41.015625 -8.765625 
Q 45.40625 -4.15625 45.40625 5.171875 
L 45.40625 9.625 
Q 42.625 4.78125 38.28125 2.390625 
Q 33.9375 0 27.875 0 
Q 17.828125 0 11.671875 7.65625 
Q 5.515625 15.328125 5.515625 27.984375 
Q 5.515625 40.671875 11.671875 48.328125 
Q 17.828125 56 27.875 56 
Q 33.9375 56 38.28125 53.609375 
Q 42.625 51.21875 45.40625 46.390625 
L 45.40625 54.6875 
L 54.390625 54.6875 
z
" id="BitstreamVeraSans-Roman-67"/>
      <path d="M 18.109375 8.203125 
L 18.109375 -20.796875 
L 9.078125 -20.796875 
L 9.078125 54.6875 
L 18.109375 54.6875 
L 18.109375 46.390625 
Q 20.953125 51.265625 25.265625 53.625 
Q 29.59375 56 35.59375 56 
Q 45.5625 56 51.78125 48.09375 
Q 58.015625 40.1875 58.015625 27.296875 
Q 58.015625 14.40625 51.78125 6.484375 
Q 45.5625 -1.421875 35.59375 -1.421875 
Q 29.59375 -1.421875 25.265625 0.953125 
Q 20.953125 3.328125 18.109375 8.203125 
M 48.6875 27.296875 
Q 48.6875 37.203125 44.609375 42.84375 
Q 40.53125 48.484375 33.40625 48.484375 
Q 26.265625 48.484375 22.1875 42.84375 
Q 18.109375 37.203125 18.109375 27.296875 
Q 18.109375 17.390625 22.1875 11.75 
Q 26.265625 6.109375 33.40625 6.109375 
Q 40.53125 6.109375 44.609375 11.75 
Q 48.6875 17.390625 48.6875 27.296875 
" id="BitstreamVeraSans-Roman-70"/>
      <path d="M 54.890625 33.015625 
L 54.890625 0 
L 45.90625 0 
L 45.90625 32.71875 
Q 45.90625 40.484375 42.875 44.328125 
Q 39.84375 48.1875 33.796875 48.1875 
Q 26.515625 48.1875 22.3125 43.546875 
Q 18.109375 38.921875 18.109375 30.90625 
L 18.109375 0 
L 9.078125 0 
L 9.078125 54.6875 
L 18.109375 54.6875 
L 18.109375 46.1875 
Q 21.34375 51.125 25.703125 53.5625 
Q 30.078125 56 35.796875 56 
Q 45.21875 56 50.046875 50.171875 
Q 54.890625 44.34375 54.890625 33.015625 
" id="BitstreamVeraSans-Roman-6e"/>
      <path d="M 31 75.875 
Q 24.46875 64.65625 21.28125 53.65625 
Q 18.109375 42.671875 18.109375 31.390625 
Q 18.109375 20.125 21.3125 9.0625 
Q 24.515625 -2 31 -13.1875 
L 23.1875 -13.1875 
Q 15.875 -1.703125 12.234375 9.375 
Q 8.59375 20.453125 8.59375 31.390625 
Q 8.59375 42.28125 12.203125 53.3125 
Q 15.828125 64.359375 23.1875 75.875 
z
" id="BitstreamVeraSans-Roman-28"/>
      <path d="M 41.109375 46.296875 
Q 39.59375 47.171875 37.8125 47.578125 
Q 36.03125 48 33.890625 48 
Q 26.265625 48 22.1875 43.046875 
Q 18.109375 38.09375 18.109375 28.8125 
L 18.109375 0 
L 9.078125 0 
L 9.078125 54.6875 
L 18.109375 54.6875 
L 18.109375 46.1875 
Q 20.953125 51.171875 25.484375 53.578125 
Q 30.03125 56 36.53125 56 
Q 37.453125 56 38.578125 55.875 
Q 39.703125 55.765625 41.0625 55.515625 
z
" id="BitstreamVeraSans-Roman-72"/>
      <path d="M 56.203125 29.59375 
L 56.203125 25.203125 
L 14.890625 25.203125 
Q 15.484375 15.921875 20.484375 11.0625 
Q 25.484375 6.203125 34.421875 6.203125 
Q 39.59375 6.203125 44.453125 7.46875 
Q 49.3125 8.734375 54.109375 11.28125 
L 54.109375 2.78125 
Q 49.265625 0.734375 44.1875 -0.34375 
Q 39.109375 -1.421875 33.890625 -1.421875 
Q 20.796875 -1.421875 13.15625 6.1875 
Q 5.515625 13.8125 5.515625 26.8125 
Q 5.515625 40.234375 12.765625 48.109375 
Q 20.015625 56 32.328125 56 
Q 43.359375 56 49.78125 48.890625 
Q 56.203125 41.796875 56.203125 29.59375 
M 47.21875 32.234375 
Q 47.125 39.59375 43.09375 43.984375 
Q 39.0625 48.390625 32.421875 48.390625 
Q 24.90625 48.390625 20.390625 44.140625 
Q 15.875 39.890625 15.1875 32.171875 
z
" id="BitstreamVeraSans-Roman-65"/>
      <path d="M 44.28125 53.078125 
L 44.28125 44.578125 
Q 40.484375 46.53125 36.375 47.5 
Q 32.28125 48.484375 27.875 48.484375 
Q 21.1875 48.484375 17.84375 46.4375 
Q 14.5 44.390625 14.5 40.28125 
Q 14.5 37.15625 16.890625 35.375 
Q 19.28125 33.59375 26.515625 31.984375 
L 29.59375 31.296875 
Q 39.15625 29.25 43.1875 25.515625 
Q 47.21875 21.78125 47.21875 15.09375 
Q 47.21875 7.46875 41.1875 3.015625 
Q 35.15625 -1.421875 24.609375 -1.421875 
Q 20.21875 -1.421875 15.453125 -0.5625 
Q 10.6875 0.296875 5.421875 2 
L 5.421875 11.28125 
Q 10.40625 8.6875 15.234375 7.390625 
Q 20.0625 6.109375 24.8125 6.109375 
Q 31.15625 6.109375 34.5625 8.28125 
Q 37.984375 10.453125 37.984375 14.40625 
Q 37.984375 18.0625 35.515625 20.015625 
Q 33.0625 21.96875 24.703125 23.78125 
L 21.578125 24.515625 
Q 13.234375 26.265625 9.515625 29.90625 
Q 5.8125 33.546875 5.8125 39.890625 
Q 5.8125 47.609375 11.28125 51.796875 
Q 16.75 56 26.8125 56 
Q 31.78125 56 36.171875 55.265625 
Q 40.578125 54.546875 44.28125 53.078125 
" id="BitstreamVeraSans-Roman-73"/>
      <path d="M 9.421875 54.6875 
L 18.40625 54.6875 
L 18.40625 0 
L 9.421875 0 
z
M 9.421875 75.984375 
L 18.40625 75.984375 
L 18.40625 64.59375 
L 9.421875 64.59375 
z
" id="BitstreamVeraSans-Roman-69"/>
      <path d="M 19.671875 64.796875 
L 19.671875 37.40625 
L 32.078125 37.40625 
Q 38.96875 37.40625 42.71875 40.96875 
Q 46.484375 44.53125 46.484375 51.125 
Q 46.484375 57.671875 42.71875 61.234375 
Q 38.96875 64.796875 32.078125 64.796875 
z
M 9.8125 72.90625 
L 32.078125 72.90625 
Q 44.34375 72.90625 50.609375 67.359375 
Q 56.890625 61.8125 56.890625 51.125 
Q 56.890625 40.328125 50.609375 34.8125 
Q 44.34375 29.296875 32.078125 29.296875 
L 19.671875 29.296875 
L 19.671875 0 
L 9.8125 0 
z
" id="BitstreamVeraSans-Roman-50"/>
      <path d="M 45.40625 46.390625 
L 45.40625 75.984375 
L 54.390625 75.984375 
L 54.390625 0 
L 45.40625 0 
L 45.40625 8.203125 
Q 42.578125 3.328125 38.25 0.953125 
Q 33.9375 -1.421875 27.875 -1.421875 
Q 17.96875 -1.421875 11.734375 6.484375 
Q 5.515625 14.40625 5.515625 27.296875 
Q 5.515625 40.1875 11.734375 48.09375 
Q 17.96875 56 27.875 56 
Q 33.9375 56 38.25 53.625 
Q 42.578125 51.265625 45.40625 46.390625 
M 14.796875 27.296875 
Q 14.796875 17.390625 18.875 11.75 
Q 22.953125 6.109375 30.078125 6.109375 
Q 37.203125 6.109375 41.296875 11.75 
Q 45.40625 17.390625 45.40625 27.296875 
Q 45.40625 37.203125 41.296875 42.84375 
Q 37.203125 48.484375 30.078125 48.484375 
Q 22.953125 48.484375 18.875 42.84375 
Q 14.796875 37.203125 14.796875 27.296875 
" id="BitstreamVeraSans-Roman-64"/>
      <path d="M 9.421875 75.984375 
L 18.40625 75.984375 
L 18.40625 0 
L 9.421875 0 
z
" id="BitstreamVeraSans-Roman-6c"/>
      <path d="M 9.078125 75.984375 
L 18.109375 75.984375 
L 18.109375 31.109375 
L 44.921875 54.6875 
L 56.390625 54.6875 
L 27.390625 29.109375 
L 57.625 0 
L 45.90625 0 
L 18.109375 26.703125 
L 18.109375 0 
L 9.078125 0 
z
" id="BitstreamVeraSans-Roman-6b"/>
      <path d="M 18.3125 70.21875 
L 18.3125 54.6875 
L 36.8125 54.6875 
L 36.8125 47.703125 
L 18.3125 47.703125 
L 18.3125 18.015625 
Q 18.3125 11.328125 20.140625 9.421875 
Q 21.96875 7.515625 27.59375 7.515625 
L 36.8125 7.515625 
L 36.8125 0 
L 27.59375 0 
Q 17.1875 0 13.234375 3.875 
Q 9.28125 7.765625 9.28125 18.015625 
L 9.28125 47.703125 
L 2.6875 47.703125 
L 2.6875 54.6875 
L 9.28125 54.6875 
L 9.28125 70.21875 
z
" id="BitstreamVeraSans-Roman-74"/>
      <path d="M 30.609375 48.390625 
Q 23.390625 48.390625 19.1875 42.75 
Q 14.984375 37.109375 14.984375 27.296875 
Q 14.984375 17.484375 19.15625 11.84375 
Q 23.34375 6.203125 30.609375 6.203125 
Q 37.796875 6.203125 41.984375 11.859375 
Q 46.1875 17.53125 46.1875 27.296875 
Q 46.1875 37.015625 41.984375 42.703125 
Q 37.796875 48.390625 30.609375 48.390625 
M 30.609375 56 
Q 42.328125 56 49.015625 48.375 
Q 55.71875 40.765625 55.71875 27.296875 
Q 55.71875 13.875 49.015625 6.21875 
Q 42.328125 -1.421875 30.609375 -1.421875 
Q 18.84375 -1.421875 12.171875 6.21875 
Q 5.515625 13.875 5.515625 27.296875 
Q 5.515625 40.765625 12.171875 48.375 
Q 18.84375 56 30.609375 56 
" id="BitstreamVeraSans-Roman-6f"/>
     </defs>
     <g transform="translate(249.7734375 299.398475)scale(0.12 -0.12)">
      <use xlink:href="#BitstreamVeraSans-Roman-50"/>
      <use x="60.255859375" xlink:href="#BitstreamVeraSans-Roman-65"/>
      <use x="121.779296875" xlink:href="#BitstreamVeraSans-Roman-61"/>
      <use x="183.05859375" xlink:href="#BitstreamVeraSans-Roman-6b"/>
      <use x="240.96875" xlink:href="#BitstreamVeraSans-Roman-20"/>
      <use x="272.755859375" xlink:href="#BitstreamVeraSans-Roman-64"/>
      <use x="336.232421875" xlink:href="#BitstreamVeraSans-Roman-65"/>
      <use x="397.755859375" xlink:href="#BitstreamVeraSans-Roman-70"/>
      <use x="461.232421875" xlink:href="#BitstreamVeraSans-Roman-6c"/>
      <use x="489.015625" xlink:href="#BitstreamVeraSans-Roman-65"/>
      <use x="550.5390625" xlink:href="#BitstreamVeraSans-Roman-74"/>
      <use x="589.748046875" xlink:href="#BitstreamVeraSans-Roman-69"/>
      <use x="617.53125" xlink:href="#BitstreamVeraSans-Roman-6f"/>
      <use x="678.712890625" xlink:href="#BitstreamVeraSans-Roman-6e"/>
      <use x="742.091796875" xlink:href="#BitstreamVeraSans-Roman-20"/>
      <use x="773.87890625" xlink:href="#BitstreamVeraSans-Roman-62"/>
      <use x="837.35546875" xlink:href="#BitstreamVeraSans-Roman-72"/>
      <use x="878.46875" xlink:href="#BitstreamVeraSans-Roman-69"/>
      <use x="906.251953125" xlink:href="#BitstreamVeraSans-Roman-67"/>
      <use x="969.728515625" xlink:href="#BitstreamVeraSans-Roman-68"/>
      <use x="1033.107421875" xlink:href="#BitstreamVeraSans-Roman-74"/>
      <use x="1072.31640625" xlink:href="#BitstreamVeraSans-Roman-6e"/>
      <use x="1135.6953125" xlink:href="#BitstreamVeraSans-Roman-65"/>
      <use x="1197.21875" xlink:href="#BitstreamVeraSans-Roman-73"/>
      <use x="1249.318359375" xlink:href="#BitstreamVeraSans-Roman-73"/>
      <use x="1301.41796875" xlink:href="#BitstreamVeraSans-Roman-20"/>
      <use x="1333.205078125" xlink:href="#BitstreamVeraSans-Roman-28"/>
      <use x="1372.21875" xlink:href="#BitstreamVeraSans-Roman-73"/>
      <use x="1424.318359375" xlink:href="#BitstreamVeraSans-Roman-61"/>
      <use x="1485.59765625" xlink:href="#BitstreamVeraSans-Roman-74"/>
      <use x="1524.806640625" xlink:href="#BitstreamVeraSans-Roman-75"/>
      <use x="1588.185546875" xlink:href="#BitstreamVeraSans-Roman-72"/>
      <use x="1629.298828125" xlink:href="#BitstreamVeraSans-Roman-61"/>
      <use x="1690.578125" xlink:href="#BitstreamVeraSans-Roman-74"/>
      <use x="1729.787109375" xlink:href="#BitstreamVeraSans-Roman-69"/>
      <use x="1757.5703125" xlink:href="#BitstreamVeraSans-Roman-6f"/>
      <use x="1818.751953125" xlink:href="#BitstreamVeraSans-Roman-6e"/>
      <use x="1882.130859375" xlink:href="#BitstreamVeraSans-Roman-20"/>
      <use x="1913.91796875" xlink:href="#BitstreamVeraSans-Roman-75"/>
      <use x="1977.296875" xlink:href="#BitstreamVeraSans-Roman-6e"/>
      <use x="2040.67578125" xlink:href="#BitstreamVeraSans-Roman-69"/>
      <use x="2068.458984375" xlink:href="#BitstreamVeraSans-Roman-74"/>
      <use x="2107.66796875" xlink:href="#BitstreamVeraSans-Roman-73"/>
      <use x="2159.767578125" xlink:href="#BitstreamVeraSans-Roman-29"/>
     </g>
    </g>
   </g>
   <g id="matplotlib.axis_2">
    <g id="ytick_1">
     <g id="line2d_30">
      <path clip-path="url(#pa9aff0bd78)" d="M 46.8975 269.6666 
L 716.4975 269.6666 
" style="fill:none;stroke:#000000;stroke-dasharray:1.000000,3.000000;stroke-dashoffset:0.0;stroke-width:0.5;"/>
     </g>
     <g id="line2d_31">
      <defs>
       <path d="M 0 0 
L 4 0 
" id="m4ac7ac6d7b" style="stroke:#000000;stroke-width:0.5;"/>
      </defs>
      <g>
       <use style="stroke:#000000;stroke-width:0.5;" x="46.8975" xlink:href="#m4ac7ac6d7b" y="269.6666"/>
      </g>
     </g>
     <g id="line2d_32">
      <defs>
       <path d="M 0 0 
L -4 0 
" id="m5b0992e70c" style="stroke:#000000;stroke-width:0.5;"/>
      </defs>
      <g>
       <use style="stroke:#000000;stroke-width:0.5;" x="716.4975" xlink:href="#m5b0992e70c" y="269.6666"/>
      </g>
     </g>
     <g id="text_11">
      <!-- 1.0 -->
      <defs>
       <path d="M 10.6875 12.40625 
L 21 12.40625 
L 21 0 
L 10.6875 0 
z
" id="BitstreamVeraSans-Roman-2e"/>
      </defs>
      <g transform="translate(23.81375 272.97785)scale(0.12 -0.12)">
       <use xlink:href="#BitstreamVeraSans-Roman-31"/>
       <use x="63.623046875" xlink:href="#BitstreamVeraSans-Roman-2e"/>
       <use x="95.41015625" xlink:href="#BitstreamVeraSans-Roman-30"/>
      </g>
     </g>
    </g>
    <g id="ytick_2">
     <g id="line2d_33">
      <path clip-path="url(#pa9aff0bd78)" d="M 46.8975 236.752314 
L 716.4975 236.752314 
" style="fill:none;stroke:#000000;stroke-dasharray:1.000000,3.000000;stroke-dashoffset:0.0;stroke-width:0.5;"/>
     </g>
     <g id="line2d_34">
      <g>
       <use style="stroke:#000000;stroke-width:0.5;" x="46.8975" xlink:href="#m4ac7ac6d7b" y="236.752314286"/>
      </g>
     </g>
     <g id="line2d_35">
      <g>
       <use style="stroke:#000000;stroke-width:0.5;" x="716.4975" xlink:href="#m5b0992e70c" y="236.752314286"/>
      </g>
     </g>
     <g id="text_12">
      <!-- 1.5 -->
      <defs>
       <path d="M 10.796875 72.90625 
L 49.515625 72.90625 
L 49.515625 64.59375 
L 19.828125 64.59375 
L 19.828125 46.734375 
Q 21.96875 47.46875 24.109375 47.828125 
Q 26.265625 48.1875 28.421875 48.1875 
Q 40.625 48.1875 47.75 41.5 
Q 54.890625 34.8125 54.890625 23.390625 
Q 54.890625 11.625 47.5625 5.09375 
Q 40.234375 -1.421875 26.90625 -1.421875 
Q 22.3125 -1.421875 17.546875 -0.640625 
Q 12.796875 0.140625 7.71875 1.703125 
L 7.71875 11.625 
Q 12.109375 9.234375 16.796875 8.0625 
Q 21.484375 6.890625 26.703125 6.890625 
Q 35.15625 6.890625 40.078125 11.328125 
Q 45.015625 15.765625 45.015625 23.390625 
Q 45.015625 31 40.078125 35.4375 
Q 35.15625 39.890625 26.703125 39.890625 
Q 22.75 39.890625 18.8125 39.015625 
Q 14.890625 38.140625 10.796875 36.28125 
z
" id="BitstreamVeraSans-Roman-35"/>
      </defs>
      <g transform="translate(23.81375 240.063564286)scale(0.12 -0.12)">
       <use xlink:href="#BitstreamVeraSans-Roman-31"/>
       <use x="63.623046875" xlink:href="#BitstreamVeraSans-Roman-2e"/>
       <use x="95.41015625" xlink:href="#BitstreamVeraSans-Roman-35"/>
      </g>
     </g>
    </g>
    <g id="ytick_3">
     <g id="line2d_36">
      <path clip-path="url(#pa9aff0bd78)" d="M 46.8975 203.838029 
L 716.4975 203.838029 
" style="fill:none;stroke:#000000;stroke-dasharray:1.000000,3.000000;stroke-dashoffset:0.0;stroke-width:0.5;"/>
     </g>
     <g id="line2d_37">
      <g>
       <use style="stroke:#000000;stroke-width:0.5;" x="46.8975" xlink:href="#m4ac7ac6d7b" y="203.838028571"/>
      </g>
     </g>
     <g id="line2d_38">
      <g>
       <use style="stroke:#000000;stroke-width:0.5;" x="716.4975" xlink:href="#m5b0992e70c" y="203.838028571"/>
      </g>
     </g>
     <g id="text_13">
      <!-- 2.0 -->
      <g transform="translate(23.81375 207.149278571)scale(0.12 -0.12)">
       <use xlink:href="#BitstreamVeraSans-Roman-32"/>
       <use x="63.623046875" xlink:href="#BitstreamVeraSans-Roman-2e"/>
       <use x="95.41015625" xlink:href="#BitstreamVeraSans-Roman-30"/>
      </g>
     </g>
    </g>
    <g id="ytick_4">
     <g id="line2d_39">
      <path clip-path="url(#pa9aff0bd78)" d="M 46.8975 170.923743 
L 716.4975 170.923743 
" style="fill:none;stroke:#000000;stroke-dasharray:1.000000,3.000000;stroke-dashoffset:0.0;stroke-width:0.5;"/>
     </g>
     <g id="line2d_40">
      <g>
       <use style="stroke:#000000;stroke-width:0.5;" x="46.8975" xlink:href="#m4ac7ac6d7b" y="170.923742857"/>
      </g>
     </g>
     <g id="line2d_41">
      <g>
       <use style="stroke:#000000;stroke-width:0.5;" x="716.4975" xlink:href="#m5b0992e70c" y="170.923742857"/>
      </g>
     </g>
     <g id="text_14">
      <!-- 2.5 -->
      <g transform="translate(23.81375 174.234992857)scale(0.12 -0.12)">
       <use xlink:href="#BitstreamVeraSans-Roman-32"/>
       <use x="63.623046875" xlink:href="#BitstreamVeraSans-Roman-2e"/>
       <use x="95.41015625" xlink:href="#BitstreamVeraSans-Roman-35"/>
      </g>
     </g>
    </g>
    <g id="ytick_5">
     <g id="line2d_42">
      <path clip-path="url(#pa9aff0bd78)" d="M 46.8975 138.009457 
L 716.4975 138.009457 
" style="fill:none;stroke:#000000;stroke-dasharray:1.000000,3.000000;stroke-dashoffset:0.0;stroke-width:0.5;"/>
     </g>
     <g id="line2d_43">
      <g>
       <use style="stroke:#000000;stroke-width:0.5;" x="46.8975" xlink:href="#m4ac7ac6d7b" y="138.009457143"/>
      </g>
     </g>
     <g id="line2d_44">
      <g>
       <use style="stroke:#000000;stroke-width:0.5;" x="716.4975" xlink:href="#m5b0992e70c" y="138.009457143"/>
      </g>
     </g>
     <g id="text_15">
      <!-- 3.0 -->
      <defs>
       <path d="M 40.578125 39.3125 
Q 47.65625 37.796875 51.625 33 
Q 55.609375 28.21875 55.609375 21.1875 
Q 55.609375 10.40625 48.1875 4.484375 
Q 40.765625 -1.421875 27.09375 -1.421875 
Q 22.515625 -1.421875 17.65625 -0.515625 
Q 12.796875 0.390625 7.625 2.203125 
L 7.625 11.71875 
Q 11.71875 9.328125 16.59375 8.109375 
Q 21.484375 6.890625 26.8125 6.890625 
Q 36.078125 6.890625 40.9375 10.546875 
Q 45.796875 14.203125 45.796875 21.1875 
Q 45.796875 27.640625 41.28125 31.265625 
Q 36.765625 34.90625 28.71875 34.90625 
L 20.21875 34.90625 
L 20.21875 43.015625 
L 29.109375 43.015625 
Q 36.375 43.015625 40.234375 45.921875 
Q 44.09375 48.828125 44.09375 54.296875 
Q 44.09375 59.90625 40.109375 62.90625 
Q 36.140625 65.921875 28.71875 65.921875 
Q 24.65625 65.921875 20.015625 65.03125 
Q 15.375 64.15625 9.8125 62.3125 
L 9.8125 71.09375 
Q 15.4375 72.65625 20.34375 73.4375 
Q 25.25 74.21875 29.59375 74.21875 
Q 40.828125 74.21875 47.359375 69.109375 
Q 53.90625 64.015625 53.90625 55.328125 
Q 53.90625 49.265625 50.4375 45.09375 
Q 46.96875 40.921875 40.578125 39.3125 
" id="BitstreamVeraSans-Roman-33"/>
      </defs>
      <g transform="translate(23.81375 141.320707143)scale(0.12 -0.12)">
       <use xlink:href="#BitstreamVeraSans-Roman-33"/>
       <use x="63.623046875" xlink:href="#BitstreamVeraSans-Roman-2e"/>
       <use x="95.41015625" xlink:href="#BitstreamVeraSans-Roman-30"/>
      </g>
     </g>
    </g>
    <g id="ytick_6">
     <g id="line2d_45">
      <path clip-path="url(#pa9aff0bd78)" d="M 46.8975 105.095171 
L 716.4975 105.095171 
" style="fill:none;stroke:#000000;stroke-dasharray:1.000000,3.000000;stroke-dashoffset:0.0;stroke-width:0.5;"/>
     </g>
     <g id="line2d_46">
      <g>
       <use style="stroke:#000000;stroke-width:0.5;" x="46.8975" xlink:href="#m4ac7ac6d7b" y="105.095171429"/>
      </g>
     </g>
     <g id="line2d_47">
      <g>
       <use style="stroke:#000000;stroke-width:0.5;" x="716.4975" xlink:href="#m5b0992e70c" y="105.095171429"/>
      </g>
     </g>
     <g id="text_16">
      <!-- 3.5 -->
      <g transform="translate(23.81375 108.406421429)scale(0.12 -0.12)">
       <use xlink:href="#BitstreamVeraSans-Roman-33"/>
       <use x="63.623046875" xlink:href="#BitstreamVeraSans-Roman-2e"/>
       <use x="95.41015625" xlink:href="#BitstreamVeraSans-Roman-35"/>
      </g>
     </g>
    </g>
    <g id="ytick_7">
     <g id="line2d_48">
      <path clip-path="url(#pa9aff0bd78)" d="M 46.8975 72.180886 
L 716.4975 72.180886 
" style="fill:none;stroke:#000000;stroke-dasharray:1.000000,3.000000;stroke-dashoffset:0.0;stroke-width:0.5;"/>
     </g>
     <g id="line2d_49">
      <g>
       <use style="stroke:#000000;stroke-width:0.5;" x="46.8975" xlink:href="#m4ac7ac6d7b" y="72.1808857143"/>
      </g>
     </g>
     <g id="line2d_50">
      <g>
       <use style="stroke:#000000;stroke-width:0.5;" x="716.4975" xlink:href="#m5b0992e70c" y="72.1808857143"/>
      </g>
     </g>
     <g id="text_17">
      <!-- 4.0 -->
      <g transform="translate(23.81375 75.4921357143)scale(0.12 -0.12)">
       <use xlink:href="#BitstreamVeraSans-Roman-34"/>
       <use x="63.623046875" xlink:href="#BitstreamVeraSans-Roman-2e"/>
       <use x="95.41015625" xlink:href="#BitstreamVeraSans-Roman-30"/>
      </g>
     </g>
    </g>
    <g id="ytick_8">
     <g id="line2d_51">
      <path clip-path="url(#pa9aff0bd78)" d="M 46.8975 39.2666 
L 716.4975 39.2666 
" style="fill:none;stroke:#000000;stroke-dasharray:1.000000,3.000000;stroke-dashoffset:0.0;stroke-width:0.5;"/>
     </g>
     <g id="line2d_52">
      <g>
       <use style="stroke:#000000;stroke-width:0.5;" x="46.8975" xlink:href="#m4ac7ac6d7b" y="39.2666"/>
      </g>
     </g>
     <g id="line2d_53">
      <g>
       <use style="stroke:#000000;stroke-width:0.5;" x="716.4975" xlink:href="#m5b0992e70c" y="39.2666"/>
      </g>
     </g>
     <g id="text_18">
      <!-- 4.5 -->
      <g transform="translate(23.81375 42.57785)scale(0.12 -0.12)">
       <use xlink:href="#BitstreamVeraSans-Roman-34"/>
       <use x="63.623046875" xlink:href="#BitstreamVeraSans-Roman-2e"/>
       <use x="95.41015625" xlink:href="#BitstreamVeraSans-Roman-35"/>
      </g>
     </g>
    </g>
    <g id="text_19">
     <!-- Resolution improvement (vs. diffraction limit) -->
     <defs>
      <path d="M 37.109375 75.984375 
L 37.109375 68.5 
L 28.515625 68.5 
Q 23.6875 68.5 21.796875 66.546875 
Q 19.921875 64.59375 19.921875 59.515625 
L 19.921875 54.6875 
L 34.71875 54.6875 
L 34.71875 47.703125 
L 19.921875 47.703125 
L 19.921875 0 
L 10.890625 0 
L 10.890625 47.703125 
L 2.296875 47.703125 
L 2.296875 54.6875 
L 10.890625 54.6875 
L 10.890625 58.5 
Q 10.890625 67.625 15.140625 71.796875 
Q 19.390625 75.984375 28.609375 75.984375 
z
" id="BitstreamVeraSans-Roman-66"/>
      <path d="M 52 44.1875 
Q 55.375 50.25 60.0625 53.125 
Q 64.75 56 71.09375 56 
Q 79.640625 56 84.28125 50.015625 
Q 88.921875 44.046875 88.921875 33.015625 
L 88.921875 0 
L 79.890625 0 
L 79.890625 32.71875 
Q 79.890625 40.578125 77.09375 44.375 
Q 74.3125 48.1875 68.609375 48.1875 
Q 61.625 48.1875 57.5625 43.546875 
Q 53.515625 38.921875 53.515625 30.90625 
L 53.515625 0 
L 44.484375 0 
L 44.484375 32.71875 
Q 44.484375 40.625 41.703125 44.40625 
Q 38.921875 48.1875 33.109375 48.1875 
Q 26.21875 48.1875 22.15625 43.53125 
Q 18.109375 38.875 18.109375 30.90625 
L 18.109375 0 
L 9.078125 0 
L 9.078125 54.6875 
L 18.109375 54.6875 
L 18.109375 46.1875 
Q 21.1875 51.21875 25.484375 53.609375 
Q 29.78125 56 35.6875 56 
Q 41.65625 56 45.828125 52.96875 
Q 50 49.953125 52 44.1875 
" id="BitstreamVeraSans-Roman-6d"/>
      <path d="M 2.984375 54.6875 
L 12.5 54.6875 
L 29.59375 8.796875 
L 46.6875 54.6875 
L 56.203125 54.6875 
L 35.6875 0 
L 23.484375 0 
z
" id="BitstreamVeraSans-Roman-76"/>
      <path d="M 48.78125 52.59375 
L 48.78125 44.1875 
Q 44.96875 46.296875 41.140625 47.34375 
Q 37.3125 48.390625 33.40625 48.390625 
Q 24.65625 48.390625 19.8125 42.84375 
Q 14.984375 37.3125 14.984375 27.296875 
Q 14.984375 17.28125 19.8125 11.734375 
Q 24.65625 6.203125 33.40625 6.203125 
Q 37.3125 6.203125 41.140625 7.25 
Q 44.96875 8.296875 48.78125 10.40625 
L 48.78125 2.09375 
Q 45.015625 0.34375 40.984375 -0.53125 
Q 36.96875 -1.421875 32.421875 -1.421875 
Q 20.0625 -1.421875 12.78125 6.34375 
Q 5.515625 14.109375 5.515625 27.296875 
Q 5.515625 40.671875 12.859375 48.328125 
Q 20.21875 56 33.015625 56 
Q 37.15625 56 41.109375 55.140625 
Q 45.0625 54.296875 48.78125 52.59375 
" id="BitstreamVeraSans-Roman-63"/>
      <path d="M 44.390625 34.1875 
Q 47.5625 33.109375 50.5625 29.59375 
Q 53.5625 26.078125 56.59375 19.921875 
L 66.609375 0 
L 56 0 
L 46.6875 18.703125 
Q 43.0625 26.03125 39.671875 28.421875 
Q 36.28125 30.8125 30.421875 30.8125 
L 19.671875 30.8125 
L 19.671875 0 
L 9.8125 0 
L 9.8125 72.90625 
L 32.078125 72.90625 
Q 44.578125 72.90625 50.734375 67.671875 
Q 56.890625 62.453125 56.890625 51.90625 
Q 56.890625 45.015625 53.6875 40.46875 
Q 50.484375 35.9375 44.390625 34.1875 
M 19.671875 64.796875 
L 19.671875 38.921875 
L 32.078125 38.921875 
Q 39.203125 38.921875 42.84375 42.21875 
Q 46.484375 45.515625 46.484375 51.90625 
Q 46.484375 58.296875 42.84375 61.546875 
Q 39.203125 64.796875 32.078125 64.796875 
z
" id="BitstreamVeraSans-Roman-52"/>
     </defs>
     <g transform="translate(16.318125 291.1991)rotate(-90.0)scale(0.12 -0.12)">
      <use xlink:href="#BitstreamVeraSans-Roman-52"/>
      <use x="69.419921875" xlink:href="#BitstreamVeraSans-Roman-65"/>
      <use x="130.943359375" xlink:href="#BitstreamVeraSans-Roman-73"/>
      <use x="183.04296875" xlink:href="#BitstreamVeraSans-Roman-6f"/>
      <use x="244.224609375" xlink:href="#BitstreamVeraSans-Roman-6c"/>
      <use x="272.0078125" xlink:href="#BitstreamVeraSans-Roman-75"/>
      <use x="335.38671875" xlink:href="#BitstreamVeraSans-Roman-74"/>
      <use x="374.595703125" xlink:href="#BitstreamVeraSans-Roman-69"/>
      <use x="402.37890625" xlink:href="#BitstreamVeraSans-Roman-6f"/>
      <use x="463.560546875" xlink:href="#BitstreamVeraSans-Roman-6e"/>
      <use x="526.939453125" xlink:href="#BitstreamVeraSans-Roman-20"/>
      <use x="558.7265625" xlink:href="#BitstreamVeraSans-Roman-69"/>
      <use x="586.509765625" xlink:href="#BitstreamVeraSans-Roman-6d"/>
      <use x="683.921875" xlink:href="#BitstreamVeraSans-Roman-70"/>
      <use x="747.3984375" xlink:href="#BitstreamVeraSans-Roman-72"/>
      <use x="788.48046875" xlink:href="#BitstreamVeraSans-Roman-6f"/>
      <use x="849.662109375" xlink:href="#BitstreamVeraSans-Roman-76"/>
      <use x="908.841796875" xlink:href="#BitstreamVeraSans-Roman-65"/>
      <use x="970.365234375" xlink:href="#BitstreamVeraSans-Roman-6d"/>
      <use x="1067.77734375" xlink:href="#BitstreamVeraSans-Roman-65"/>
      <use x="1129.30078125" xlink:href="#BitstreamVeraSans-Roman-6e"/>
      <use x="1192.6796875" xlink:href="#BitstreamVeraSans-Roman-74"/>
      <use x="1231.888671875" xlink:href="#BitstreamVeraSans-Roman-20"/>
      <use x="1263.67578125" xlink:href="#BitstreamVeraSans-Roman-28"/>
      <use x="1302.689453125" xlink:href="#BitstreamVeraSans-Roman-76"/>
      <use x="1361.869140625" xlink:href="#BitstreamVeraSans-Roman-73"/>
      <use x="1413.96875" xlink:href="#BitstreamVeraSans-Roman-2e"/>
      <use x="1445.755859375" xlink:href="#BitstreamVeraSans-Roman-20"/>
      <use x="1477.54296875" xlink:href="#BitstreamVeraSans-Roman-64"/>
      <use x="1541.01953125" xlink:href="#BitstreamVeraSans-Roman-69"/>
      <use x="1568.802734375" xlink:href="#BitstreamVeraSans-Roman-66"/>
      <use x="1604.0078125" xlink:href="#BitstreamVeraSans-Roman-66"/>
      <use x="1639.212890625" xlink:href="#BitstreamVeraSans-Roman-72"/>
      <use x="1680.326171875" xlink:href="#BitstreamVeraSans-Roman-61"/>
      <use x="1741.60546875" xlink:href="#BitstreamVeraSans-Roman-63"/>
      <use x="1796.5859375" xlink:href="#BitstreamVeraSans-Roman-74"/>
      <use x="1835.794921875" xlink:href="#BitstreamVeraSans-Roman-69"/>
      <use x="1863.578125" xlink:href="#BitstreamVeraSans-Roman-6f"/>
      <use x="1924.759765625" xlink:href="#BitstreamVeraSans-Roman-6e"/>
      <use x="1988.138671875" xlink:href="#BitstreamVeraSans-Roman-20"/>
      <use x="2019.92578125" xlink:href="#BitstreamVeraSans-Roman-6c"/>
      <use x="2047.708984375" xlink:href="#BitstreamVeraSans-Roman-69"/>
      <use x="2075.4921875" xlink:href="#BitstreamVeraSans-Roman-6d"/>
      <use x="2172.904296875" xlink:href="#BitstreamVeraSans-Roman-69"/>
      <use x="2200.6875" xlink:href="#BitstreamVeraSans-Roman-74"/>
      <use x="2239.896484375" xlink:href="#BitstreamVeraSans-Roman-29"/>
     </g>
    </g>
   </g>
   <g id="text_20">
    <!-- Resolution improvement vs. depletion brightness -->
    <g transform="translate(204.06 18.14175)scale(0.144 -0.144)">
     <use xlink:href="#BitstreamVeraSans-Roman-52"/>
     <use x="69.419921875" xlink:href="#BitstreamVeraSans-Roman-65"/>
     <use x="130.943359375" xlink:href="#BitstreamVeraSans-Roman-73"/>
     <use x="183.04296875" xlink:href="#BitstreamVeraSans-Roman-6f"/>
     <use x="244.224609375" xlink:href="#BitstreamVeraSans-Roman-6c"/>
     <use x="272.0078125" xlink:href="#BitstreamVeraSans-Roman-75"/>
     <use x="335.38671875" xlink:href="#BitstreamVeraSans-Roman-74"/>
     <use x="374.595703125" xlink:href="#BitstreamVeraSans-Roman-69"/>
     <use x="402.37890625" xlink:href="#BitstreamVeraSans-Roman-6f"/>
     <use x="463.560546875" xlink:href="#BitstreamVeraSans-Roman-6e"/>
     <use x="526.939453125" xlink:href="#BitstreamVeraSans-Roman-20"/>
     <use x="558.7265625" xlink:href="#BitstreamVeraSans-Roman-69"/>
     <use x="586.509765625" xlink:href="#BitstreamVeraSans-Roman-6d"/>
     <use x="683.921875" xlink:href="#BitstreamVeraSans-Roman-70"/>
     <use x="747.3984375" xlink:href="#BitstreamVeraSans-Roman-72"/>
     <use x="788.48046875" xlink:href="#BitstreamVeraSans-Roman-6f"/>
     <use x="849.662109375" xlink:href="#BitstreamVeraSans-Roman-76"/>
     <use x="908.841796875" xlink:href="#BitstreamVeraSans-Roman-65"/>
     <use x="970.365234375" xlink:href="#BitstreamVeraSans-Roman-6d"/>
     <use x="1067.77734375" xlink:href="#BitstreamVeraSans-Roman-65"/>
     <use x="1129.30078125" xlink:href="#BitstreamVeraSans-Roman-6e"/>
     <use x="1192.6796875" xlink:href="#BitstreamVeraSans-Roman-74"/>
     <use x="1231.888671875" xlink:href="#BitstreamVeraSans-Roman-20"/>
     <use x="1263.67578125" xlink:href="#BitstreamVeraSans-Roman-76"/>
     <use x="1322.85546875" xlink:href="#BitstreamVeraSans-Roman-73"/>
     <use x="1374.955078125" xlink:href="#BitstreamVeraSans-Roman-2e"/>
     <use x="1406.7421875" xlink:href="#BitstreamVeraSans-Roman-20"/>
     <use x="1438.529296875" xlink:href="#BitstreamVeraSans-Roman-64"/>
     <use x="1502.005859375" xlink:href="#BitstreamVeraSans-Roman-65"/>
     <use x="1563.529296875" xlink:href="#BitstreamVeraSans-Roman-70"/>
     <use x="1627.005859375" xlink:href="#BitstreamVeraSans-Roman-6c"/>
     <use x="1654.7890625" xlink:href="#BitstreamVeraSans-Roman-65"/>
     <use x="1716.3125" xlink:href="#BitstreamVeraSans-Roman-74"/>
     <use x="1755.521484375" xlink:href="#BitstreamVeraSans-Roman-69"/>
     <use x="1783.3046875" xlink:href="#BitstreamVeraSans-Roman-6f"/>
     <use x="1844.486328125" xlink:href="#BitstreamVeraSans-Roman-6e"/>
     <use x="1907.865234375" xlink:href="#BitstreamVeraSans-Roman-20"/>
     <use x="1939.65234375" xlink:href="#BitstreamVeraSans-Roman-62"/>
     <use x="2003.12890625" xlink:href="#BitstreamVeraSans-Roman-72"/>
     <use x="2044.2421875" xlink:href="#BitstreamVeraSans-Roman-69"/>
     <use x="2072.025390625" xlink:href="#BitstreamVeraSans-Roman-67"/>
     <use x="2135.501953125" xlink:href="#BitstreamVeraSans-Roman-68"/>
     <use x="2198.880859375" xlink:href="#BitstreamVeraSans-Roman-74"/>
     <use x="2238.08984375" xlink:href="#BitstreamVeraSans-Roman-6e"/>
     <use x="2301.46875" xlink:href="#BitstreamVeraSans-Roman-65"/>
     <use x="2362.9921875" xlink:href="#BitstreamVeraSans-Roman-73"/>
     <use x="2415.091796875" xlink:href="#BitstreamVeraSans-Roman-73"/>
    </g>
    <!-- for fixed step size and fixed excitation brightness -->
    <defs>
     <path d="M 5.515625 54.6875 
L 48.1875 54.6875 
L 48.1875 46.484375 
L 14.40625 7.171875 
L 48.1875 7.171875 
L 48.1875 0 
L 4.296875 0 
L 4.296875 8.203125 
L 38.09375 47.515625 
L 5.515625 47.515625 
z
" id="BitstreamVeraSans-Roman-7a"/>
     <path d="M 54.890625 54.6875 
L 35.109375 28.078125 
L 55.90625 0 
L 45.3125 0 
L 29.390625 21.484375 
L 13.484375 0 
L 2.875 0 
L 24.125 28.609375 
L 4.6875 54.6875 
L 15.28125 54.6875 
L 29.78125 35.203125 
L 44.28125 54.6875 
z
" id="BitstreamVeraSans-Roman-78"/>
    </defs>
    <g transform="translate(203.453625 34.2666)scale(0.144 -0.144)">
     <use xlink:href="#BitstreamVeraSans-Roman-66"/>
     <use x="35.205078125" xlink:href="#BitstreamVeraSans-Roman-6f"/>
     <use x="96.38671875" xlink:href="#BitstreamVeraSans-Roman-72"/>
     <use x="137.5" xlink:href="#BitstreamVeraSans-Roman-20"/>
     <use x="169.287109375" xlink:href="#BitstreamVeraSans-Roman-66"/>
     <use x="204.4921875" xlink:href="#BitstreamVeraSans-Roman-69"/>
     <use x="232.275390625" xlink:href="#BitstreamVeraSans-Roman-78"/>
     <use x="291.408203125" xlink:href="#BitstreamVeraSans-Roman-65"/>
     <use x="352.931640625" xlink:href="#BitstreamVeraSans-Roman-64"/>
     <use x="416.408203125" xlink:href="#BitstreamVeraSans-Roman-20"/>
     <use x="448.1953125" xlink:href="#BitstreamVeraSans-Roman-73"/>
     <use x="500.294921875" xlink:href="#BitstreamVeraSans-Roman-74"/>
     <use x="539.50390625" xlink:href="#BitstreamVeraSans-Roman-65"/>
     <use x="601.02734375" xlink:href="#BitstreamVeraSans-Roman-70"/>
     <use x="664.50390625" xlink:href="#BitstreamVeraSans-Roman-20"/>
     <use x="696.291015625" xlink:href="#BitstreamVeraSans-Roman-73"/>
     <use x="748.390625" xlink:href="#BitstreamVeraSans-Roman-69"/>
     <use x="776.173828125" xlink:href="#BitstreamVeraSans-Roman-7a"/>
     <use x="828.6640625" xlink:href="#BitstreamVeraSans-Roman-65"/>
     <use x="890.1875" xlink:href="#BitstreamVeraSans-Roman-20"/>
     <use x="921.974609375" xlink:href="#BitstreamVeraSans-Roman-61"/>
     <use x="983.25390625" xlink:href="#BitstreamVeraSans-Roman-6e"/>
     <use x="1046.6328125" xlink:href="#BitstreamVeraSans-Roman-64"/>
     <use x="1110.109375" xlink:href="#BitstreamVeraSans-Roman-20"/>
     <use x="1141.896484375" xlink:href="#BitstreamVeraSans-Roman-66"/>
     <use x="1177.1015625" xlink:href="#BitstreamVeraSans-Roman-69"/>
     <use x="1204.884765625" xlink:href="#BitstreamVeraSans-Roman-78"/>
     <use x="1264.017578125" xlink:href="#BitstreamVeraSans-Roman-65"/>
     <use x="1325.541015625" xlink:href="#BitstreamVeraSans-Roman-64"/>
     <use x="1389.017578125" xlink:href="#BitstreamVeraSans-Roman-20"/>
     <use x="1420.8046875" xlink:href="#BitstreamVeraSans-Roman-65"/>
     <use x="1482.3125" xlink:href="#BitstreamVeraSans-Roman-78"/>
     <use x="1541.4765625" xlink:href="#BitstreamVeraSans-Roman-63"/>
     <use x="1596.45703125" xlink:href="#BitstreamVeraSans-Roman-69"/>
     <use x="1624.240234375" xlink:href="#BitstreamVeraSans-Roman-74"/>
     <use x="1663.44921875" xlink:href="#BitstreamVeraSans-Roman-61"/>
     <use x="1724.728515625" xlink:href="#BitstreamVeraSans-Roman-74"/>
     <use x="1763.9375" xlink:href="#BitstreamVeraSans-Roman-69"/>
     <use x="1791.720703125" xlink:href="#BitstreamVeraSans-Roman-6f"/>
     <use x="1852.90234375" xlink:href="#BitstreamVeraSans-Roman-6e"/>
     <use x="1916.28125" xlink:href="#BitstreamVeraSans-Roman-20"/>
     <use x="1948.068359375" xlink:href="#BitstreamVeraSans-Roman-62"/>
     <use x="2011.544921875" xlink:href="#BitstreamVeraSans-Roman-72"/>
     <use x="2052.658203125" xlink:href="#BitstreamVeraSans-Roman-69"/>
     <use x="2080.44140625" xlink:href="#BitstreamVeraSans-Roman-67"/>
     <use x="2143.91796875" xlink:href="#BitstreamVeraSans-Roman-68"/>
     <use x="2207.296875" xlink:href="#BitstreamVeraSans-Roman-74"/>
     <use x="2246.505859375" xlink:href="#BitstreamVeraSans-Roman-6e"/>
     <use x="2309.884765625" xlink:href="#BitstreamVeraSans-Roman-65"/>
     <use x="2371.408203125" xlink:href="#BitstreamVeraSans-Roman-73"/>
     <use x="2423.5078125" xlink:href="#BitstreamVeraSans-Roman-73"/>
    </g>
   </g>
   <g id="legend_1">
    <g id="patch_7">
     <path d="M 493.0095 262.4666 
L 709.2975 262.4666 
L 709.2975 215.8736 
L 493.0095 215.8736 
z
" style="fill:#ffffff;stroke:#000000;stroke-linejoin:miter;"/>
    </g>
    <g id="line2d_54"/>
    <g id="line2d_55">
     <g>
      <use style="fill:#0000ff;stroke:#0000ff;stroke-width:0.5;" x="503.0895" xlink:href="#m7a43860e26" y="227.53535"/>
      <use style="fill:#0000ff;stroke:#0000ff;stroke-width:0.5;" x="523.2495" xlink:href="#m7a43860e26" y="227.53535"/>
     </g>
    </g>
    <g id="text_21">
     <!-- Descanned point STED -->
     <defs>
      <path d="M 53.515625 70.515625 
L 53.515625 60.890625 
Q 47.90625 63.578125 42.921875 64.890625 
Q 37.9375 66.21875 33.296875 66.21875 
Q 25.25 66.21875 20.875 63.09375 
Q 16.5 59.96875 16.5 54.203125 
Q 16.5 49.359375 19.40625 46.890625 
Q 22.3125 44.4375 30.421875 42.921875 
L 36.375 41.703125 
Q 47.40625 39.59375 52.65625 34.296875 
Q 57.90625 29 57.90625 20.125 
Q 57.90625 9.515625 50.796875 4.046875 
Q 43.703125 -1.421875 29.984375 -1.421875 
Q 24.8125 -1.421875 18.96875 -0.25 
Q 13.140625 0.921875 6.890625 3.21875 
L 6.890625 13.375 
Q 12.890625 10.015625 18.65625 8.296875 
Q 24.421875 6.59375 29.984375 6.59375 
Q 38.421875 6.59375 43.015625 9.90625 
Q 47.609375 13.234375 47.609375 19.390625 
Q 47.609375 24.75 44.3125 27.78125 
Q 41.015625 30.8125 33.5 32.328125 
L 27.484375 33.5 
Q 16.453125 35.6875 11.515625 40.375 
Q 6.59375 45.0625 6.59375 53.421875 
Q 6.59375 63.09375 13.40625 68.65625 
Q 20.21875 74.21875 32.171875 74.21875 
Q 37.3125 74.21875 42.625 73.28125 
Q 47.953125 72.359375 53.515625 70.515625 
" id="BitstreamVeraSans-Roman-53"/>
      <path d="M 9.8125 72.90625 
L 55.90625 72.90625 
L 55.90625 64.59375 
L 19.671875 64.59375 
L 19.671875 43.015625 
L 54.390625 43.015625 
L 54.390625 34.71875 
L 19.671875 34.71875 
L 19.671875 8.296875 
L 56.78125 8.296875 
L 56.78125 0 
L 9.8125 0 
z
" id="BitstreamVeraSans-Roman-45"/>
      <path d="M 19.671875 64.796875 
L 19.671875 8.109375 
L 31.59375 8.109375 
Q 46.6875 8.109375 53.6875 14.9375 
Q 60.6875 21.78125 60.6875 36.53125 
Q 60.6875 51.171875 53.6875 57.984375 
Q 46.6875 64.796875 31.59375 64.796875 
z
M 9.8125 72.90625 
L 30.078125 72.90625 
Q 51.265625 72.90625 61.171875 64.09375 
Q 71.09375 55.28125 71.09375 36.53125 
Q 71.09375 17.671875 61.125 8.828125 
Q 51.171875 0 30.078125 0 
L 9.8125 0 
z
" id="BitstreamVeraSans-Roman-44"/>
      <path d="M -0.296875 72.90625 
L 61.375 72.90625 
L 61.375 64.59375 
L 35.5 64.59375 
L 35.5 0 
L 25.59375 0 
L 25.59375 64.59375 
L -0.296875 64.59375 
z
" id="BitstreamVeraSans-Roman-54"/>
     </defs>
     <g transform="translate(539.0895 232.57535)scale(0.144 -0.144)">
      <use xlink:href="#BitstreamVeraSans-Roman-44"/>
      <use x="77.001953125" xlink:href="#BitstreamVeraSans-Roman-65"/>
      <use x="138.525390625" xlink:href="#BitstreamVeraSans-Roman-73"/>
      <use x="190.625" xlink:href="#BitstreamVeraSans-Roman-63"/>
      <use x="245.60546875" xlink:href="#BitstreamVeraSans-Roman-61"/>
      <use x="306.884765625" xlink:href="#BitstreamVeraSans-Roman-6e"/>
      <use x="370.263671875" xlink:href="#BitstreamVeraSans-Roman-6e"/>
      <use x="433.642578125" xlink:href="#BitstreamVeraSans-Roman-65"/>
      <use x="495.166015625" xlink:href="#BitstreamVeraSans-Roman-64"/>
      <use x="558.642578125" xlink:href="#BitstreamVeraSans-Roman-20"/>
      <use x="590.4296875" xlink:href="#BitstreamVeraSans-Roman-70"/>
      <use x="653.90625" xlink:href="#BitstreamVeraSans-Roman-6f"/>
      <use x="715.087890625" xlink:href="#BitstreamVeraSans-Roman-69"/>
      <use x="742.87109375" xlink:href="#BitstreamVeraSans-Roman-6e"/>
      <use x="806.25" xlink:href="#BitstreamVeraSans-Roman-74"/>
      <use x="845.458984375" xlink:href="#BitstreamVeraSans-Roman-20"/>
      <use x="877.24609375" xlink:href="#BitstreamVeraSans-Roman-53"/>
      <use x="940.72265625" xlink:href="#BitstreamVeraSans-Roman-54"/>
      <use x="1001.806640625" xlink:href="#BitstreamVeraSans-Roman-45"/>
      <use x="1064.990234375" xlink:href="#BitstreamVeraSans-Roman-44"/>
     </g>
    </g>
    <g id="line2d_56">
     <path d="M 503.0895 248.67185 
L 523.2495 248.67185 
" style="fill:none;stroke:#008000;stroke-linecap:square;"/>
    </g>
    <g id="line2d_57"/>
    <g id="text_22">
     <!-- Descanned line STED -->
     <g transform="translate(539.0895 253.71185)scale(0.144 -0.144)">
      <use xlink:href="#BitstreamVeraSans-Roman-44"/>
      <use x="77.001953125" xlink:href="#BitstreamVeraSans-Roman-65"/>
      <use x="138.525390625" xlink:href="#BitstreamVeraSans-Roman-73"/>
      <use x="190.625" xlink:href="#BitstreamVeraSans-Roman-63"/>
      <use x="245.60546875" xlink:href="#BitstreamVeraSans-Roman-61"/>
      <use x="306.884765625" xlink:href="#BitstreamVeraSans-Roman-6e"/>
      <use x="370.263671875" xlink:href="#BitstreamVeraSans-Roman-6e"/>
      <use x="433.642578125" xlink:href="#BitstreamVeraSans-Roman-65"/>
      <use x="495.166015625" xlink:href="#BitstreamVeraSans-Roman-64"/>
      <use x="558.642578125" xlink:href="#BitstreamVeraSans-Roman-20"/>
      <use x="590.4296875" xlink:href="#BitstreamVeraSans-Roman-6c"/>
      <use x="618.212890625" xlink:href="#BitstreamVeraSans-Roman-69"/>
      <use x="645.99609375" xlink:href="#BitstreamVeraSans-Roman-6e"/>
      <use x="709.375" xlink:href="#BitstreamVeraSans-Roman-65"/>
      <use x="770.8984375" xlink:href="#BitstreamVeraSans-Roman-20"/>
      <use x="802.685546875" xlink:href="#BitstreamVeraSans-Roman-53"/>
      <use x="866.162109375" xlink:href="#BitstreamVeraSans-Roman-54"/>
      <use x="927.24609375" xlink:href="#BitstreamVeraSans-Roman-45"/>
      <use x="990.4296875" xlink:href="#BitstreamVeraSans-Roman-44"/>
     </g>
    </g>
   </g>
  </g>
 </g>
 <defs>
  <clipPath id="pa9aff0bd78">
   <rect height="230.4" width="669.6" x="46.8975" y="39.2666"/>
  </clipPath>
 </defs>
</svg>
